M48
; DRILL file {KiCad 8.0.1} date 2024-06-30T08:57:29-0300
; FORMAT={-:-/ absolute / inch / decimal}
; #@! TF.CreationDate,2024-06-30T08:57:29-03:00
; #@! TF.GenerationSoftware,Kicad,Pcbnew,8.0.1
; #@! TF.FileFunction,Plated,1,2,PTH
FMAT,2
INCH
; #@! TA.AperFunction,Plated,PTH,ViaDrill
T1C0.0118
; #@! TA.AperFunction,Plated,PTH,ViaDrill
T2C0.0197
; #@! TA.AperFunction,Plated,PTH,ComponentDrill
T3C0.0256
; #@! TA.AperFunction,Plated,PTH,ComponentDrill
T4C0.0276
; #@! TA.AperFunction,Plated,PTH,ComponentDrill
T5C0.0315
; #@! TA.AperFunction,Plated,PTH,ComponentDrill
T6C0.0394
%
G90
G05
T1
X4.37Y-3.205
X4.375Y-3.325
X4.46Y-3.21
X4.495Y-3.32
X4.615Y-3.3
X4.665Y-3.56
X4.67Y-3.665
X4.685Y-2.975
X4.735Y-3.57
X4.735Y-3.665
X4.755Y-2.975
X4.775Y-3.35
X5.01Y-3.16
X5.235Y-3.185
X5.29Y-3.055
X5.38Y-3.055
X5.44Y-2.945
X5.487Y-3.1501
X5.525Y-3.58
X5.66Y-3.15
X5.735Y-3.5
X5.735Y-3.675
X5.76Y-3.145
X5.77Y-3.235
X5.96Y-3.49
X6.0Y-2.95
X6.005Y-3.07
X6.005Y-3.17
X6.005Y-3.27
X6.195Y-3.44
T2
X4.76Y-3.415
X4.81Y-3.1
X5.225Y-3.455
T5
X5.4338Y-3.535
X5.5811Y-3.0
X5.626Y-3.535
X5.715Y-3.0
X5.855Y-3.015
X5.855Y-3.115
X5.855Y-3.215
X5.855Y-3.315
X6.155Y-3.015
X6.155Y-3.115
X6.155Y-3.215
X6.155Y-3.315
T6
X4.85Y-2.975
X4.95Y-2.975
X5.01Y-3.46
X5.01Y-3.61
X5.05Y-2.975
X5.11Y-3.46
X5.11Y-3.61
X5.15Y-2.975
X5.175Y-3.215
X5.175Y-3.315
X5.25Y-2.975
X5.35Y-2.975
X6.025Y-3.655
X6.125Y-3.655
T3
G00X4.3872Y-3.1052
M15
G01X4.3872Y-3.121
M16
G05
G00X4.5778Y-3.1052
M15
G01X4.5778Y-3.121
M16
G05
T4
G00X4.375Y-2.9852
M15
G01X4.375Y-3.0048
M16
G05
G00X4.59Y-2.9852
M15
G01X4.59Y-3.0048
M16
G05
M30
