%TF.GenerationSoftware,KiCad,Pcbnew,8.0.1*%
%TF.CreationDate,2024-06-30T08:56:45-03:00*%
%TF.ProjectId,chaos_papagali,6368616f-735f-4706-9170-6167616c692e,rev?*%
%TF.SameCoordinates,Original*%
%TF.FileFunction,Copper,L2,Bot*%
%TF.FilePolarity,Positive*%
%FSLAX46Y46*%
G04 Gerber Fmt 4.6, Leading zero omitted, Abs format (unit mm)*
G04 Created by KiCad (PCBNEW 8.0.1) date 2024-06-30 08:56:45*
%MOMM*%
%LPD*%
G01*
G04 APERTURE LIST*
%TA.AperFunction,ComponentPad*%
%ADD10O,1.350000X1.700000*%
%TD*%
%TA.AperFunction,ComponentPad*%
%ADD11O,1.100000X1.500000*%
%TD*%
%TA.AperFunction,ComponentPad*%
%ADD12C,1.500000*%
%TD*%
%TA.AperFunction,ComponentPad*%
%ADD13R,1.700000X1.700000*%
%TD*%
%TA.AperFunction,ComponentPad*%
%ADD14O,1.700000X1.700000*%
%TD*%
%TA.AperFunction,ComponentPad*%
%ADD15R,1.600000X1.600000*%
%TD*%
%TA.AperFunction,ComponentPad*%
%ADD16O,1.600000X1.600000*%
%TD*%
%TA.AperFunction,ViaPad*%
%ADD17C,0.600000*%
%TD*%
%TA.AperFunction,ViaPad*%
%ADD18C,1.000000*%
%TD*%
%TA.AperFunction,Conductor*%
%ADD19C,0.254000*%
%TD*%
%TA.AperFunction,Conductor*%
%ADD20C,0.508000*%
%TD*%
%TA.AperFunction,Conductor*%
%ADD21C,0.200000*%
%TD*%
G04 APERTURE END LIST*
D10*
%TO.P,J2,6,Shield*%
%TO.N,GNDREF*%
X116586000Y-76073000D03*
D11*
X116276000Y-79073000D03*
X111436000Y-79073000D03*
D10*
X111126000Y-76073000D03*
%TD*%
D12*
%TO.P,R8,1*%
%TO.N,/A3*%
X141761000Y-76200000D03*
%TO.P,R8,2*%
%TO.N,GNDREF*%
X145161000Y-76200000D03*
%TD*%
D13*
%TO.P,M1,1,+*%
%TO.N,VCC*%
X155575000Y-92837000D03*
D14*
%TO.P,M1,2,-*%
%TO.N,Net-(D4-A)*%
X153035000Y-92837000D03*
%TD*%
D13*
%TO.P,SW1,1,1*%
%TO.N,GNDREF*%
X131445000Y-84201000D03*
D14*
%TO.P,SW1,2,2*%
%TO.N,Net-(U1-~{RESET}{slash}PC6)*%
X131445000Y-81661000D03*
%TD*%
D13*
%TO.P,JP1,1,A*%
%TO.N,Net-(J3-Pin_1)*%
X127254000Y-87884000D03*
D14*
%TO.P,JP1,2,B*%
%TO.N,VCC*%
X129794000Y-87884000D03*
%TD*%
D13*
%TO.P,J1,1,Pin_1*%
%TO.N,Net-(J1-Pin_1)*%
X123190000Y-75565000D03*
D14*
%TO.P,J1,2,Pin_2*%
%TO.N,TXO*%
X125730000Y-75565000D03*
%TO.P,J1,3,Pin_3*%
%TO.N,RXI*%
X128270000Y-75565000D03*
%TO.P,J1,4,Pin_4*%
%TO.N,VCC*%
X130810000Y-75565000D03*
%TO.P,J1,5,Pin_5*%
%TO.N,GNDREF*%
X133350000Y-75565000D03*
%TO.P,J1,6,Pin_6*%
X135890000Y-75565000D03*
%TD*%
D15*
%TO.P,SW3,1*%
%TO.N,Net-(U1-PC2)*%
X148717000Y-76581000D03*
D16*
%TO.P,SW3,2*%
%TO.N,/D5*%
X148717000Y-79121000D03*
%TO.P,SW3,3*%
%TO.N,/D6*%
X148717000Y-81661000D03*
%TO.P,SW3,4*%
%TO.N,/D7*%
X148717000Y-84201000D03*
%TO.P,SW3,5*%
%TO.N,GNDREF*%
X156337000Y-84201000D03*
%TO.P,SW3,6*%
X156337000Y-81661000D03*
%TO.P,SW3,7*%
X156337000Y-79121000D03*
%TO.P,SW3,8*%
X156337000Y-76581000D03*
%TD*%
D13*
%TO.P,J3,1,Pin_1*%
%TO.N,Net-(J3-Pin_1)*%
X129794000Y-91694000D03*
D14*
%TO.P,J3,2,Pin_2*%
%TO.N,Net-(J3-Pin_2)*%
X127254000Y-91694000D03*
%TD*%
D12*
%TO.P,Y1,1,1*%
%TO.N,Net-(U1-XTAL2{slash}PB7)*%
X142899500Y-89789000D03*
%TO.P,Y1,2,2*%
%TO.N,Net-(U1-XTAL1{slash}PB6)*%
X138019500Y-89789000D03*
%TD*%
D17*
%TO.N,GNDREF*%
X140335000Y-90932000D03*
X151384000Y-88646000D03*
X113284000Y-81534000D03*
X127254000Y-80264000D03*
X117221000Y-83820000D03*
X146558000Y-82169000D03*
X152527000Y-83058000D03*
X118491000Y-90424000D03*
X132969000Y-80899000D03*
X121285000Y-85090000D03*
X136652000Y-77597000D03*
X134366000Y-77597000D03*
X143764000Y-80010000D03*
X120269000Y-93091000D03*
X120269000Y-90678000D03*
X118618000Y-93091000D03*
X152400000Y-74930000D03*
X145669000Y-88900000D03*
X146304000Y-79883000D03*
X145669000Y-93345000D03*
X157353000Y-87376000D03*
X118999000Y-75565000D03*
X120777000Y-75565000D03*
X111125000Y-84455000D03*
X152527000Y-77978000D03*
X138176000Y-74803000D03*
X152527000Y-80518000D03*
X110998000Y-81407000D03*
X114173000Y-84328000D03*
D18*
%TO.N,VCC*%
X132715000Y-87757000D03*
D17*
%TO.N,Net-(U1-~{RESET}{slash}PC6)*%
X139369200Y-80011400D03*
D18*
%TO.N,Net-(J3-Pin_2)*%
X122174000Y-78740000D03*
%TO.N,Net-(J3-Pin_1)*%
X120904000Y-86741000D03*
%TD*%
D19*
%TO.N,GNDREF*%
X109778000Y-74422000D02*
X109778000Y-93853000D01*
X131445000Y-84201000D02*
X129794000Y-82550000D01*
X129794000Y-79121000D02*
X133350000Y-75565000D01*
X110109000Y-74091000D02*
X109778000Y-74422000D01*
X156337000Y-76581000D02*
X156337000Y-79121000D01*
X109778000Y-93853000D02*
X130429000Y-93853000D01*
X156337000Y-74599000D02*
X155829000Y-74091000D01*
X156337000Y-79121000D02*
X156337000Y-81661000D01*
X156337000Y-76581000D02*
X156337000Y-74599000D01*
X129794000Y-82550000D02*
X129794000Y-79121000D01*
X155829000Y-74091000D02*
X110109000Y-74091000D01*
X156337000Y-81661000D02*
X156337000Y-84201000D01*
D20*
%TO.N,VCC*%
X154178000Y-86106000D02*
X155575000Y-87503000D01*
X133731000Y-86106000D02*
X154178000Y-86106000D01*
D19*
X129794000Y-86106000D02*
X129794000Y-87884000D01*
D20*
X133731000Y-86106000D02*
X132715000Y-87122000D01*
D19*
X130810000Y-75565000D02*
X128651000Y-77724000D01*
D20*
X155575000Y-87503000D02*
X155575000Y-92837000D01*
D19*
X128651000Y-77724000D02*
X128651000Y-84963000D01*
X128651000Y-84963000D02*
X129794000Y-86106000D01*
D20*
X132715000Y-87122000D02*
X132715000Y-87757000D01*
D21*
%TO.N,Net-(U1-~{RESET}{slash}PC6)*%
X139367800Y-80010000D02*
X139369200Y-80011400D01*
X131445000Y-80645000D02*
X132080000Y-80010000D01*
X132080000Y-80010000D02*
X139367800Y-80010000D01*
X131445000Y-81661000D02*
X131445000Y-80645000D01*
D19*
%TO.N,Net-(J3-Pin_2)*%
X119761000Y-79756000D02*
X119761000Y-87503000D01*
X120777000Y-78740000D02*
X119761000Y-79756000D01*
X122174000Y-78740000D02*
X120777000Y-78740000D01*
X123952000Y-91694000D02*
X127254000Y-91694000D01*
X119761000Y-87503000D02*
X123952000Y-91694000D01*
D20*
%TO.N,Net-(J3-Pin_1)*%
X120904000Y-86741000D02*
X122047000Y-87884000D01*
X122047000Y-87884000D02*
X127254000Y-87884000D01*
%TD*%
%TA.AperFunction,Conductor*%
%TO.N,GNDREF*%
G36*
X135424075Y-75372007D02*
G01*
X135390000Y-75499174D01*
X135390000Y-75630826D01*
X135424075Y-75757993D01*
X135456988Y-75815000D01*
X133783012Y-75815000D01*
X133815925Y-75757993D01*
X133850000Y-75630826D01*
X133850000Y-75499174D01*
X133815925Y-75372007D01*
X133783012Y-75315000D01*
X135456988Y-75315000D01*
X135424075Y-75372007D01*
G37*
%TD.AperFunction*%
%TA.AperFunction,Conductor*%
G36*
X156587000Y-83885314D02*
G01*
X156582606Y-83880920D01*
X156491394Y-83828259D01*
X156389661Y-83801000D01*
X156284339Y-83801000D01*
X156182606Y-83828259D01*
X156091394Y-83880920D01*
X156087000Y-83885314D01*
X156087000Y-81976686D01*
X156091394Y-81981080D01*
X156182606Y-82033741D01*
X156284339Y-82061000D01*
X156389661Y-82061000D01*
X156491394Y-82033741D01*
X156582606Y-81981080D01*
X156587000Y-81976686D01*
X156587000Y-83885314D01*
G37*
%TD.AperFunction*%
%TA.AperFunction,Conductor*%
G36*
X156587000Y-81345314D02*
G01*
X156582606Y-81340920D01*
X156491394Y-81288259D01*
X156389661Y-81261000D01*
X156284339Y-81261000D01*
X156182606Y-81288259D01*
X156091394Y-81340920D01*
X156087000Y-81345314D01*
X156087000Y-79436686D01*
X156091394Y-79441080D01*
X156182606Y-79493741D01*
X156284339Y-79521000D01*
X156389661Y-79521000D01*
X156491394Y-79493741D01*
X156582606Y-79441080D01*
X156587000Y-79436686D01*
X156587000Y-81345314D01*
G37*
%TD.AperFunction*%
%TA.AperFunction,Conductor*%
G36*
X156587000Y-78805314D02*
G01*
X156582606Y-78800920D01*
X156491394Y-78748259D01*
X156389661Y-78721000D01*
X156284339Y-78721000D01*
X156182606Y-78748259D01*
X156091394Y-78800920D01*
X156087000Y-78805314D01*
X156087000Y-76896686D01*
X156091394Y-76901080D01*
X156182606Y-76953741D01*
X156284339Y-76981000D01*
X156389661Y-76981000D01*
X156491394Y-76953741D01*
X156582606Y-76901080D01*
X156587000Y-76896686D01*
X156587000Y-78805314D01*
G37*
%TD.AperFunction*%
%TA.AperFunction,Conductor*%
G36*
X125729048Y-73976412D02*
G01*
X125747088Y-73966931D01*
X125771520Y-73964500D01*
X128228480Y-73964500D01*
X128269048Y-73976412D01*
X128287088Y-73966931D01*
X128311520Y-73964500D01*
X130768480Y-73964500D01*
X130809048Y-73976412D01*
X130827088Y-73966931D01*
X130851520Y-73964500D01*
X157813500Y-73964500D01*
X157880539Y-73984185D01*
X157926294Y-74036989D01*
X157937500Y-74088500D01*
X157937500Y-94059500D01*
X157917815Y-94126539D01*
X157865011Y-94172294D01*
X157813500Y-94183500D01*
X156926247Y-94183500D01*
X156859208Y-94163815D01*
X156813453Y-94111011D01*
X156803509Y-94041853D01*
X156826981Y-93985188D01*
X156832140Y-93978297D01*
X156868796Y-93929331D01*
X156919091Y-93794483D01*
X156925500Y-93734873D01*
X156925499Y-91939128D01*
X156919091Y-91879517D01*
X156917810Y-91876083D01*
X156868797Y-91744671D01*
X156868793Y-91744664D01*
X156782547Y-91629455D01*
X156782544Y-91629452D01*
X156667335Y-91543206D01*
X156667328Y-91543202D01*
X156532482Y-91492908D01*
X156532483Y-91492908D01*
X156472883Y-91486501D01*
X156472881Y-91486500D01*
X156472873Y-91486500D01*
X156472865Y-91486500D01*
X156453500Y-91486500D01*
X156386461Y-91466815D01*
X156340706Y-91414011D01*
X156329500Y-91362500D01*
X156329500Y-87428687D01*
X156329499Y-87428683D01*
X156300506Y-87282927D01*
X156300505Y-87282920D01*
X156243629Y-87145610D01*
X156225377Y-87118294D01*
X156161060Y-87022035D01*
X156161054Y-87022028D01*
X156051647Y-86912621D01*
X156051624Y-86912600D01*
X154658969Y-85519943D01*
X154658968Y-85519942D01*
X154598998Y-85479872D01*
X154535389Y-85437370D01*
X154535386Y-85437368D01*
X154535385Y-85437368D01*
X154454955Y-85404053D01*
X154398080Y-85380495D01*
X154373894Y-85375684D01*
X154345762Y-85370088D01*
X154252314Y-85351499D01*
X154252312Y-85351499D01*
X154103688Y-85351499D01*
X154097574Y-85351499D01*
X154097554Y-85351500D01*
X149705049Y-85351500D01*
X149638010Y-85331815D01*
X149592255Y-85279011D01*
X149582311Y-85209853D01*
X149611336Y-85146297D01*
X149617368Y-85139819D01*
X149717045Y-85040141D01*
X149717047Y-85040139D01*
X149847568Y-84853734D01*
X149943739Y-84647496D01*
X150002635Y-84427692D01*
X150022468Y-84201000D01*
X150002635Y-83974308D01*
X149996389Y-83950999D01*
X155058127Y-83950999D01*
X155058128Y-83951000D01*
X156021314Y-83951000D01*
X156016920Y-83955394D01*
X155964259Y-84046606D01*
X155937000Y-84148339D01*
X155937000Y-84253661D01*
X155964259Y-84355394D01*
X156016920Y-84446606D01*
X156021314Y-84451000D01*
X155058128Y-84451000D01*
X155110730Y-84647317D01*
X155110734Y-84647326D01*
X155206865Y-84853482D01*
X155337342Y-85039820D01*
X155498179Y-85200657D01*
X155684517Y-85331134D01*
X155890673Y-85427265D01*
X155890682Y-85427269D01*
X156086999Y-85479872D01*
X156087000Y-85479871D01*
X156087000Y-84516686D01*
X156091394Y-84521080D01*
X156182606Y-84573741D01*
X156284339Y-84601000D01*
X156389661Y-84601000D01*
X156491394Y-84573741D01*
X156582606Y-84521080D01*
X156587000Y-84516686D01*
X156587000Y-85479872D01*
X156783317Y-85427269D01*
X156783326Y-85427265D01*
X156989482Y-85331134D01*
X157175820Y-85200657D01*
X157336657Y-85039820D01*
X157467134Y-84853482D01*
X157563265Y-84647326D01*
X157563269Y-84647317D01*
X157615872Y-84451000D01*
X156652686Y-84451000D01*
X156657080Y-84446606D01*
X156709741Y-84355394D01*
X156737000Y-84253661D01*
X156737000Y-84148339D01*
X156709741Y-84046606D01*
X156657080Y-83955394D01*
X156652686Y-83951000D01*
X157615872Y-83951000D01*
X157615872Y-83950999D01*
X157563269Y-83754682D01*
X157563265Y-83754673D01*
X157467134Y-83548517D01*
X157336657Y-83362179D01*
X157175820Y-83201342D01*
X156989481Y-83070865D01*
X156989479Y-83070864D01*
X156930543Y-83043382D01*
X156878103Y-82997210D01*
X156858951Y-82930017D01*
X156879166Y-82863136D01*
X156930543Y-82818618D01*
X156989479Y-82791135D01*
X156989481Y-82791134D01*
X157175820Y-82660657D01*
X157336657Y-82499820D01*
X157467134Y-82313482D01*
X157563265Y-82107326D01*
X157563269Y-82107317D01*
X157615872Y-81911000D01*
X156652686Y-81911000D01*
X156657080Y-81906606D01*
X156709741Y-81815394D01*
X156737000Y-81713661D01*
X156737000Y-81608339D01*
X156709741Y-81506606D01*
X156657080Y-81415394D01*
X156652686Y-81411000D01*
X157615872Y-81411000D01*
X157615872Y-81410999D01*
X157563269Y-81214682D01*
X157563265Y-81214673D01*
X157467134Y-81008517D01*
X157336657Y-80822179D01*
X157175820Y-80661342D01*
X156989481Y-80530865D01*
X156989479Y-80530864D01*
X156930543Y-80503382D01*
X156878103Y-80457210D01*
X156858951Y-80390017D01*
X156879166Y-80323136D01*
X156930543Y-80278618D01*
X156989479Y-80251135D01*
X156989481Y-80251134D01*
X157175820Y-80120657D01*
X157336657Y-79959820D01*
X157467134Y-79773482D01*
X157563265Y-79567326D01*
X157563269Y-79567317D01*
X157615872Y-79371000D01*
X156652686Y-79371000D01*
X156657080Y-79366606D01*
X156709741Y-79275394D01*
X156737000Y-79173661D01*
X156737000Y-79068339D01*
X156709741Y-78966606D01*
X156657080Y-78875394D01*
X156652686Y-78871000D01*
X157615872Y-78871000D01*
X157615872Y-78870999D01*
X157563269Y-78674682D01*
X157563265Y-78674673D01*
X157467134Y-78468517D01*
X157336657Y-78282179D01*
X157175820Y-78121342D01*
X156989481Y-77990865D01*
X156989479Y-77990864D01*
X156930543Y-77963382D01*
X156878103Y-77917210D01*
X156858951Y-77850017D01*
X156879166Y-77783136D01*
X156930543Y-77738618D01*
X156989479Y-77711135D01*
X156989481Y-77711134D01*
X157175820Y-77580657D01*
X157336657Y-77419820D01*
X157467134Y-77233482D01*
X157563265Y-77027326D01*
X157563269Y-77027317D01*
X157615872Y-76831000D01*
X156652686Y-76831000D01*
X156657080Y-76826606D01*
X156709741Y-76735394D01*
X156737000Y-76633661D01*
X156737000Y-76528339D01*
X156709741Y-76426606D01*
X156657080Y-76335394D01*
X156652686Y-76331000D01*
X157615872Y-76331000D01*
X157615872Y-76330999D01*
X157563269Y-76134682D01*
X157563265Y-76134673D01*
X157467134Y-75928517D01*
X157336657Y-75742179D01*
X157175820Y-75581342D01*
X156989482Y-75450865D01*
X156783328Y-75354734D01*
X156587000Y-75302127D01*
X156587000Y-76265314D01*
X156582606Y-76260920D01*
X156491394Y-76208259D01*
X156389661Y-76181000D01*
X156284339Y-76181000D01*
X156182606Y-76208259D01*
X156091394Y-76260920D01*
X156087000Y-76265314D01*
X156087000Y-75302127D01*
X155890671Y-75354734D01*
X155684517Y-75450865D01*
X155498179Y-75581342D01*
X155337342Y-75742179D01*
X155206865Y-75928517D01*
X155110734Y-76134673D01*
X155110730Y-76134682D01*
X155058127Y-76330999D01*
X155058128Y-76331000D01*
X156021314Y-76331000D01*
X156016920Y-76335394D01*
X155964259Y-76426606D01*
X155937000Y-76528339D01*
X155937000Y-76633661D01*
X155964259Y-76735394D01*
X156016920Y-76826606D01*
X156021314Y-76831000D01*
X155058128Y-76831000D01*
X155110730Y-77027317D01*
X155110734Y-77027326D01*
X155206865Y-77233482D01*
X155337342Y-77419820D01*
X155498179Y-77580657D01*
X155684517Y-77711134D01*
X155743457Y-77738618D01*
X155795896Y-77784790D01*
X155815048Y-77851984D01*
X155794832Y-77918865D01*
X155743457Y-77963382D01*
X155684517Y-77990865D01*
X155498179Y-78121342D01*
X155337342Y-78282179D01*
X155206865Y-78468517D01*
X155110734Y-78674673D01*
X155110730Y-78674682D01*
X155058127Y-78870999D01*
X155058128Y-78871000D01*
X156021314Y-78871000D01*
X156016920Y-78875394D01*
X155964259Y-78966606D01*
X155937000Y-79068339D01*
X155937000Y-79173661D01*
X155964259Y-79275394D01*
X156016920Y-79366606D01*
X156021314Y-79371000D01*
X155058128Y-79371000D01*
X155110730Y-79567317D01*
X155110734Y-79567326D01*
X155206865Y-79773482D01*
X155337342Y-79959820D01*
X155498179Y-80120657D01*
X155684517Y-80251134D01*
X155743457Y-80278618D01*
X155795896Y-80324790D01*
X155815048Y-80391984D01*
X155794832Y-80458865D01*
X155743457Y-80503382D01*
X155684517Y-80530865D01*
X155498179Y-80661342D01*
X155337342Y-80822179D01*
X155206865Y-81008517D01*
X155110734Y-81214673D01*
X155110730Y-81214682D01*
X155058127Y-81410999D01*
X155058128Y-81411000D01*
X156021314Y-81411000D01*
X156016920Y-81415394D01*
X155964259Y-81506606D01*
X155937000Y-81608339D01*
X155937000Y-81713661D01*
X155964259Y-81815394D01*
X156016920Y-81906606D01*
X156021314Y-81911000D01*
X155058128Y-81911000D01*
X155110730Y-82107317D01*
X155110734Y-82107326D01*
X155206865Y-82313482D01*
X155337342Y-82499820D01*
X155498179Y-82660657D01*
X155684517Y-82791134D01*
X155743457Y-82818618D01*
X155795896Y-82864790D01*
X155815048Y-82931984D01*
X155794832Y-82998865D01*
X155743457Y-83043382D01*
X155684517Y-83070865D01*
X155498179Y-83201342D01*
X155337342Y-83362179D01*
X155206865Y-83548517D01*
X155110734Y-83754673D01*
X155110730Y-83754682D01*
X155058127Y-83950999D01*
X149996389Y-83950999D01*
X149943739Y-83754504D01*
X149847568Y-83548266D01*
X149717047Y-83361861D01*
X149717045Y-83361858D01*
X149556141Y-83200954D01*
X149369734Y-83070432D01*
X149369728Y-83070429D01*
X149311725Y-83043382D01*
X149259285Y-82997210D01*
X149240133Y-82930017D01*
X149260348Y-82863135D01*
X149311725Y-82818618D01*
X149369734Y-82791568D01*
X149556139Y-82661047D01*
X149717047Y-82500139D01*
X149847568Y-82313734D01*
X149943739Y-82107496D01*
X150002635Y-81887692D01*
X150022468Y-81661000D01*
X150002635Y-81434308D01*
X149943739Y-81214504D01*
X149847568Y-81008266D01*
X149717047Y-80821861D01*
X149717045Y-80821858D01*
X149556141Y-80660954D01*
X149369734Y-80530432D01*
X149369728Y-80530429D01*
X149311725Y-80503382D01*
X149259285Y-80457210D01*
X149240133Y-80390017D01*
X149260348Y-80323135D01*
X149311725Y-80278618D01*
X149369734Y-80251568D01*
X149556139Y-80121047D01*
X149717047Y-79960139D01*
X149847568Y-79773734D01*
X149943739Y-79567496D01*
X150002635Y-79347692D01*
X150022468Y-79121000D01*
X150002635Y-78894308D01*
X149943739Y-78674504D01*
X149847568Y-78468266D01*
X149717047Y-78281861D01*
X149717045Y-78281858D01*
X149556143Y-78120956D01*
X149531536Y-78103726D01*
X149487912Y-78049149D01*
X149480719Y-77979650D01*
X149512241Y-77917296D01*
X149572471Y-77881882D01*
X149589404Y-77878861D01*
X149624483Y-77875091D01*
X149759331Y-77824796D01*
X149874546Y-77738546D01*
X149960796Y-77623331D01*
X150011091Y-77488483D01*
X150017500Y-77428873D01*
X150017499Y-75733128D01*
X150011091Y-75673517D01*
X149995168Y-75630826D01*
X149960797Y-75538671D01*
X149960793Y-75538664D01*
X149874547Y-75423455D01*
X149874544Y-75423452D01*
X149759335Y-75337206D01*
X149759328Y-75337202D01*
X149624482Y-75286908D01*
X149624483Y-75286908D01*
X149564883Y-75280501D01*
X149564881Y-75280500D01*
X149564873Y-75280500D01*
X149564864Y-75280500D01*
X147869129Y-75280500D01*
X147869123Y-75280501D01*
X147809516Y-75286908D01*
X147674671Y-75337202D01*
X147674664Y-75337206D01*
X147559455Y-75423452D01*
X147559452Y-75423455D01*
X147473206Y-75538664D01*
X147473202Y-75538671D01*
X147422908Y-75673517D01*
X147416501Y-75733116D01*
X147416501Y-75733123D01*
X147416500Y-75733135D01*
X147416500Y-77428870D01*
X147416501Y-77428876D01*
X147422908Y-77488483D01*
X147473202Y-77623328D01*
X147473206Y-77623335D01*
X147559452Y-77738544D01*
X147559455Y-77738547D01*
X147674664Y-77824793D01*
X147674671Y-77824797D01*
X147719618Y-77841561D01*
X147809517Y-77875091D01*
X147844596Y-77878862D01*
X147909144Y-77905599D01*
X147948993Y-77962991D01*
X147951488Y-78032816D01*
X147915836Y-78092905D01*
X147902464Y-78103725D01*
X147877858Y-78120954D01*
X147716954Y-78281858D01*
X147586432Y-78468265D01*
X147586431Y-78468267D01*
X147490261Y-78674502D01*
X147490258Y-78674511D01*
X147431366Y-78894302D01*
X147431364Y-78894313D01*
X147411532Y-79120998D01*
X147411532Y-79121001D01*
X147431364Y-79347686D01*
X147431366Y-79347697D01*
X147490258Y-79567488D01*
X147490261Y-79567497D01*
X147586431Y-79773732D01*
X147586432Y-79773734D01*
X147716954Y-79960141D01*
X147877858Y-80121045D01*
X147877861Y-80121047D01*
X148064266Y-80251568D01*
X148122275Y-80278618D01*
X148174714Y-80324791D01*
X148193866Y-80391984D01*
X148173650Y-80458865D01*
X148122275Y-80503382D01*
X148064267Y-80530431D01*
X148064265Y-80530432D01*
X147877858Y-80660954D01*
X147716954Y-80821858D01*
X147586432Y-81008265D01*
X147586431Y-81008267D01*
X147490261Y-81214502D01*
X147490258Y-81214511D01*
X147431366Y-81434302D01*
X147431364Y-81434313D01*
X147411532Y-81660998D01*
X147411532Y-81661001D01*
X147431364Y-81887686D01*
X147431366Y-81887697D01*
X147490258Y-82107488D01*
X147490261Y-82107497D01*
X147586431Y-82313732D01*
X147586432Y-82313734D01*
X147716954Y-82500141D01*
X147877858Y-82661045D01*
X147877861Y-82661047D01*
X148064266Y-82791568D01*
X148122275Y-82818618D01*
X148174714Y-82864791D01*
X148193866Y-82931984D01*
X148173650Y-82998865D01*
X148122275Y-83043382D01*
X148064267Y-83070431D01*
X148064265Y-83070432D01*
X147877858Y-83200954D01*
X147716954Y-83361858D01*
X147586432Y-83548265D01*
X147586431Y-83548267D01*
X147490261Y-83754502D01*
X147490258Y-83754511D01*
X147431366Y-83974302D01*
X147431364Y-83974313D01*
X147411532Y-84200998D01*
X147411532Y-84201001D01*
X147431364Y-84427686D01*
X147431366Y-84427697D01*
X147490258Y-84647488D01*
X147490261Y-84647497D01*
X147586431Y-84853732D01*
X147586432Y-84853734D01*
X147716954Y-85040141D01*
X147816632Y-85139819D01*
X147850117Y-85201142D01*
X147845133Y-85270834D01*
X147803261Y-85326767D01*
X147737797Y-85351184D01*
X147728951Y-85351500D01*
X133811446Y-85351500D01*
X133811426Y-85351499D01*
X133805312Y-85351499D01*
X133656688Y-85351499D01*
X133656686Y-85351499D01*
X133563237Y-85370088D01*
X133535105Y-85375684D01*
X133520540Y-85378581D01*
X133510918Y-85380495D01*
X133510917Y-85380495D01*
X133454045Y-85404053D01*
X133373614Y-85437368D01*
X133250031Y-85519942D01*
X132128942Y-86641031D01*
X132046370Y-86764610D01*
X132046370Y-86764611D01*
X132025369Y-86815312D01*
X132025369Y-86815313D01*
X131990450Y-86899615D01*
X131990445Y-86899627D01*
X131989494Y-86901920D01*
X131960499Y-87047685D01*
X131960499Y-87054896D01*
X131940814Y-87121935D01*
X131932353Y-87133560D01*
X131879090Y-87198461D01*
X131879086Y-87198467D01*
X131786188Y-87372266D01*
X131728975Y-87560870D01*
X131709659Y-87757000D01*
X131728975Y-87953129D01*
X131786188Y-88141733D01*
X131879086Y-88315532D01*
X131879090Y-88315539D01*
X132004116Y-88467883D01*
X132156460Y-88592909D01*
X132156467Y-88592913D01*
X132330266Y-88685811D01*
X132330269Y-88685811D01*
X132330273Y-88685814D01*
X132518868Y-88743024D01*
X132715000Y-88762341D01*
X132911132Y-88743024D01*
X133099727Y-88685814D01*
X133273538Y-88592910D01*
X133425883Y-88467883D01*
X133550910Y-88315538D01*
X133643814Y-88141727D01*
X133701024Y-87953132D01*
X133720341Y-87757000D01*
X133701024Y-87560868D01*
X133643814Y-87372273D01*
X133643811Y-87372268D01*
X133643810Y-87372263D01*
X133642698Y-87369578D01*
X133642534Y-87368057D01*
X133642045Y-87366444D01*
X133642351Y-87366351D01*
X133635229Y-87300108D01*
X133666505Y-87237629D01*
X133669519Y-87234505D01*
X134007208Y-86896816D01*
X134068529Y-86863334D01*
X134094887Y-86860500D01*
X153814113Y-86860500D01*
X153881152Y-86880185D01*
X153901794Y-86896819D01*
X154784181Y-87779205D01*
X154817666Y-87840528D01*
X154820500Y-87866886D01*
X154820500Y-91362500D01*
X154800815Y-91429539D01*
X154748011Y-91475294D01*
X154696505Y-91486500D01*
X154677132Y-91486500D01*
X154677123Y-91486501D01*
X154617516Y-91492908D01*
X154482671Y-91543202D01*
X154482664Y-91543206D01*
X154367455Y-91629452D01*
X154367452Y-91629455D01*
X154281206Y-91744664D01*
X154281203Y-91744669D01*
X154232189Y-91876083D01*
X154190317Y-91932016D01*
X154124853Y-91956433D01*
X154056580Y-91941581D01*
X154028326Y-91920430D01*
X153906402Y-91798506D01*
X153906395Y-91798501D01*
X153712834Y-91662967D01*
X153712830Y-91662965D01*
X153712828Y-91662964D01*
X153498663Y-91563097D01*
X153498659Y-91563096D01*
X153498655Y-91563094D01*
X153270413Y-91501938D01*
X153270403Y-91501936D01*
X153035001Y-91481341D01*
X153034999Y-91481341D01*
X152799596Y-91501936D01*
X152799586Y-91501938D01*
X152571344Y-91563094D01*
X152571335Y-91563098D01*
X152357171Y-91662964D01*
X152357169Y-91662965D01*
X152163597Y-91798505D01*
X151996505Y-91965597D01*
X151860965Y-92159169D01*
X151860964Y-92159171D01*
X151761098Y-92373335D01*
X151761094Y-92373344D01*
X151699938Y-92601586D01*
X151699936Y-92601596D01*
X151679341Y-92836999D01*
X151679341Y-92837000D01*
X151699936Y-93072403D01*
X151699938Y-93072413D01*
X151761094Y-93300655D01*
X151761096Y-93300659D01*
X151761097Y-93300663D01*
X151845499Y-93481663D01*
X151860965Y-93514830D01*
X151860967Y-93514834D01*
X151996501Y-93708395D01*
X151996506Y-93708402D01*
X152163597Y-93875493D01*
X152163603Y-93875498D01*
X152281321Y-93957925D01*
X152324946Y-94012502D01*
X152332140Y-94082000D01*
X152300617Y-94144355D01*
X152240387Y-94179769D01*
X152210198Y-94183500D01*
X148536528Y-94183500D01*
X148389472Y-94183500D01*
X148259070Y-94218441D01*
X148247423Y-94221562D01*
X148120076Y-94295086D01*
X148120070Y-94295091D01*
X148016091Y-94399070D01*
X148016086Y-94399076D01*
X147942562Y-94526423D01*
X147942561Y-94526427D01*
X147909423Y-94650095D01*
X147873060Y-94709754D01*
X147810213Y-94740283D01*
X147789650Y-94742000D01*
X145528586Y-94742000D01*
X145461547Y-94722315D01*
X145415792Y-94669511D01*
X145408813Y-94650099D01*
X145380847Y-94545726D01*
X145313901Y-94429774D01*
X145219226Y-94335099D01*
X145103274Y-94268153D01*
X144973945Y-94233500D01*
X142179945Y-94233500D01*
X142046055Y-94233500D01*
X141916725Y-94268153D01*
X141800774Y-94335099D01*
X141800771Y-94335101D01*
X141706101Y-94429771D01*
X141706099Y-94429774D01*
X141639153Y-94545724D01*
X141625581Y-94596377D01*
X141611187Y-94650094D01*
X141574824Y-94709753D01*
X141511978Y-94740283D01*
X141491414Y-94742000D01*
X138849350Y-94742000D01*
X138782311Y-94722315D01*
X138736556Y-94669511D01*
X138729577Y-94650100D01*
X138696439Y-94526427D01*
X138640636Y-94429774D01*
X138622913Y-94399076D01*
X138622908Y-94399070D01*
X138518929Y-94295091D01*
X138518923Y-94295086D01*
X138391576Y-94221562D01*
X138391577Y-94221562D01*
X138379929Y-94218441D01*
X138249528Y-94183500D01*
X128089528Y-94183500D01*
X127942472Y-94183500D01*
X127812070Y-94218441D01*
X127800423Y-94221562D01*
X127673076Y-94295086D01*
X127673070Y-94295091D01*
X127569091Y-94399070D01*
X127569086Y-94399076D01*
X127495562Y-94526423D01*
X127495561Y-94526427D01*
X127462423Y-94650095D01*
X127426060Y-94709754D01*
X127363213Y-94740283D01*
X127342650Y-94742000D01*
X125843586Y-94742000D01*
X125776547Y-94722315D01*
X125730792Y-94669511D01*
X125723813Y-94650099D01*
X125695847Y-94545726D01*
X125628901Y-94429774D01*
X125534226Y-94335099D01*
X125418274Y-94268153D01*
X125288945Y-94233500D01*
X122240945Y-94233500D01*
X122107055Y-94233500D01*
X121977725Y-94268153D01*
X121861774Y-94335099D01*
X121861771Y-94335101D01*
X121767101Y-94429771D01*
X121767099Y-94429774D01*
X121700153Y-94545724D01*
X121686581Y-94596377D01*
X121672187Y-94650094D01*
X121635824Y-94709753D01*
X121572978Y-94740283D01*
X121552414Y-94742000D01*
X119799350Y-94742000D01*
X119732311Y-94722315D01*
X119686556Y-94669511D01*
X119679577Y-94650100D01*
X119646439Y-94526427D01*
X119590636Y-94429774D01*
X119572913Y-94399076D01*
X119572908Y-94399070D01*
X119468929Y-94295091D01*
X119468923Y-94295086D01*
X119341576Y-94221562D01*
X119341577Y-94221562D01*
X119329929Y-94218441D01*
X119199528Y-94183500D01*
X119199525Y-94183500D01*
X109775500Y-94183500D01*
X109708461Y-94163815D01*
X109662706Y-94111011D01*
X109651500Y-94059500D01*
X109651500Y-87564807D01*
X119133500Y-87564807D01*
X119157612Y-87686028D01*
X119157614Y-87686035D01*
X119174592Y-87727023D01*
X119174593Y-87727025D01*
X119204915Y-87800230D01*
X119236503Y-87847505D01*
X119236503Y-87847506D01*
X119273585Y-87903003D01*
X119273591Y-87903011D01*
X123464589Y-92094008D01*
X123529750Y-92159169D01*
X123551994Y-92181413D01*
X123551997Y-92181414D01*
X123654767Y-92250083D01*
X123688215Y-92263937D01*
X123768965Y-92297386D01*
X123890192Y-92321499D01*
X123890196Y-92321500D01*
X123890197Y-92321500D01*
X124013803Y-92321500D01*
X125980173Y-92321500D01*
X126047212Y-92341185D01*
X126081747Y-92374375D01*
X126215505Y-92565401D01*
X126382599Y-92732495D01*
X126479384Y-92800265D01*
X126576165Y-92868032D01*
X126576167Y-92868033D01*
X126576170Y-92868035D01*
X126790337Y-92967903D01*
X127018592Y-93029063D01*
X127195034Y-93044500D01*
X127253999Y-93049659D01*
X127254000Y-93049659D01*
X127254001Y-93049659D01*
X127312966Y-93044500D01*
X127489408Y-93029063D01*
X127717663Y-92967903D01*
X127931830Y-92868035D01*
X128125401Y-92732495D01*
X128247329Y-92610566D01*
X128308648Y-92577084D01*
X128378340Y-92582068D01*
X128434274Y-92623939D01*
X128451189Y-92654917D01*
X128500202Y-92786328D01*
X128500206Y-92786335D01*
X128586452Y-92901544D01*
X128586455Y-92901547D01*
X128701664Y-92987793D01*
X128701671Y-92987797D01*
X128836517Y-93038091D01*
X128836516Y-93038091D01*
X128843444Y-93038835D01*
X128896127Y-93044500D01*
X130691872Y-93044499D01*
X130751483Y-93038091D01*
X130886331Y-92987796D01*
X131001546Y-92901546D01*
X131087796Y-92786331D01*
X131138091Y-92651483D01*
X131144500Y-92591873D01*
X131144499Y-90796128D01*
X131138091Y-90736517D01*
X131136810Y-90733083D01*
X131087797Y-90601671D01*
X131087793Y-90601664D01*
X131001547Y-90486455D01*
X131001544Y-90486452D01*
X130886335Y-90400206D01*
X130886328Y-90400202D01*
X130751482Y-90349908D01*
X130751483Y-90349908D01*
X130691883Y-90343501D01*
X130691881Y-90343500D01*
X130691873Y-90343500D01*
X130691864Y-90343500D01*
X128896129Y-90343500D01*
X128896123Y-90343501D01*
X128836516Y-90349908D01*
X128701671Y-90400202D01*
X128701664Y-90400206D01*
X128586455Y-90486452D01*
X128586452Y-90486455D01*
X128500206Y-90601664D01*
X128500203Y-90601669D01*
X128451189Y-90733083D01*
X128409317Y-90789016D01*
X128343853Y-90813433D01*
X128275580Y-90798581D01*
X128247326Y-90777430D01*
X128125402Y-90655506D01*
X128125395Y-90655501D01*
X127931834Y-90519967D01*
X127931830Y-90519965D01*
X127931828Y-90519964D01*
X127717663Y-90420097D01*
X127717659Y-90420096D01*
X127717655Y-90420094D01*
X127489413Y-90358938D01*
X127489403Y-90358936D01*
X127254001Y-90338341D01*
X127253999Y-90338341D01*
X127018596Y-90358936D01*
X127018586Y-90358938D01*
X126790344Y-90420094D01*
X126790335Y-90420098D01*
X126576171Y-90519964D01*
X126576169Y-90519965D01*
X126382597Y-90655505D01*
X126215505Y-90822597D01*
X126081749Y-91013623D01*
X126027172Y-91057248D01*
X125980174Y-91066500D01*
X124263281Y-91066500D01*
X124196242Y-91046815D01*
X124175600Y-91030181D01*
X122934421Y-89789002D01*
X136764223Y-89789002D01*
X136783293Y-90006975D01*
X136783293Y-90006979D01*
X136839922Y-90218322D01*
X136839924Y-90218326D01*
X136839925Y-90218330D01*
X136886161Y-90317484D01*
X136932397Y-90416638D01*
X136932398Y-90416639D01*
X137057902Y-90595877D01*
X137212623Y-90750598D01*
X137391861Y-90876102D01*
X137590170Y-90968575D01*
X137801523Y-91025207D01*
X137984426Y-91041208D01*
X138019498Y-91044277D01*
X138019500Y-91044277D01*
X138019502Y-91044277D01*
X138047754Y-91041805D01*
X138237477Y-91025207D01*
X138448830Y-90968575D01*
X138647139Y-90876102D01*
X138826377Y-90750598D01*
X138981098Y-90595877D01*
X139106602Y-90416639D01*
X139199075Y-90218330D01*
X139255707Y-90006977D01*
X139274777Y-89789002D01*
X141644223Y-89789002D01*
X141663293Y-90006975D01*
X141663293Y-90006979D01*
X141719922Y-90218322D01*
X141719924Y-90218326D01*
X141719925Y-90218330D01*
X141766161Y-90317484D01*
X141812397Y-90416638D01*
X141812398Y-90416639D01*
X141937902Y-90595877D01*
X142092623Y-90750598D01*
X142271861Y-90876102D01*
X142470170Y-90968575D01*
X142681523Y-91025207D01*
X142864426Y-91041208D01*
X142899498Y-91044277D01*
X142899500Y-91044277D01*
X142899502Y-91044277D01*
X142927754Y-91041805D01*
X143117477Y-91025207D01*
X143328830Y-90968575D01*
X143527139Y-90876102D01*
X143706377Y-90750598D01*
X143861098Y-90595877D01*
X143986602Y-90416639D01*
X144079075Y-90218330D01*
X144135707Y-90006977D01*
X144154777Y-89789000D01*
X144135707Y-89571023D01*
X144079075Y-89359670D01*
X143986602Y-89161362D01*
X143986600Y-89161359D01*
X143986599Y-89161357D01*
X143861099Y-88982124D01*
X143801468Y-88922493D01*
X143706377Y-88827402D01*
X143551802Y-88719167D01*
X143527138Y-88701897D01*
X143391861Y-88638817D01*
X143328830Y-88609425D01*
X143328826Y-88609424D01*
X143328822Y-88609422D01*
X143117477Y-88552793D01*
X142899502Y-88533723D01*
X142899498Y-88533723D01*
X142754182Y-88546436D01*
X142681523Y-88552793D01*
X142681520Y-88552793D01*
X142470177Y-88609422D01*
X142470170Y-88609424D01*
X142470170Y-88609425D01*
X142459683Y-88614315D01*
X142271861Y-88701898D01*
X142271857Y-88701900D01*
X142092621Y-88827402D01*
X141937902Y-88982121D01*
X141812400Y-89161357D01*
X141812398Y-89161361D01*
X141719926Y-89359668D01*
X141719922Y-89359677D01*
X141663293Y-89571020D01*
X141663293Y-89571024D01*
X141644223Y-89788997D01*
X141644223Y-89789002D01*
X139274777Y-89789002D01*
X139274777Y-89789000D01*
X139255707Y-89571023D01*
X139199075Y-89359670D01*
X139106602Y-89161362D01*
X139106600Y-89161359D01*
X139106599Y-89161357D01*
X138981099Y-88982124D01*
X138921468Y-88922493D01*
X138826377Y-88827402D01*
X138671802Y-88719167D01*
X138647138Y-88701897D01*
X138511861Y-88638817D01*
X138448830Y-88609425D01*
X138448826Y-88609424D01*
X138448822Y-88609422D01*
X138237477Y-88552793D01*
X138019502Y-88533723D01*
X138019498Y-88533723D01*
X137874182Y-88546436D01*
X137801523Y-88552793D01*
X137801520Y-88552793D01*
X137590177Y-88609422D01*
X137590170Y-88609424D01*
X137590170Y-88609425D01*
X137579683Y-88614315D01*
X137391861Y-88701898D01*
X137391857Y-88701900D01*
X137212621Y-88827402D01*
X137057902Y-88982121D01*
X136932400Y-89161357D01*
X136932398Y-89161361D01*
X136839926Y-89359668D01*
X136839922Y-89359677D01*
X136783293Y-89571020D01*
X136783293Y-89571024D01*
X136764223Y-89788997D01*
X136764223Y-89789002D01*
X122934421Y-89789002D01*
X121995601Y-88850182D01*
X121962116Y-88788859D01*
X121967100Y-88719167D01*
X122008972Y-88663234D01*
X122074436Y-88638817D01*
X122083282Y-88638501D01*
X122127426Y-88638501D01*
X122127446Y-88638500D01*
X125779501Y-88638500D01*
X125846540Y-88658185D01*
X125892295Y-88710989D01*
X125903501Y-88762500D01*
X125903501Y-88781876D01*
X125909908Y-88841483D01*
X125960202Y-88976328D01*
X125960206Y-88976335D01*
X126046452Y-89091544D01*
X126046455Y-89091547D01*
X126161664Y-89177793D01*
X126161671Y-89177797D01*
X126296517Y-89228091D01*
X126296516Y-89228091D01*
X126303444Y-89228835D01*
X126356127Y-89234500D01*
X128151872Y-89234499D01*
X128211483Y-89228091D01*
X128346331Y-89177796D01*
X128461546Y-89091546D01*
X128547796Y-88976331D01*
X128596810Y-88844916D01*
X128638681Y-88788984D01*
X128704145Y-88764566D01*
X128772418Y-88779417D01*
X128800673Y-88800569D01*
X128922599Y-88922495D01*
X129007754Y-88982121D01*
X129116165Y-89058032D01*
X129116167Y-89058033D01*
X129116170Y-89058035D01*
X129330337Y-89157903D01*
X129330343Y-89157904D01*
X129330344Y-89157905D01*
X129343246Y-89161362D01*
X129558592Y-89219063D01*
X129735034Y-89234500D01*
X129793999Y-89239659D01*
X129794000Y-89239659D01*
X129794001Y-89239659D01*
X129852966Y-89234500D01*
X130029408Y-89219063D01*
X130257663Y-89157903D01*
X130471830Y-89058035D01*
X130665401Y-88922495D01*
X130832495Y-88755401D01*
X130968035Y-88561830D01*
X131067903Y-88347663D01*
X131129063Y-88119408D01*
X131149659Y-87884000D01*
X131129063Y-87648592D01*
X131067903Y-87420337D01*
X130968035Y-87206171D01*
X130962638Y-87198462D01*
X130832494Y-87012597D01*
X130665402Y-86845506D01*
X130665401Y-86845505D01*
X130588508Y-86791664D01*
X130474375Y-86711747D01*
X130430752Y-86657171D01*
X130421500Y-86610173D01*
X130421500Y-86044194D01*
X130397386Y-85922970D01*
X130397385Y-85922969D01*
X130397385Y-85922965D01*
X130380452Y-85882085D01*
X130350086Y-85808773D01*
X130350079Y-85808760D01*
X130282642Y-85707834D01*
X130261764Y-85641157D01*
X130280248Y-85573776D01*
X130332227Y-85527086D01*
X130401197Y-85515910D01*
X130429078Y-85522761D01*
X130487623Y-85544597D01*
X130487627Y-85544598D01*
X130547155Y-85550999D01*
X130547172Y-85551000D01*
X131195000Y-85551000D01*
X131195000Y-84634012D01*
X131252007Y-84666925D01*
X131379174Y-84701000D01*
X131510826Y-84701000D01*
X131637993Y-84666925D01*
X131695000Y-84634012D01*
X131695000Y-85551000D01*
X132342828Y-85551000D01*
X132342844Y-85550999D01*
X132402372Y-85544598D01*
X132402379Y-85544596D01*
X132537086Y-85494354D01*
X132537093Y-85494350D01*
X132652187Y-85408190D01*
X132652190Y-85408187D01*
X132738350Y-85293093D01*
X132738354Y-85293086D01*
X132788596Y-85158379D01*
X132788598Y-85158372D01*
X132794999Y-85098844D01*
X132795000Y-85098827D01*
X132795000Y-84451000D01*
X131878012Y-84451000D01*
X131910925Y-84393993D01*
X131945000Y-84266826D01*
X131945000Y-84135174D01*
X131910925Y-84008007D01*
X131878012Y-83951000D01*
X132795000Y-83951000D01*
X132795000Y-83303172D01*
X132794999Y-83303155D01*
X132788598Y-83243627D01*
X132788596Y-83243620D01*
X132738354Y-83108913D01*
X132738350Y-83108906D01*
X132652190Y-82993812D01*
X132652187Y-82993809D01*
X132537093Y-82907649D01*
X132537088Y-82907646D01*
X132405528Y-82858577D01*
X132349595Y-82816705D01*
X132325178Y-82751241D01*
X132340030Y-82682968D01*
X132361175Y-82654720D01*
X132483495Y-82532401D01*
X132619035Y-82338830D01*
X132718903Y-82124663D01*
X132780063Y-81896408D01*
X132800659Y-81661000D01*
X132780063Y-81425592D01*
X132718903Y-81197337D01*
X132619035Y-80983171D01*
X132494714Y-80805622D01*
X132472388Y-80739417D01*
X132489398Y-80671650D01*
X132540346Y-80623837D01*
X132596290Y-80610500D01*
X138785032Y-80610500D01*
X138852071Y-80630185D01*
X138862345Y-80637553D01*
X138866937Y-80641215D01*
X138866938Y-80641216D01*
X139019678Y-80737189D01*
X139169457Y-80789599D01*
X139189945Y-80796768D01*
X139189950Y-80796769D01*
X139369196Y-80816965D01*
X139369200Y-80816965D01*
X139369204Y-80816965D01*
X139548449Y-80796769D01*
X139548452Y-80796768D01*
X139548455Y-80796768D01*
X139718722Y-80737189D01*
X139871462Y-80641216D01*
X139999016Y-80513662D01*
X140094989Y-80360922D01*
X140154568Y-80190655D01*
X140154569Y-80190649D01*
X140174765Y-80011403D01*
X140174765Y-80011396D01*
X140154569Y-79832150D01*
X140154568Y-79832145D01*
X140124194Y-79745341D01*
X140094989Y-79661878D01*
X139999016Y-79509138D01*
X139871462Y-79381584D01*
X139853558Y-79370334D01*
X139718723Y-79285611D01*
X139548454Y-79226031D01*
X139548449Y-79226030D01*
X139369204Y-79205835D01*
X139369196Y-79205835D01*
X139189950Y-79226030D01*
X139189945Y-79226031D01*
X139019676Y-79285611D01*
X138866938Y-79381583D01*
X138865855Y-79382448D01*
X138865022Y-79382787D01*
X138861042Y-79385289D01*
X138860603Y-79384591D01*
X138801168Y-79408856D01*
X138788543Y-79409500D01*
X132166670Y-79409500D01*
X132166654Y-79409499D01*
X132159058Y-79409499D01*
X132000943Y-79409499D01*
X131924579Y-79429961D01*
X131848214Y-79450423D01*
X131848209Y-79450426D01*
X131711290Y-79529475D01*
X131711282Y-79529481D01*
X130964481Y-80276282D01*
X130964475Y-80276290D01*
X130915615Y-80360920D01*
X130915614Y-80360923D01*
X130890269Y-80404820D01*
X130839701Y-80453035D01*
X130835289Y-80455199D01*
X130767176Y-80486961D01*
X130767169Y-80486965D01*
X130573597Y-80622505D01*
X130406505Y-80789597D01*
X130270965Y-80983169D01*
X130270964Y-80983171D01*
X130171098Y-81197335D01*
X130171094Y-81197344D01*
X130109938Y-81425586D01*
X130109936Y-81425596D01*
X130089341Y-81660999D01*
X130089341Y-81661000D01*
X130109936Y-81896403D01*
X130109938Y-81896413D01*
X130171094Y-82124655D01*
X130171096Y-82124659D01*
X130171097Y-82124663D01*
X130259145Y-82313482D01*
X130270965Y-82338830D01*
X130270967Y-82338834D01*
X130379281Y-82493521D01*
X130406501Y-82532396D01*
X130406506Y-82532402D01*
X130528818Y-82654714D01*
X130562303Y-82716037D01*
X130557319Y-82785729D01*
X130515447Y-82841662D01*
X130484471Y-82858577D01*
X130352912Y-82907646D01*
X130352906Y-82907649D01*
X130237812Y-82993809D01*
X130237809Y-82993812D01*
X130151649Y-83108906D01*
X130151645Y-83108913D01*
X130101403Y-83243620D01*
X130101401Y-83243627D01*
X130095000Y-83303155D01*
X130095000Y-83951000D01*
X131011988Y-83951000D01*
X130979075Y-84008007D01*
X130945000Y-84135174D01*
X130945000Y-84266826D01*
X130979075Y-84393993D01*
X131011988Y-84451000D01*
X130095000Y-84451000D01*
X130095000Y-85098844D01*
X130101401Y-85158372D01*
X130101403Y-85158382D01*
X130120870Y-85210575D01*
X130125854Y-85280266D01*
X130092368Y-85341589D01*
X130031045Y-85375073D01*
X129961353Y-85370088D01*
X129917007Y-85341588D01*
X129314819Y-84739400D01*
X129281334Y-84678077D01*
X129278500Y-84651719D01*
X129278500Y-78035280D01*
X129298185Y-77968241D01*
X129314814Y-77947603D01*
X130356584Y-76905833D01*
X130417905Y-76872350D01*
X130476356Y-76873741D01*
X130518107Y-76884928D01*
X130574592Y-76900063D01*
X130751034Y-76915500D01*
X130809999Y-76920659D01*
X130810000Y-76920659D01*
X130810001Y-76920659D01*
X130868966Y-76915500D01*
X131045408Y-76900063D01*
X131273663Y-76838903D01*
X131487830Y-76739035D01*
X131681401Y-76603495D01*
X131848495Y-76436401D01*
X131978730Y-76250405D01*
X132033307Y-76206781D01*
X132102805Y-76199587D01*
X132165160Y-76231110D01*
X132181879Y-76250405D01*
X132311890Y-76436078D01*
X132478917Y-76603105D01*
X132672421Y-76738600D01*
X132886507Y-76838429D01*
X132886516Y-76838433D01*
X133100000Y-76895634D01*
X133100000Y-75998012D01*
X133157007Y-76030925D01*
X133284174Y-76065000D01*
X133415826Y-76065000D01*
X133542993Y-76030925D01*
X133600000Y-75998012D01*
X133600000Y-76895633D01*
X133813483Y-76838433D01*
X133813492Y-76838429D01*
X134027578Y-76738600D01*
X134221082Y-76603105D01*
X134388105Y-76436082D01*
X134518425Y-76249968D01*
X134573002Y-76206344D01*
X134642501Y-76199151D01*
X134704855Y-76230673D01*
X134721575Y-76249968D01*
X134851894Y-76436082D01*
X135018917Y-76603105D01*
X135212421Y-76738600D01*
X135426507Y-76838429D01*
X135426516Y-76838433D01*
X135640000Y-76895634D01*
X135640000Y-75998012D01*
X135697007Y-76030925D01*
X135824174Y-76065000D01*
X135955826Y-76065000D01*
X136082993Y-76030925D01*
X136140000Y-75998012D01*
X136140000Y-76895633D01*
X136353483Y-76838433D01*
X136353492Y-76838429D01*
X136567578Y-76738600D01*
X136761082Y-76603105D01*
X136928105Y-76436082D01*
X137063600Y-76242578D01*
X137083453Y-76200002D01*
X140505723Y-76200002D01*
X140510133Y-76250405D01*
X140518012Y-76340473D01*
X140524793Y-76417975D01*
X140524793Y-76417979D01*
X140581422Y-76629322D01*
X140581424Y-76629326D01*
X140581425Y-76629330D01*
X140594481Y-76657328D01*
X140673897Y-76827638D01*
X140693205Y-76855212D01*
X140799402Y-77006877D01*
X140954123Y-77161598D01*
X141133361Y-77287102D01*
X141331670Y-77379575D01*
X141543023Y-77436207D01*
X141725926Y-77452208D01*
X141760998Y-77455277D01*
X141761000Y-77455277D01*
X141761002Y-77455277D01*
X141789254Y-77452805D01*
X141978977Y-77436207D01*
X142190330Y-77379575D01*
X142388639Y-77287102D01*
X142567877Y-77161598D01*
X142722598Y-77006877D01*
X142848102Y-76827639D01*
X142940575Y-76629330D01*
X142997207Y-76417977D01*
X143015432Y-76209664D01*
X143016277Y-76200002D01*
X143016277Y-76200000D01*
X143906225Y-76200000D01*
X143925287Y-76417884D01*
X143925289Y-76417894D01*
X143981894Y-76629150D01*
X143981898Y-76629159D01*
X144074333Y-76827387D01*
X144117874Y-76889571D01*
X144761000Y-76246445D01*
X144761000Y-76252661D01*
X144788259Y-76354394D01*
X144840920Y-76445606D01*
X144915394Y-76520080D01*
X145006606Y-76572741D01*
X145108339Y-76600000D01*
X145114553Y-76600000D01*
X144471427Y-77243124D01*
X144533612Y-77286666D01*
X144731840Y-77379101D01*
X144731849Y-77379105D01*
X144943105Y-77435710D01*
X144943115Y-77435712D01*
X145160999Y-77454775D01*
X145161001Y-77454775D01*
X145378884Y-77435712D01*
X145378894Y-77435710D01*
X145590150Y-77379105D01*
X145590164Y-77379100D01*
X145788383Y-77286669D01*
X145788385Y-77286668D01*
X145850571Y-77243124D01*
X145207448Y-76600000D01*
X145213661Y-76600000D01*
X145315394Y-76572741D01*
X145406606Y-76520080D01*
X145481080Y-76445606D01*
X145533741Y-76354394D01*
X145561000Y-76252661D01*
X145561000Y-76246446D01*
X146204124Y-76889570D01*
X146247668Y-76827385D01*
X146247669Y-76827383D01*
X146340100Y-76629164D01*
X146340105Y-76629150D01*
X146396710Y-76417894D01*
X146396712Y-76417884D01*
X146415775Y-76200000D01*
X146415775Y-76199999D01*
X146396712Y-75982115D01*
X146396710Y-75982105D01*
X146340105Y-75770849D01*
X146340101Y-75770840D01*
X146247667Y-75572614D01*
X146247666Y-75572612D01*
X146204124Y-75510428D01*
X146204124Y-75510427D01*
X145561000Y-76153551D01*
X145561000Y-76147339D01*
X145533741Y-76045606D01*
X145481080Y-75954394D01*
X145406606Y-75879920D01*
X145315394Y-75827259D01*
X145213661Y-75800000D01*
X145207447Y-75800000D01*
X145850571Y-75156874D01*
X145788387Y-75113333D01*
X145590159Y-75020898D01*
X145590150Y-75020894D01*
X145378894Y-74964289D01*
X145378884Y-74964287D01*
X145161001Y-74945225D01*
X145160999Y-74945225D01*
X144943115Y-74964287D01*
X144943105Y-74964289D01*
X144731849Y-75020894D01*
X144731840Y-75020898D01*
X144533613Y-75113333D01*
X144471428Y-75156874D01*
X145114554Y-75800000D01*
X145108339Y-75800000D01*
X145006606Y-75827259D01*
X144915394Y-75879920D01*
X144840920Y-75954394D01*
X144788259Y-76045606D01*
X144761000Y-76147339D01*
X144761000Y-76153554D01*
X144117874Y-75510428D01*
X144074333Y-75572613D01*
X143981898Y-75770840D01*
X143981894Y-75770849D01*
X143925289Y-75982105D01*
X143925287Y-75982115D01*
X143906225Y-76199999D01*
X143906225Y-76200000D01*
X143016277Y-76200000D01*
X143016277Y-76199997D01*
X143011670Y-76147339D01*
X142997207Y-75982023D01*
X142940575Y-75770670D01*
X142848102Y-75572362D01*
X142848100Y-75572359D01*
X142848099Y-75572357D01*
X142722599Y-75393124D01*
X142659067Y-75329592D01*
X142567877Y-75238402D01*
X142416691Y-75132540D01*
X142388638Y-75112897D01*
X142285921Y-75065000D01*
X142190330Y-75020425D01*
X142190326Y-75020424D01*
X142190322Y-75020422D01*
X141978977Y-74963793D01*
X141761002Y-74944723D01*
X141760998Y-74944723D01*
X141615682Y-74957436D01*
X141543023Y-74963793D01*
X141543020Y-74963793D01*
X141331677Y-75020422D01*
X141331668Y-75020426D01*
X141133361Y-75112898D01*
X141133357Y-75112900D01*
X140954121Y-75238402D01*
X140799402Y-75393121D01*
X140673900Y-75572357D01*
X140673898Y-75572361D01*
X140581426Y-75770668D01*
X140581422Y-75770677D01*
X140524793Y-75982020D01*
X140524793Y-75982024D01*
X140505723Y-76199997D01*
X140505723Y-76200002D01*
X137083453Y-76200002D01*
X137163429Y-76028492D01*
X137163432Y-76028486D01*
X137220636Y-75815000D01*
X136323012Y-75815000D01*
X136355925Y-75757993D01*
X136390000Y-75630826D01*
X136390000Y-75499174D01*
X136355925Y-75372007D01*
X136323012Y-75315000D01*
X137220636Y-75315000D01*
X137220635Y-75314999D01*
X137163432Y-75101513D01*
X137163429Y-75101507D01*
X137063600Y-74887422D01*
X137063599Y-74887420D01*
X136928113Y-74693926D01*
X136928108Y-74693920D01*
X136761082Y-74526894D01*
X136567578Y-74391399D01*
X136353492Y-74291570D01*
X136353486Y-74291567D01*
X136140000Y-74234364D01*
X136140000Y-75131988D01*
X136082993Y-75099075D01*
X135955826Y-75065000D01*
X135824174Y-75065000D01*
X135697007Y-75099075D01*
X135640000Y-75131988D01*
X135640000Y-74234364D01*
X135639999Y-74234364D01*
X135426513Y-74291567D01*
X135426507Y-74291570D01*
X135212422Y-74391399D01*
X135212420Y-74391400D01*
X135018926Y-74526886D01*
X135018920Y-74526891D01*
X134851891Y-74693920D01*
X134851890Y-74693922D01*
X134721575Y-74880031D01*
X134666998Y-74923655D01*
X134597499Y-74930848D01*
X134535145Y-74899326D01*
X134518425Y-74880031D01*
X134388109Y-74693922D01*
X134388108Y-74693920D01*
X134221082Y-74526894D01*
X134027578Y-74391399D01*
X133813492Y-74291570D01*
X133813486Y-74291567D01*
X133600000Y-74234364D01*
X133600000Y-75131988D01*
X133542993Y-75099075D01*
X133415826Y-75065000D01*
X133284174Y-75065000D01*
X133157007Y-75099075D01*
X133100000Y-75131988D01*
X133100000Y-74234364D01*
X133099999Y-74234364D01*
X132886513Y-74291567D01*
X132886507Y-74291570D01*
X132672422Y-74391399D01*
X132672420Y-74391400D01*
X132478926Y-74526886D01*
X132478920Y-74526891D01*
X132311891Y-74693920D01*
X132311890Y-74693922D01*
X132181880Y-74879595D01*
X132127303Y-74923219D01*
X132057804Y-74930412D01*
X131995450Y-74898890D01*
X131978730Y-74879594D01*
X131848494Y-74693597D01*
X131681402Y-74526506D01*
X131681395Y-74526501D01*
X131487834Y-74390967D01*
X131487830Y-74390965D01*
X131487828Y-74390964D01*
X131273663Y-74291097D01*
X131273659Y-74291096D01*
X131273655Y-74291094D01*
X131045413Y-74229938D01*
X131045403Y-74229936D01*
X130840712Y-74212028D01*
X130813125Y-74201236D01*
X130803415Y-74207477D01*
X130779288Y-74212028D01*
X130574596Y-74229936D01*
X130574586Y-74229938D01*
X130346344Y-74291094D01*
X130346335Y-74291098D01*
X130132171Y-74390964D01*
X130132169Y-74390965D01*
X129938597Y-74526505D01*
X129771505Y-74693597D01*
X129641575Y-74879158D01*
X129586998Y-74922783D01*
X129517500Y-74929977D01*
X129455145Y-74898454D01*
X129438425Y-74879158D01*
X129308494Y-74693597D01*
X129141402Y-74526506D01*
X129141395Y-74526501D01*
X128947834Y-74390967D01*
X128947830Y-74390965D01*
X128947828Y-74390964D01*
X128733663Y-74291097D01*
X128733659Y-74291096D01*
X128733655Y-74291094D01*
X128505413Y-74229938D01*
X128505403Y-74229936D01*
X128300712Y-74212028D01*
X128273125Y-74201236D01*
X128263415Y-74207477D01*
X128239288Y-74212028D01*
X128034596Y-74229936D01*
X128034586Y-74229938D01*
X127806344Y-74291094D01*
X127806335Y-74291098D01*
X127592171Y-74390964D01*
X127592169Y-74390965D01*
X127398597Y-74526505D01*
X127231505Y-74693597D01*
X127101575Y-74879158D01*
X127046998Y-74922783D01*
X126977500Y-74929977D01*
X126915145Y-74898454D01*
X126898425Y-74879158D01*
X126768494Y-74693597D01*
X126601402Y-74526506D01*
X126601395Y-74526501D01*
X126407834Y-74390967D01*
X126407830Y-74390965D01*
X126407828Y-74390964D01*
X126193663Y-74291097D01*
X126193659Y-74291096D01*
X126193655Y-74291094D01*
X125965413Y-74229938D01*
X125965403Y-74229936D01*
X125760712Y-74212028D01*
X125733125Y-74201236D01*
X125723415Y-74207477D01*
X125699288Y-74212028D01*
X125494596Y-74229936D01*
X125494586Y-74229938D01*
X125266344Y-74291094D01*
X125266335Y-74291098D01*
X125052171Y-74390964D01*
X125052169Y-74390965D01*
X124858600Y-74526503D01*
X124736673Y-74648430D01*
X124675350Y-74681914D01*
X124605658Y-74676930D01*
X124549725Y-74635058D01*
X124532810Y-74604081D01*
X124483797Y-74472671D01*
X124483793Y-74472664D01*
X124397547Y-74357455D01*
X124397544Y-74357452D01*
X124282335Y-74271206D01*
X124282328Y-74271202D01*
X124147482Y-74220908D01*
X124147483Y-74220908D01*
X124087883Y-74214501D01*
X124087881Y-74214500D01*
X124087873Y-74214500D01*
X124087864Y-74214500D01*
X122292129Y-74214500D01*
X122292123Y-74214501D01*
X122232516Y-74220908D01*
X122097671Y-74271202D01*
X122097664Y-74271206D01*
X121982455Y-74357452D01*
X121982452Y-74357455D01*
X121896206Y-74472664D01*
X121896202Y-74472671D01*
X121845908Y-74607517D01*
X121839501Y-74667116D01*
X121839500Y-74667135D01*
X121839500Y-76462870D01*
X121839501Y-76462876D01*
X121845908Y-76522483D01*
X121896202Y-76657328D01*
X121896206Y-76657335D01*
X121982452Y-76772544D01*
X121982455Y-76772547D01*
X122097664Y-76858793D01*
X122097671Y-76858797D01*
X122232517Y-76909091D01*
X122232516Y-76909091D01*
X122239444Y-76909835D01*
X122292127Y-76915500D01*
X124087872Y-76915499D01*
X124147483Y-76909091D01*
X124282331Y-76858796D01*
X124397546Y-76772546D01*
X124483796Y-76657331D01*
X124532810Y-76525916D01*
X124574681Y-76469984D01*
X124640145Y-76445566D01*
X124708418Y-76460417D01*
X124736673Y-76481569D01*
X124858599Y-76603495D01*
X124955384Y-76671265D01*
X125052165Y-76739032D01*
X125052167Y-76739033D01*
X125052170Y-76739035D01*
X125266337Y-76838903D01*
X125494592Y-76900063D01*
X125671034Y-76915500D01*
X125729999Y-76920659D01*
X125730000Y-76920659D01*
X125730001Y-76920659D01*
X125788966Y-76915500D01*
X125965408Y-76900063D01*
X126193663Y-76838903D01*
X126407830Y-76739035D01*
X126601401Y-76603495D01*
X126768495Y-76436401D01*
X126898425Y-76250842D01*
X126953002Y-76207217D01*
X127022500Y-76200023D01*
X127084855Y-76231546D01*
X127101575Y-76250842D01*
X127231281Y-76436082D01*
X127231505Y-76436401D01*
X127398599Y-76603495D01*
X127495384Y-76671265D01*
X127592165Y-76739032D01*
X127592167Y-76739033D01*
X127592170Y-76739035D01*
X127806337Y-76838903D01*
X128034592Y-76900063D01*
X128211034Y-76915500D01*
X128275394Y-76921131D01*
X128275238Y-76922913D01*
X128334599Y-76940344D01*
X128380354Y-76993148D01*
X128390298Y-77062306D01*
X128361273Y-77125862D01*
X128355244Y-77132335D01*
X128250992Y-77236589D01*
X128207289Y-77280292D01*
X128163586Y-77323994D01*
X128163585Y-77323996D01*
X128094233Y-77427789D01*
X128092586Y-77432393D01*
X128047615Y-77540962D01*
X128047612Y-77540972D01*
X128031230Y-77623332D01*
X128023500Y-77662192D01*
X128023500Y-85024807D01*
X128047612Y-85146027D01*
X128047614Y-85146035D01*
X128081062Y-85226785D01*
X128094915Y-85260229D01*
X128094920Y-85260238D01*
X128116869Y-85293086D01*
X128149277Y-85341589D01*
X128155898Y-85351497D01*
X128155899Y-85351500D01*
X128163586Y-85363004D01*
X128163593Y-85363013D01*
X129130181Y-86329600D01*
X129163666Y-86390923D01*
X129166500Y-86417281D01*
X129166500Y-86610173D01*
X129146815Y-86677212D01*
X129113624Y-86711748D01*
X128922597Y-86845505D01*
X128800673Y-86967430D01*
X128739350Y-87000914D01*
X128669658Y-86995930D01*
X128613725Y-86954058D01*
X128596810Y-86923081D01*
X128547797Y-86791671D01*
X128547793Y-86791664D01*
X128461547Y-86676455D01*
X128461544Y-86676452D01*
X128346335Y-86590206D01*
X128346328Y-86590202D01*
X128211482Y-86539908D01*
X128211483Y-86539908D01*
X128151883Y-86533501D01*
X128151881Y-86533500D01*
X128151873Y-86533500D01*
X128151864Y-86533500D01*
X126356129Y-86533500D01*
X126356123Y-86533501D01*
X126296516Y-86539908D01*
X126161671Y-86590202D01*
X126161664Y-86590206D01*
X126046455Y-86676452D01*
X126046452Y-86676455D01*
X125960206Y-86791664D01*
X125960202Y-86791671D01*
X125909908Y-86926517D01*
X125903501Y-86986116D01*
X125903500Y-86986135D01*
X125903500Y-87005500D01*
X125883815Y-87072539D01*
X125831011Y-87118294D01*
X125779500Y-87129500D01*
X122410887Y-87129500D01*
X122343848Y-87109815D01*
X122323206Y-87093181D01*
X121933975Y-86703950D01*
X121900490Y-86642627D01*
X121898253Y-86628422D01*
X121890024Y-86544871D01*
X121890024Y-86544868D01*
X121832814Y-86356273D01*
X121832811Y-86356269D01*
X121832811Y-86356266D01*
X121739913Y-86182467D01*
X121739909Y-86182460D01*
X121614883Y-86030116D01*
X121462539Y-85905090D01*
X121462532Y-85905086D01*
X121288733Y-85812188D01*
X121288727Y-85812186D01*
X121162997Y-85774046D01*
X121100129Y-85754975D01*
X120904000Y-85735659D01*
X120707869Y-85754975D01*
X120548495Y-85803321D01*
X120478628Y-85803944D01*
X120419515Y-85766696D01*
X120389924Y-85703401D01*
X120388500Y-85684660D01*
X120388500Y-80067281D01*
X120408185Y-80000242D01*
X120424819Y-79979600D01*
X121000600Y-79403819D01*
X121061923Y-79370334D01*
X121088281Y-79367500D01*
X121336038Y-79367500D01*
X121403077Y-79387185D01*
X121431891Y-79412835D01*
X121463116Y-79450883D01*
X121615460Y-79575909D01*
X121615467Y-79575913D01*
X121789266Y-79668811D01*
X121789269Y-79668811D01*
X121789273Y-79668814D01*
X121977868Y-79726024D01*
X122174000Y-79745341D01*
X122370132Y-79726024D01*
X122558727Y-79668814D01*
X122571702Y-79661879D01*
X122645632Y-79622362D01*
X122732538Y-79575910D01*
X122884883Y-79450883D01*
X123009910Y-79298538D01*
X123102814Y-79124727D01*
X123160024Y-78936132D01*
X123179341Y-78740000D01*
X123160024Y-78543868D01*
X123102814Y-78355273D01*
X123102811Y-78355269D01*
X123102811Y-78355266D01*
X123009913Y-78181467D01*
X123009909Y-78181460D01*
X122884883Y-78029116D01*
X122732539Y-77904090D01*
X122732532Y-77904086D01*
X122558733Y-77811188D01*
X122558727Y-77811186D01*
X122370132Y-77753976D01*
X122370129Y-77753975D01*
X122174000Y-77734659D01*
X121977870Y-77753975D01*
X121789266Y-77811188D01*
X121615467Y-77904086D01*
X121615460Y-77904090D01*
X121463116Y-78029116D01*
X121431891Y-78067165D01*
X121374145Y-78106499D01*
X121336038Y-78112500D01*
X120715192Y-78112500D01*
X120593972Y-78136612D01*
X120593964Y-78136614D01*
X120513215Y-78170062D01*
X120485682Y-78181467D01*
X120479767Y-78183917D01*
X120450220Y-78203660D01*
X120425017Y-78220500D01*
X120376989Y-78252590D01*
X120376986Y-78252593D01*
X119561242Y-79068339D01*
X119360992Y-79268589D01*
X119313794Y-79315787D01*
X119273589Y-79355992D01*
X119204915Y-79458770D01*
X119197648Y-79476311D01*
X119197649Y-79476312D01*
X119157615Y-79572962D01*
X119157612Y-79572972D01*
X119139928Y-79661879D01*
X119139928Y-79661880D01*
X119133500Y-79694194D01*
X119133500Y-87564807D01*
X109651500Y-87564807D01*
X109651500Y-79376420D01*
X110386000Y-79376420D01*
X110426348Y-79579266D01*
X110426350Y-79579274D01*
X110505500Y-79770358D01*
X110505505Y-79770368D01*
X110620410Y-79942335D01*
X110620413Y-79942339D01*
X110766660Y-80088586D01*
X110766664Y-80088589D01*
X110938631Y-80203494D01*
X110938641Y-80203499D01*
X111129723Y-80282648D01*
X111129725Y-80282649D01*
X111186000Y-80293842D01*
X111186000Y-79482618D01*
X111236446Y-79533064D01*
X111310555Y-79575851D01*
X111393213Y-79598000D01*
X111478787Y-79598000D01*
X111561445Y-79575851D01*
X111635554Y-79533064D01*
X111686000Y-79482618D01*
X111686000Y-80293842D01*
X111742274Y-80282649D01*
X111742276Y-80282648D01*
X111933358Y-80203499D01*
X111933368Y-80203494D01*
X112105335Y-80088589D01*
X112105339Y-80088586D01*
X112251586Y-79942339D01*
X112251589Y-79942335D01*
X112366494Y-79770368D01*
X112366499Y-79770358D01*
X112445649Y-79579274D01*
X112445651Y-79579266D01*
X112485999Y-79376420D01*
X115226000Y-79376420D01*
X115266348Y-79579266D01*
X115266350Y-79579274D01*
X115345500Y-79770358D01*
X115345505Y-79770368D01*
X115460410Y-79942335D01*
X115460413Y-79942339D01*
X115606660Y-80088586D01*
X115606664Y-80088589D01*
X115778631Y-80203494D01*
X115778641Y-80203499D01*
X115969723Y-80282648D01*
X115969725Y-80282649D01*
X116026000Y-80293842D01*
X116026000Y-79482618D01*
X116076446Y-79533064D01*
X116150555Y-79575851D01*
X116233213Y-79598000D01*
X116318787Y-79598000D01*
X116401445Y-79575851D01*
X116475554Y-79533064D01*
X116526000Y-79482618D01*
X116526000Y-80293842D01*
X116582274Y-80282649D01*
X116582276Y-80282648D01*
X116773358Y-80203499D01*
X116773368Y-80203494D01*
X116945335Y-80088589D01*
X116945339Y-80088586D01*
X117091586Y-79942339D01*
X117091589Y-79942335D01*
X117206494Y-79770368D01*
X117206499Y-79770358D01*
X117285649Y-79579274D01*
X117285651Y-79579266D01*
X117325999Y-79376420D01*
X117326000Y-79376417D01*
X117326000Y-79323000D01*
X116599067Y-79323000D01*
X116601000Y-79315787D01*
X116601000Y-78830213D01*
X116599067Y-78823000D01*
X117326000Y-78823000D01*
X117326000Y-78769583D01*
X117325999Y-78769579D01*
X117285651Y-78566733D01*
X117285649Y-78566725D01*
X117206499Y-78375641D01*
X117206494Y-78375631D01*
X117091589Y-78203664D01*
X117091586Y-78203660D01*
X116945339Y-78057413D01*
X116945335Y-78057410D01*
X116773368Y-77942505D01*
X116773358Y-77942500D01*
X116582272Y-77863349D01*
X116582267Y-77863347D01*
X116526000Y-77852155D01*
X116526000Y-78663382D01*
X116475554Y-78612936D01*
X116401445Y-78570149D01*
X116318787Y-78548000D01*
X116233213Y-78548000D01*
X116150555Y-78570149D01*
X116076446Y-78612936D01*
X116026000Y-78663382D01*
X116026000Y-77852156D01*
X116025999Y-77852155D01*
X115969732Y-77863347D01*
X115969727Y-77863349D01*
X115778641Y-77942500D01*
X115778631Y-77942505D01*
X115606664Y-78057410D01*
X115606660Y-78057413D01*
X115460413Y-78203660D01*
X115460410Y-78203664D01*
X115345505Y-78375631D01*
X115345500Y-78375641D01*
X115266350Y-78566725D01*
X115266348Y-78566733D01*
X115226000Y-78769579D01*
X115226000Y-78823000D01*
X115952933Y-78823000D01*
X115951000Y-78830213D01*
X115951000Y-79315787D01*
X115952933Y-79323000D01*
X115226000Y-79323000D01*
X115226000Y-79376420D01*
X112485999Y-79376420D01*
X112486000Y-79376417D01*
X112486000Y-79323000D01*
X111759067Y-79323000D01*
X111761000Y-79315787D01*
X111761000Y-78830213D01*
X111759067Y-78823000D01*
X112486000Y-78823000D01*
X112486000Y-78769583D01*
X112485999Y-78769579D01*
X112445651Y-78566733D01*
X112445649Y-78566725D01*
X112366499Y-78375641D01*
X112366494Y-78375631D01*
X112251589Y-78203664D01*
X112251586Y-78203660D01*
X112105339Y-78057413D01*
X112105335Y-78057410D01*
X111933368Y-77942505D01*
X111933358Y-77942500D01*
X111742272Y-77863349D01*
X111742267Y-77863347D01*
X111686000Y-77852155D01*
X111686000Y-78663382D01*
X111635554Y-78612936D01*
X111561445Y-78570149D01*
X111478787Y-78548000D01*
X111393213Y-78548000D01*
X111310555Y-78570149D01*
X111236446Y-78612936D01*
X111186000Y-78663382D01*
X111186000Y-77852156D01*
X111185999Y-77852155D01*
X111129732Y-77863347D01*
X111129727Y-77863349D01*
X110938641Y-77942500D01*
X110938631Y-77942505D01*
X110766664Y-78057410D01*
X110766660Y-78057413D01*
X110620413Y-78203660D01*
X110620410Y-78203664D01*
X110505505Y-78375631D01*
X110505500Y-78375641D01*
X110426350Y-78566725D01*
X110426348Y-78566733D01*
X110386000Y-78769579D01*
X110386000Y-78823000D01*
X111112933Y-78823000D01*
X111111000Y-78830213D01*
X111111000Y-79315787D01*
X111112933Y-79323000D01*
X110386000Y-79323000D01*
X110386000Y-79376420D01*
X109651500Y-79376420D01*
X109651500Y-76340473D01*
X109951000Y-76340473D01*
X109979933Y-76523147D01*
X110037083Y-76699040D01*
X110037084Y-76699043D01*
X110121052Y-76863837D01*
X110229754Y-77013454D01*
X110229758Y-77013459D01*
X110360540Y-77144241D01*
X110360545Y-77144245D01*
X110510162Y-77252947D01*
X110674956Y-77336915D01*
X110674959Y-77336916D01*
X110850845Y-77394064D01*
X110850858Y-77394067D01*
X110876000Y-77398049D01*
X110876000Y-76567975D01*
X110911095Y-76603070D01*
X110990905Y-76649148D01*
X111079922Y-76673000D01*
X111172078Y-76673000D01*
X111261095Y-76649148D01*
X111340905Y-76603070D01*
X111376000Y-76567975D01*
X111376000Y-77398048D01*
X111401141Y-77394067D01*
X111401154Y-77394064D01*
X111577040Y-77336916D01*
X111577043Y-77336915D01*
X111741837Y-77252947D01*
X111891454Y-77144245D01*
X111891459Y-77144241D01*
X112022241Y-77013459D01*
X112022245Y-77013454D01*
X112130947Y-76863837D01*
X112214915Y-76699043D01*
X112214916Y-76699040D01*
X112272066Y-76523147D01*
X112301000Y-76340473D01*
X115411000Y-76340473D01*
X115439933Y-76523147D01*
X115497083Y-76699040D01*
X115497084Y-76699043D01*
X115581052Y-76863837D01*
X115689754Y-77013454D01*
X115689758Y-77013459D01*
X115820540Y-77144241D01*
X115820545Y-77144245D01*
X115970162Y-77252947D01*
X116134956Y-77336915D01*
X116134959Y-77336916D01*
X116310845Y-77394064D01*
X116310858Y-77394067D01*
X116336000Y-77398049D01*
X116336000Y-76567975D01*
X116371095Y-76603070D01*
X116450905Y-76649148D01*
X116539922Y-76673000D01*
X116632078Y-76673000D01*
X116721095Y-76649148D01*
X116800905Y-76603070D01*
X116836000Y-76567975D01*
X116836000Y-77398048D01*
X116861141Y-77394067D01*
X116861154Y-77394064D01*
X117037040Y-77336916D01*
X117037043Y-77336915D01*
X117201837Y-77252947D01*
X117351454Y-77144245D01*
X117351459Y-77144241D01*
X117482241Y-77013459D01*
X117482245Y-77013454D01*
X117590947Y-76863837D01*
X117674915Y-76699043D01*
X117674916Y-76699040D01*
X117732066Y-76523147D01*
X117761000Y-76340473D01*
X117761000Y-76323000D01*
X116936000Y-76323000D01*
X116936000Y-75823000D01*
X117761000Y-75823000D01*
X117761000Y-75805526D01*
X117732066Y-75622852D01*
X117674916Y-75446959D01*
X117674915Y-75446956D01*
X117590947Y-75282162D01*
X117482245Y-75132545D01*
X117482241Y-75132540D01*
X117351459Y-75001758D01*
X117351454Y-75001754D01*
X117201837Y-74893052D01*
X117037043Y-74809084D01*
X117037037Y-74809082D01*
X116861144Y-74751932D01*
X116836000Y-74747950D01*
X116836000Y-75578025D01*
X116800905Y-75542930D01*
X116721095Y-75496852D01*
X116632078Y-75473000D01*
X116539922Y-75473000D01*
X116450905Y-75496852D01*
X116371095Y-75542930D01*
X116336000Y-75578025D01*
X116336000Y-74747950D01*
X116335999Y-74747950D01*
X116310855Y-74751932D01*
X116134962Y-74809082D01*
X116134956Y-74809084D01*
X115970162Y-74893052D01*
X115820545Y-75001754D01*
X115820540Y-75001758D01*
X115689758Y-75132540D01*
X115689754Y-75132545D01*
X115581052Y-75282162D01*
X115497084Y-75446956D01*
X115497083Y-75446959D01*
X115439933Y-75622852D01*
X115411000Y-75805526D01*
X115411000Y-75823000D01*
X116236000Y-75823000D01*
X116236000Y-76323000D01*
X115411000Y-76323000D01*
X115411000Y-76340473D01*
X112301000Y-76340473D01*
X112301000Y-76323000D01*
X111476000Y-76323000D01*
X111476000Y-75823000D01*
X112301000Y-75823000D01*
X112301000Y-75805526D01*
X112272066Y-75622852D01*
X112214916Y-75446959D01*
X112214915Y-75446956D01*
X112130947Y-75282162D01*
X112022245Y-75132545D01*
X112022241Y-75132540D01*
X111891459Y-75001758D01*
X111891454Y-75001754D01*
X111741837Y-74893052D01*
X111577043Y-74809084D01*
X111577037Y-74809082D01*
X111401144Y-74751932D01*
X111376000Y-74747950D01*
X111376000Y-75578025D01*
X111340905Y-75542930D01*
X111261095Y-75496852D01*
X111172078Y-75473000D01*
X111079922Y-75473000D01*
X110990905Y-75496852D01*
X110911095Y-75542930D01*
X110876000Y-75578025D01*
X110876000Y-74747950D01*
X110875999Y-74747950D01*
X110850855Y-74751932D01*
X110674962Y-74809082D01*
X110674956Y-74809084D01*
X110510162Y-74893052D01*
X110360545Y-75001754D01*
X110360540Y-75001758D01*
X110229758Y-75132540D01*
X110229754Y-75132545D01*
X110121052Y-75282162D01*
X110037084Y-75446956D01*
X110037083Y-75446959D01*
X109979933Y-75622852D01*
X109951000Y-75805526D01*
X109951000Y-75823000D01*
X110776000Y-75823000D01*
X110776000Y-76323000D01*
X109951000Y-76323000D01*
X109951000Y-76340473D01*
X109651500Y-76340473D01*
X109651500Y-74088500D01*
X109671185Y-74021461D01*
X109723989Y-73975706D01*
X109775500Y-73964500D01*
X125688480Y-73964500D01*
X125729048Y-73976412D01*
G37*
%TD.AperFunction*%
%TD*%
%TA.AperFunction,Conductor*%
%TO.N,GNDREF*%
G36*
X121619453Y-95777685D02*
G01*
X121665208Y-95830489D01*
X121672186Y-95849900D01*
X121691192Y-95920833D01*
X121700153Y-95954275D01*
X121711295Y-95973573D01*
X121767099Y-96070226D01*
X121861774Y-96164901D01*
X121977726Y-96231847D01*
X122107055Y-96266500D01*
X122107057Y-96266500D01*
X125288943Y-96266500D01*
X125288945Y-96266500D01*
X125418274Y-96231847D01*
X125534226Y-96164901D01*
X125628901Y-96070226D01*
X125695847Y-95954274D01*
X125723812Y-95849905D01*
X125760176Y-95790247D01*
X125823022Y-95759717D01*
X125843586Y-95758000D01*
X127342650Y-95758000D01*
X127409689Y-95777685D01*
X127455444Y-95830489D01*
X127462422Y-95849899D01*
X127462425Y-95849907D01*
X127495562Y-95973576D01*
X127569086Y-96100923D01*
X127569088Y-96100925D01*
X127569089Y-96100927D01*
X127673073Y-96204911D01*
X127673074Y-96204912D01*
X127673076Y-96204913D01*
X127800423Y-96278437D01*
X127800424Y-96278437D01*
X127800427Y-96278439D01*
X127942472Y-96316500D01*
X127942475Y-96316500D01*
X138249525Y-96316500D01*
X138249528Y-96316500D01*
X138391573Y-96278439D01*
X138518927Y-96204911D01*
X138622911Y-96100927D01*
X138696439Y-95973573D01*
X138729576Y-95849904D01*
X138765940Y-95790246D01*
X138828787Y-95759717D01*
X138849350Y-95758000D01*
X141491414Y-95758000D01*
X141558453Y-95777685D01*
X141604208Y-95830489D01*
X141611186Y-95849900D01*
X141630192Y-95920833D01*
X141639153Y-95954275D01*
X141650295Y-95973573D01*
X141706099Y-96070226D01*
X141800774Y-96164901D01*
X141916726Y-96231847D01*
X142046055Y-96266500D01*
X142046057Y-96266500D01*
X144973943Y-96266500D01*
X144973945Y-96266500D01*
X145103274Y-96231847D01*
X145219226Y-96164901D01*
X145313901Y-96070226D01*
X145380847Y-95954274D01*
X145408812Y-95849905D01*
X145445176Y-95790247D01*
X145508022Y-95759717D01*
X145528586Y-95758000D01*
X147789650Y-95758000D01*
X147856689Y-95777685D01*
X147902444Y-95830489D01*
X147909422Y-95849899D01*
X147909425Y-95849907D01*
X147942562Y-95973576D01*
X148016086Y-96100923D01*
X148016088Y-96100925D01*
X148016089Y-96100927D01*
X148120073Y-96204911D01*
X148120074Y-96204912D01*
X148120076Y-96204913D01*
X148247423Y-96278437D01*
X148247424Y-96278437D01*
X148247427Y-96278439D01*
X148389472Y-96316500D01*
X148536528Y-96316500D01*
X157813500Y-96316500D01*
X157880539Y-96336185D01*
X157926294Y-96388989D01*
X157937500Y-96440500D01*
X157937500Y-116411500D01*
X157917815Y-116478539D01*
X157865011Y-116524294D01*
X157813500Y-116535500D01*
X109775500Y-116535500D01*
X109708461Y-116515815D01*
X109662706Y-116463011D01*
X109651500Y-116411500D01*
X109651500Y-106299000D01*
X148203616Y-106299000D01*
X148223142Y-106721348D01*
X148223142Y-106721354D01*
X148223143Y-106721356D01*
X148281555Y-107140092D01*
X148281556Y-107140097D01*
X148378354Y-107551658D01*
X148512719Y-107952548D01*
X148512722Y-107952555D01*
X148683485Y-108339297D01*
X148683490Y-108339307D01*
X148683494Y-108339316D01*
X148683498Y-108339324D01*
X148683499Y-108339325D01*
X148889225Y-108708674D01*
X148889228Y-108708678D01*
X148889230Y-108708682D01*
X149128169Y-109057490D01*
X149128171Y-109057492D01*
X149128178Y-109057502D01*
X149394443Y-109378153D01*
X149398272Y-109382764D01*
X149697236Y-109681728D01*
X149697247Y-109681737D01*
X150022497Y-109951821D01*
X150022503Y-109951825D01*
X150022510Y-109951831D01*
X150371318Y-110190770D01*
X150740684Y-110396506D01*
X151127458Y-110567283D01*
X151528339Y-110701645D01*
X151939908Y-110798445D01*
X152358652Y-110856858D01*
X152781000Y-110876384D01*
X153203348Y-110856858D01*
X153622092Y-110798445D01*
X154033661Y-110701645D01*
X154434542Y-110567283D01*
X154821316Y-110396506D01*
X155190682Y-110190770D01*
X155539490Y-109951831D01*
X155864764Y-109681728D01*
X156163728Y-109382764D01*
X156433831Y-109057490D01*
X156672770Y-108708682D01*
X156878506Y-108339316D01*
X157049283Y-107952542D01*
X157183645Y-107551661D01*
X157280445Y-107140092D01*
X157338858Y-106721348D01*
X157358384Y-106299000D01*
X157338858Y-105876652D01*
X157280445Y-105457908D01*
X157183645Y-105046339D01*
X157049283Y-104645458D01*
X156878506Y-104258684D01*
X156711907Y-103959583D01*
X156672774Y-103889325D01*
X156672773Y-103889324D01*
X156672770Y-103889318D01*
X156433831Y-103540510D01*
X156433825Y-103540503D01*
X156433821Y-103540497D01*
X156163737Y-103215247D01*
X156163728Y-103215236D01*
X155864764Y-102916272D01*
X155750268Y-102821196D01*
X155539502Y-102646178D01*
X155539492Y-102646171D01*
X155539490Y-102646169D01*
X155190682Y-102407230D01*
X155190678Y-102407228D01*
X155190674Y-102407225D01*
X154821325Y-102201499D01*
X154821324Y-102201498D01*
X154821316Y-102201494D01*
X154821307Y-102201490D01*
X154821297Y-102201485D01*
X154434555Y-102030722D01*
X154434548Y-102030719D01*
X154033658Y-101896354D01*
X153622097Y-101799556D01*
X153622092Y-101799555D01*
X153203356Y-101741143D01*
X153203354Y-101741142D01*
X153203348Y-101741142D01*
X152781000Y-101721616D01*
X152358652Y-101741142D01*
X152358645Y-101741142D01*
X152358643Y-101741143D01*
X151939907Y-101799555D01*
X151939902Y-101799556D01*
X151528341Y-101896354D01*
X151127451Y-102030719D01*
X151127444Y-102030722D01*
X150740702Y-102201485D01*
X150740674Y-102201499D01*
X150371325Y-102407225D01*
X150371319Y-102407229D01*
X150022507Y-102646171D01*
X150022497Y-102646178D01*
X149697247Y-102916262D01*
X149697227Y-102916280D01*
X149398280Y-103215227D01*
X149398262Y-103215247D01*
X149128178Y-103540497D01*
X149128171Y-103540507D01*
X148889229Y-103889319D01*
X148889225Y-103889325D01*
X148683499Y-104258674D01*
X148683485Y-104258702D01*
X148512722Y-104645444D01*
X148512719Y-104645451D01*
X148378354Y-105046341D01*
X148342146Y-105200290D01*
X148281555Y-105457908D01*
X148223142Y-105876652D01*
X148203616Y-106299000D01*
X109651500Y-106299000D01*
X109651500Y-96440500D01*
X109671185Y-96373461D01*
X109723989Y-96327706D01*
X109775500Y-96316500D01*
X119199525Y-96316500D01*
X119199528Y-96316500D01*
X119341573Y-96278439D01*
X119468927Y-96204911D01*
X119572911Y-96100927D01*
X119646439Y-95973573D01*
X119679576Y-95849904D01*
X119715940Y-95790246D01*
X119778787Y-95759717D01*
X119799350Y-95758000D01*
X121552414Y-95758000D01*
X121619453Y-95777685D01*
G37*
%TD.AperFunction*%
%TD*%
M02*
