%TF.GenerationSoftware,KiCad,Pcbnew,8.0.1*%
%TF.CreationDate,2024-06-30T08:56:45-03:00*%
%TF.ProjectId,chaos_papagali,6368616f-735f-4706-9170-6167616c692e,rev?*%
%TF.SameCoordinates,Original*%
%TF.FileFunction,Copper,L1,Top*%
%TF.FilePolarity,Positive*%
%FSLAX46Y46*%
G04 Gerber Fmt 4.6, Leading zero omitted, Abs format (unit mm)*
G04 Created by KiCad (PCBNEW 8.0.1) date 2024-06-30 08:56:45*
%MOMM*%
%LPD*%
G01*
G04 APERTURE LIST*
G04 Aperture macros list*
%AMRoundRect*
0 Rectangle with rounded corners*
0 $1 Rounding radius*
0 $2 $3 $4 $5 $6 $7 $8 $9 X,Y pos of 4 corners*
0 Add a 4 corners polygon primitive as box body*
4,1,4,$2,$3,$4,$5,$6,$7,$8,$9,$2,$3,0*
0 Add four circle primitives for the rounded corners*
1,1,$1+$1,$2,$3*
1,1,$1+$1,$4,$5*
1,1,$1+$1,$6,$7*
1,1,$1+$1,$8,$9*
0 Add four rect primitives between the rounded corners*
20,1,$1+$1,$2,$3,$4,$5,0*
20,1,$1+$1,$4,$5,$6,$7,0*
20,1,$1+$1,$6,$7,$8,$9,0*
20,1,$1+$1,$8,$9,$2,$3,0*%
G04 Aperture macros list end*
%TA.AperFunction,SMDPad,CuDef*%
%ADD10RoundRect,0.237500X-0.300000X-0.237500X0.300000X-0.237500X0.300000X0.237500X-0.300000X0.237500X0*%
%TD*%
%TA.AperFunction,SMDPad,CuDef*%
%ADD11R,0.400000X1.650000*%
%TD*%
%TA.AperFunction,SMDPad,CuDef*%
%ADD12R,1.825000X0.700000*%
%TD*%
%TA.AperFunction,SMDPad,CuDef*%
%ADD13R,2.000000X1.500000*%
%TD*%
%TA.AperFunction,SMDPad,CuDef*%
%ADD14R,1.350000X2.000000*%
%TD*%
%TA.AperFunction,ComponentPad*%
%ADD15O,1.350000X1.700000*%
%TD*%
%TA.AperFunction,ComponentPad*%
%ADD16O,1.100000X1.500000*%
%TD*%
%TA.AperFunction,SMDPad,CuDef*%
%ADD17R,1.430000X2.500000*%
%TD*%
%TA.AperFunction,SMDPad,CuDef*%
%ADD18C,0.500000*%
%TD*%
%TA.AperFunction,SMDPad,CuDef*%
%ADD19RoundRect,0.237500X0.237500X-0.250000X0.237500X0.250000X-0.237500X0.250000X-0.237500X-0.250000X0*%
%TD*%
%TA.AperFunction,SMDPad,CuDef*%
%ADD20RoundRect,0.150000X0.150000X-0.512500X0.150000X0.512500X-0.150000X0.512500X-0.150000X-0.512500X0*%
%TD*%
%TA.AperFunction,SMDPad,CuDef*%
%ADD21RoundRect,0.237500X-0.237500X0.250000X-0.237500X-0.250000X0.237500X-0.250000X0.237500X0.250000X0*%
%TD*%
%TA.AperFunction,SMDPad,CuDef*%
%ADD22RoundRect,0.062500X-0.375000X-0.062500X0.375000X-0.062500X0.375000X0.062500X-0.375000X0.062500X0*%
%TD*%
%TA.AperFunction,SMDPad,CuDef*%
%ADD23RoundRect,0.062500X-0.062500X-0.375000X0.062500X-0.375000X0.062500X0.375000X-0.062500X0.375000X0*%
%TD*%
%TA.AperFunction,HeatsinkPad*%
%ADD24R,3.100000X3.100000*%
%TD*%
%TA.AperFunction,SMDPad,CuDef*%
%ADD25RoundRect,0.237500X0.237500X-0.300000X0.237500X0.300000X-0.237500X0.300000X-0.237500X-0.300000X0*%
%TD*%
%TA.AperFunction,SMDPad,CuDef*%
%ADD26RoundRect,0.237500X0.300000X0.237500X-0.300000X0.237500X-0.300000X-0.237500X0.300000X-0.237500X0*%
%TD*%
%TA.AperFunction,ComponentPad*%
%ADD27C,1.500000*%
%TD*%
%TA.AperFunction,SMDPad,CuDef*%
%ADD28RoundRect,0.237500X0.237500X-0.287500X0.237500X0.287500X-0.237500X0.287500X-0.237500X-0.287500X0*%
%TD*%
%TA.AperFunction,ComponentPad*%
%ADD29R,1.700000X1.700000*%
%TD*%
%TA.AperFunction,ComponentPad*%
%ADD30O,1.700000X1.700000*%
%TD*%
%TA.AperFunction,SMDPad,CuDef*%
%ADD31RoundRect,0.225000X0.225000X0.375000X-0.225000X0.375000X-0.225000X-0.375000X0.225000X-0.375000X0*%
%TD*%
%TA.AperFunction,SMDPad,CuDef*%
%ADD32RoundRect,0.237500X0.250000X0.237500X-0.250000X0.237500X-0.250000X-0.237500X0.250000X-0.237500X0*%
%TD*%
%TA.AperFunction,SMDPad,CuDef*%
%ADD33RoundRect,0.237500X-0.250000X-0.237500X0.250000X-0.237500X0.250000X0.237500X-0.250000X0.237500X0*%
%TD*%
%TA.AperFunction,SMDPad,CuDef*%
%ADD34RoundRect,0.150000X0.150000X-0.675000X0.150000X0.675000X-0.150000X0.675000X-0.150000X-0.675000X0*%
%TD*%
%TA.AperFunction,ComponentPad*%
%ADD35R,1.600000X1.600000*%
%TD*%
%TA.AperFunction,ComponentPad*%
%ADD36O,1.600000X1.600000*%
%TD*%
%TA.AperFunction,SMDPad,CuDef*%
%ADD37RoundRect,0.100000X-0.100000X0.637500X-0.100000X-0.637500X0.100000X-0.637500X0.100000X0.637500X0*%
%TD*%
%TA.AperFunction,SMDPad,CuDef*%
%ADD38RoundRect,0.150000X-0.150000X0.587500X-0.150000X-0.587500X0.150000X-0.587500X0.150000X0.587500X0*%
%TD*%
%TA.AperFunction,ViaPad*%
%ADD39C,0.600000*%
%TD*%
%TA.AperFunction,ViaPad*%
%ADD40C,1.000000*%
%TD*%
%TA.AperFunction,Conductor*%
%ADD41C,0.254000*%
%TD*%
%TA.AperFunction,Conductor*%
%ADD42C,0.200000*%
%TD*%
%TA.AperFunction,Conductor*%
%ADD43C,0.508000*%
%TD*%
G04 APERTURE END LIST*
D10*
%TO.P,C8,1*%
%TO.N,Net-(J3-Pin_2)*%
X123825000Y-78740000D03*
%TO.P,C8,2*%
%TO.N,Net-(U3-VCC)*%
X125550000Y-78740000D03*
%TD*%
D11*
%TO.P,J2,1,VBUS*%
%TO.N,Net-(J2-VBUS)*%
X115156000Y-78953000D03*
%TO.P,J2,2,D-*%
%TO.N,unconnected-(J2-D--Pad2)*%
X114506000Y-78953000D03*
%TO.P,J2,3,D+*%
%TO.N,unconnected-(J2-D+-Pad3)*%
X113856000Y-78953000D03*
%TO.P,J2,4,ID*%
%TO.N,unconnected-(J2-ID-Pad4)*%
X113206000Y-78953000D03*
%TO.P,J2,5,GND*%
%TO.N,GNDREF*%
X112556000Y-78953000D03*
D12*
%TO.P,J2,6,Shield*%
X116806000Y-77753000D03*
D13*
X116706000Y-79053000D03*
D14*
X116586000Y-77003000D03*
D15*
X116586000Y-76073000D03*
D16*
X116276000Y-79073000D03*
D17*
X114816000Y-75803000D03*
X112896000Y-75803000D03*
D16*
X111436000Y-79073000D03*
D15*
X111126000Y-76073000D03*
D14*
X111106000Y-77003000D03*
D13*
X110956000Y-79073000D03*
D12*
X110856000Y-77753000D03*
%TD*%
D18*
%TO.P,F2,*%
%TO.N,*%
X111887000Y-98552000D03*
%TD*%
D10*
%TO.P,C5,1*%
%TO.N,Net-(J1-Pin_1)*%
X127254000Y-78740000D03*
%TO.P,C5,2*%
%TO.N,Net-(U1-~{RESET}{slash}PC6)*%
X128979000Y-78740000D03*
%TD*%
D19*
%TO.P,R6,1*%
%TO.N,GNDREF*%
X110874500Y-92242500D03*
%TO.P,R6,2*%
%TO.N,Net-(U2-PROG)*%
X110874500Y-90417500D03*
%TD*%
D20*
%TO.P,U3,1,OD*%
%TO.N,Net-(U3-OD)*%
X122621000Y-83814500D03*
%TO.P,U3,2,CS*%
%TO.N,Net-(U3-CS)*%
X123571000Y-83814500D03*
%TO.P,U3,3,OC*%
%TO.N,Net-(U3-OC)*%
X124521000Y-83814500D03*
%TO.P,U3,4,TD*%
%TO.N,unconnected-(U3-TD-Pad4)*%
X124521000Y-81539500D03*
%TO.P,U3,5,VCC*%
%TO.N,Net-(U3-VCC)*%
X123571000Y-81539500D03*
%TO.P,U3,6,GND*%
%TO.N,Net-(J3-Pin_2)*%
X122621000Y-81539500D03*
%TD*%
D19*
%TO.P,R9,1*%
%TO.N,Net-(J3-Pin_1)*%
X126365000Y-83740000D03*
%TO.P,R9,2*%
%TO.N,Net-(U3-VCC)*%
X126365000Y-81915000D03*
%TD*%
D21*
%TO.P,R10,1*%
%TO.N,GNDREF*%
X128524000Y-81868000D03*
%TO.P,R10,2*%
%TO.N,Net-(U3-CS)*%
X128524000Y-83693000D03*
%TD*%
D22*
%TO.P,U1,1,PD3*%
%TO.N,unconnected-(U1-PD3-Pad1)*%
X137262500Y-81661000D03*
%TO.P,U1,2,PD4*%
%TO.N,unconnected-(U1-PD4-Pad2)*%
X137262500Y-82161000D03*
%TO.P,U1,3,GND*%
%TO.N,GNDREF*%
X137262500Y-82661000D03*
%TO.P,U1,4,VCC*%
%TO.N,VCC*%
X137262500Y-83161000D03*
%TO.P,U1,5,GND*%
%TO.N,GNDREF*%
X137262500Y-83661000D03*
%TO.P,U1,6,VCC*%
%TO.N,VCC*%
X137262500Y-84161000D03*
%TO.P,U1,7,XTAL1/PB6*%
%TO.N,Net-(U1-XTAL1{slash}PB6)*%
X137262500Y-84661000D03*
%TO.P,U1,8,XTAL2/PB7*%
%TO.N,Net-(U1-XTAL2{slash}PB7)*%
X137262500Y-85161000D03*
D23*
%TO.P,U1,9,PD5*%
%TO.N,unconnected-(U1-PD5-Pad9)*%
X137950000Y-85848500D03*
%TO.P,U1,10,PD6*%
%TO.N,unconnected-(U1-PD6-Pad10)*%
X138450000Y-85848500D03*
%TO.P,U1,11,PD7*%
%TO.N,unconnected-(U1-PD7-Pad11)*%
X138950000Y-85848500D03*
%TO.P,U1,12,PB0*%
%TO.N,unconnected-(U1-PB0-Pad12)*%
X139450000Y-85848500D03*
%TO.P,U1,13,PB1*%
%TO.N,unconnected-(U1-PB1-Pad13)*%
X139950000Y-85848500D03*
%TO.P,U1,14,PB2*%
%TO.N,unconnected-(U1-PB2-Pad14)*%
X140450000Y-85848500D03*
%TO.P,U1,15,PB3*%
%TO.N,unconnected-(U1-PB3-Pad15)*%
X140950000Y-85848500D03*
%TO.P,U1,16,PB4*%
%TO.N,/D12*%
X141450000Y-85848500D03*
D22*
%TO.P,U1,17,PB5*%
%TO.N,/D7*%
X142137500Y-85161000D03*
%TO.P,U1,18,AVCC*%
%TO.N,VCC*%
X142137500Y-84661000D03*
%TO.P,U1,19,ADC6*%
%TO.N,unconnected-(U1-ADC6-Pad19)*%
X142137500Y-84161000D03*
%TO.P,U1,20,AREF*%
%TO.N,Net-(U1-AREF)*%
X142137500Y-83661000D03*
%TO.P,U1,21,GND*%
%TO.N,GNDREF*%
X142137500Y-83161000D03*
%TO.P,U1,22,ADC7*%
%TO.N,unconnected-(U1-ADC7-Pad22)*%
X142137500Y-82661000D03*
%TO.P,U1,23,PC0*%
%TO.N,/D6*%
X142137500Y-82161000D03*
%TO.P,U1,24,PC1*%
%TO.N,/D5*%
X142137500Y-81661000D03*
D23*
%TO.P,U1,25,PC2*%
%TO.N,Net-(U1-PC2)*%
X141450000Y-80973500D03*
%TO.P,U1,26,PC3*%
%TO.N,/A3*%
X140950000Y-80973500D03*
%TO.P,U1,27,PC4*%
%TO.N,unconnected-(U1-PC4-Pad27)*%
X140450000Y-80973500D03*
%TO.P,U1,28,PC5*%
%TO.N,unconnected-(U1-PC5-Pad28)*%
X139950000Y-80973500D03*
%TO.P,U1,29,~{RESET}/PC6*%
%TO.N,Net-(U1-~{RESET}{slash}PC6)*%
X139450000Y-80973500D03*
%TO.P,U1,30,PD0*%
%TO.N,RXI*%
X138950000Y-80973500D03*
%TO.P,U1,31,PD1*%
%TO.N,TXO*%
X138450000Y-80973500D03*
%TO.P,U1,32,PD2*%
%TO.N,unconnected-(U1-PD2-Pad32)*%
X137950000Y-80973500D03*
D24*
%TO.P,U1,33,GND*%
%TO.N,GNDREF*%
X139700000Y-83411000D03*
%TD*%
D25*
%TO.P,C9,1*%
%TO.N,GNDREF*%
X132969000Y-93419000D03*
%TO.P,C9,2*%
%TO.N,Net-(J3-Pin_1)*%
X132969000Y-91694000D03*
%TD*%
D26*
%TO.P,C4,1*%
%TO.N,GNDREF*%
X139544500Y-93472000D03*
%TO.P,C4,2*%
%TO.N,Net-(U1-XTAL1{slash}PB6)*%
X137819500Y-93472000D03*
%TD*%
D19*
%TO.P,R4,1*%
%TO.N,Net-(D1-A)*%
X120650000Y-79652500D03*
%TO.P,R4,2*%
%TO.N,Net-(U2-CE)*%
X120650000Y-77827500D03*
%TD*%
D27*
%TO.P,R8,1*%
%TO.N,/A3*%
X141761000Y-76200000D03*
%TO.P,R8,2*%
%TO.N,GNDREF*%
X145161000Y-76200000D03*
%TD*%
D28*
%TO.P,D2,1,K*%
%TO.N,Net-(D2-K)*%
X118999000Y-83081500D03*
%TO.P,D2,2,A*%
%TO.N,Net-(D2-A)*%
X118999000Y-81331500D03*
%TD*%
D29*
%TO.P,M1,1,+*%
%TO.N,VCC*%
X155575000Y-92837000D03*
D30*
%TO.P,M1,2,-*%
%TO.N,Net-(D4-A)*%
X153035000Y-92837000D03*
%TD*%
D31*
%TO.P,D4,1,K*%
%TO.N,VCC*%
X155829000Y-88138000D03*
%TO.P,D4,2,A*%
%TO.N,Net-(D4-A)*%
X152529000Y-88138000D03*
%TD*%
D10*
%TO.P,C3,1*%
%TO.N,GNDREF*%
X141428500Y-93472000D03*
%TO.P,C3,2*%
%TO.N,Net-(U1-XTAL2{slash}PB7)*%
X143153500Y-93472000D03*
%TD*%
D25*
%TO.P,C7,1*%
%TO.N,GNDREF*%
X110874500Y-88633500D03*
%TO.P,C7,2*%
%TO.N,Net-(U2-CE)*%
X110874500Y-86908500D03*
%TD*%
D19*
%TO.P,R5,1*%
%TO.N,Net-(D2-A)*%
X118999000Y-79652500D03*
%TO.P,R5,2*%
%TO.N,Net-(U2-CE)*%
X118999000Y-77827500D03*
%TD*%
D25*
%TO.P,C6,1*%
%TO.N,GNDREF*%
X119253000Y-88392000D03*
%TO.P,C6,2*%
%TO.N,Net-(J3-Pin_1)*%
X119253000Y-86667000D03*
%TD*%
%TO.P,C1,1*%
%TO.N,VCC*%
X134771500Y-84201000D03*
%TO.P,C1,2*%
%TO.N,GNDREF*%
X134771500Y-82476000D03*
%TD*%
D32*
%TO.P,R1,1*%
%TO.N,VCC*%
X132508000Y-78740000D03*
%TO.P,R1,2*%
%TO.N,Net-(U1-~{RESET}{slash}PC6)*%
X130683000Y-78740000D03*
%TD*%
D25*
%TO.P,C2,1*%
%TO.N,Net-(U1-AREF)*%
X144931500Y-83640000D03*
%TO.P,C2,2*%
%TO.N,GNDREF*%
X144931500Y-81915000D03*
%TD*%
D18*
%TO.P,F3,*%
%TO.N,*%
X111760000Y-114681000D03*
%TD*%
%TO.P,F1,*%
%TO.N,*%
X144018000Y-97790000D03*
%TD*%
D29*
%TO.P,SW1,1,1*%
%TO.N,GNDREF*%
X131445000Y-84201000D03*
D30*
%TO.P,SW1,2,2*%
%TO.N,Net-(U1-~{RESET}{slash}PC6)*%
X131445000Y-81661000D03*
%TD*%
D26*
%TO.P,C10,1*%
%TO.N,VCC*%
X155702000Y-90170000D03*
%TO.P,C10,2*%
%TO.N,Net-(D4-A)*%
X153977000Y-90170000D03*
%TD*%
D33*
%TO.P,R2,1*%
%TO.N,/D12*%
X147954000Y-88265000D03*
%TO.P,R2,2*%
%TO.N,Net-(Q1-B)*%
X149779000Y-88265000D03*
%TD*%
D34*
%TO.P,U2,1,TEMP*%
%TO.N,GNDREF*%
X113284000Y-91991000D03*
%TO.P,U2,2,PROG*%
%TO.N,Net-(U2-PROG)*%
X114554000Y-91991000D03*
%TO.P,U2,3,GND*%
%TO.N,GNDREF*%
X115824000Y-91991000D03*
%TO.P,U2,4,VCC*%
%TO.N,Net-(U2-CE)*%
X117094000Y-91991000D03*
%TO.P,U2,5,BAT*%
%TO.N,Net-(J3-Pin_1)*%
X117094000Y-86741000D03*
%TO.P,U2,6,STDBY*%
%TO.N,Net-(D1-K)*%
X115824000Y-86741000D03*
%TO.P,U2,7,CHRG*%
%TO.N,Net-(D2-K)*%
X114554000Y-86741000D03*
%TO.P,U2,8,CE*%
%TO.N,Net-(U2-CE)*%
X113284000Y-86741000D03*
%TD*%
D29*
%TO.P,JP1,1,A*%
%TO.N,Net-(J3-Pin_1)*%
X127254000Y-87884000D03*
D30*
%TO.P,JP1,2,B*%
%TO.N,VCC*%
X129794000Y-87884000D03*
%TD*%
D29*
%TO.P,J1,1,Pin_1*%
%TO.N,Net-(J1-Pin_1)*%
X123190000Y-75565000D03*
D30*
%TO.P,J1,2,Pin_2*%
%TO.N,TXO*%
X125730000Y-75565000D03*
%TO.P,J1,3,Pin_3*%
%TO.N,RXI*%
X128270000Y-75565000D03*
%TO.P,J1,4,Pin_4*%
%TO.N,VCC*%
X130810000Y-75565000D03*
%TO.P,J1,5,Pin_5*%
%TO.N,GNDREF*%
X133350000Y-75565000D03*
%TO.P,J1,6,Pin_6*%
X135890000Y-75565000D03*
%TD*%
D18*
%TO.P,F4,*%
%TO.N,*%
X143637000Y-114554000D03*
%TD*%
D28*
%TO.P,D1,1,K*%
%TO.N,Net-(D1-K)*%
X120650000Y-83067500D03*
%TO.P,D1,2,A*%
%TO.N,Net-(D1-A)*%
X120650000Y-81317500D03*
%TD*%
D35*
%TO.P,SW3,1*%
%TO.N,Net-(U1-PC2)*%
X148717000Y-76581000D03*
D36*
%TO.P,SW3,2*%
%TO.N,/D5*%
X148717000Y-79121000D03*
%TO.P,SW3,3*%
%TO.N,/D6*%
X148717000Y-81661000D03*
%TO.P,SW3,4*%
%TO.N,/D7*%
X148717000Y-84201000D03*
%TO.P,SW3,5*%
%TO.N,GNDREF*%
X156337000Y-84201000D03*
%TO.P,SW3,6*%
X156337000Y-81661000D03*
%TO.P,SW3,7*%
X156337000Y-79121000D03*
%TO.P,SW3,8*%
X156337000Y-76581000D03*
%TD*%
D21*
%TO.P,R3,1*%
%TO.N,Net-(J2-VBUS)*%
X115189000Y-81280000D03*
%TO.P,R3,2*%
%TO.N,Net-(U2-CE)*%
X115189000Y-83105000D03*
%TD*%
%TO.P,R7,1*%
%TO.N,/A3*%
X139573000Y-76200000D03*
%TO.P,R7,2*%
%TO.N,VCC*%
X139573000Y-78025000D03*
%TD*%
D29*
%TO.P,J3,1,Pin_1*%
%TO.N,Net-(J3-Pin_1)*%
X129794000Y-91694000D03*
D30*
%TO.P,J3,2,Pin_2*%
%TO.N,Net-(J3-Pin_2)*%
X127254000Y-91694000D03*
%TD*%
D37*
%TO.P,U4,1,D12*%
%TO.N,unconnected-(U4-D12-Pad1)*%
X124280000Y-86487000D03*
%TO.P,U4,2,S1*%
%TO.N,GNDREF*%
X123630000Y-86487000D03*
%TO.P,U4,3,S1*%
X122980000Y-86487000D03*
%TO.P,U4,4,G1*%
%TO.N,Net-(U3-OD)*%
X122330000Y-86487000D03*
%TO.P,U4,5,G2*%
%TO.N,Net-(U3-OC)*%
X122330000Y-92212000D03*
%TO.P,U4,6,S2*%
%TO.N,Net-(J3-Pin_2)*%
X122980000Y-92212000D03*
%TO.P,U4,7,S2*%
X123630000Y-92212000D03*
%TO.P,U4,8,D12*%
%TO.N,unconnected-(U4-D12-Pad8)*%
X124280000Y-92212000D03*
%TD*%
D27*
%TO.P,Y1,1,1*%
%TO.N,Net-(U1-XTAL2{slash}PB7)*%
X142899500Y-89789000D03*
%TO.P,Y1,2,2*%
%TO.N,Net-(U1-XTAL1{slash}PB6)*%
X138019500Y-89789000D03*
%TD*%
D38*
%TO.P,Q1,1,B*%
%TO.N,Net-(Q1-B)*%
X149859000Y-90170000D03*
%TO.P,Q1,2,E*%
%TO.N,GNDREF*%
X147959000Y-90170000D03*
%TO.P,Q1,3,C*%
%TO.N,Net-(D4-A)*%
X148909000Y-92045000D03*
%TD*%
D39*
%TO.N,GNDREF*%
X140335000Y-90932000D03*
X151384000Y-88646000D03*
X113284000Y-81534000D03*
X127254000Y-80264000D03*
X117221000Y-83820000D03*
X146558000Y-82169000D03*
X152527000Y-83058000D03*
X118491000Y-90424000D03*
X132969000Y-80899000D03*
X121285000Y-85090000D03*
X136652000Y-77597000D03*
X134366000Y-77597000D03*
X143764000Y-80010000D03*
X120269000Y-93091000D03*
X120269000Y-90678000D03*
X118618000Y-93091000D03*
X152400000Y-74930000D03*
X145669000Y-88900000D03*
X146304000Y-79883000D03*
X145669000Y-93345000D03*
X157353000Y-87376000D03*
X118999000Y-75565000D03*
X120777000Y-75565000D03*
X111125000Y-84455000D03*
X152527000Y-77978000D03*
X138176000Y-74803000D03*
X152527000Y-80518000D03*
X110998000Y-81407000D03*
X114173000Y-84328000D03*
D40*
%TO.N,VCC*%
X132715000Y-87757000D03*
D39*
%TO.N,Net-(U1-~{RESET}{slash}PC6)*%
X139369200Y-80011400D03*
D40*
%TO.N,Net-(J3-Pin_2)*%
X122174000Y-78740000D03*
%TO.N,Net-(J3-Pin_1)*%
X120904000Y-86741000D03*
%TD*%
D41*
%TO.N,Net-(U3-VCC)*%
X125550000Y-79682000D02*
X125550000Y-78740000D01*
X123571000Y-80518000D02*
X123952000Y-80137000D01*
X126365000Y-81915000D02*
X126365000Y-80497000D01*
X125095000Y-80137000D02*
X125550000Y-79682000D01*
X123952000Y-80137000D02*
X125095000Y-80137000D01*
X123571000Y-81539500D02*
X123571000Y-80518000D01*
X126365000Y-80497000D02*
X125550000Y-79682000D01*
D42*
%TO.N,GNDREF*%
X110956000Y-79073000D02*
X111436000Y-79073000D01*
D41*
X119253000Y-88392000D02*
X122428000Y-88392000D01*
X136017000Y-74091000D02*
X133350000Y-74091000D01*
X109778000Y-93649000D02*
X109982000Y-93853000D01*
X137262000Y-83661000D02*
X137262500Y-83661000D01*
X116586000Y-76073000D02*
X115086000Y-76073000D01*
X114816000Y-74099000D02*
X114808000Y-74091000D01*
X110856000Y-77753000D02*
X109807000Y-77753000D01*
X135890000Y-74218000D02*
X136017000Y-74091000D01*
X134956000Y-82661000D02*
X134772000Y-82476000D01*
X109778000Y-77724000D02*
X109778000Y-79121000D01*
X109818000Y-92242500D02*
X109778000Y-92202000D01*
X139950000Y-83161000D02*
X139700000Y-83411000D01*
D42*
X141428000Y-93472000D02*
X141428500Y-93472000D01*
D41*
X143891000Y-82677000D02*
X143891000Y-82169000D01*
X109982000Y-93853000D02*
X110109000Y-93853000D01*
X135890000Y-75565000D02*
X133350000Y-75565000D01*
D42*
X110874000Y-92242500D02*
X110874500Y-92242500D01*
D41*
X112903000Y-74091000D02*
X109932000Y-74091000D01*
X146812000Y-90424000D02*
X147066000Y-90170000D01*
X114816000Y-75803000D02*
X114816000Y-74099000D01*
X112896000Y-75803000D02*
X112896000Y-74098000D01*
D42*
X141428500Y-93472000D02*
X142243600Y-94287100D01*
D41*
X147066000Y-90170000D02*
X147959000Y-90170000D01*
X137262500Y-83661000D02*
X139450000Y-83661000D01*
X109778000Y-79121000D02*
X109778000Y-88646000D01*
X144145000Y-81915000D02*
X144931500Y-81915000D01*
X156337000Y-76581000D02*
X156337000Y-74472000D01*
X122428000Y-88392000D02*
X122980000Y-87840000D01*
X115824000Y-93980000D02*
X119126000Y-93980000D01*
X157557000Y-84201000D02*
X157811000Y-84455000D01*
D42*
X116806000Y-77223000D02*
X116806000Y-77753000D01*
D41*
X134771500Y-82476000D02*
X134186000Y-82476000D01*
X134772000Y-82476000D02*
X134771500Y-82476000D01*
X130429000Y-93980000D02*
X130990000Y-93419000D01*
X135890000Y-75565000D02*
X135890000Y-74218000D01*
X111556000Y-78953000D02*
X111436000Y-79073000D01*
X157811000Y-84455000D02*
X157811000Y-94030000D01*
X119253000Y-93853000D02*
X119126000Y-93980000D01*
X129921000Y-84201000D02*
X131445000Y-84201000D01*
X142137500Y-83161000D02*
X139950000Y-83161000D01*
X112626000Y-76073000D02*
X112896000Y-75803000D01*
X155956000Y-74091000D02*
X145161000Y-74091000D01*
X109932000Y-74091000D02*
X109778000Y-74245000D01*
X157811000Y-94030000D02*
X157784000Y-94057000D01*
X156337000Y-84201000D02*
X156337000Y-81661000D01*
X113284000Y-93980000D02*
X115824000Y-93980000D01*
X122980000Y-87840000D02*
X122980000Y-86487000D01*
X110956000Y-79073000D02*
X109826000Y-79073000D01*
X114816000Y-75803000D02*
X112896000Y-75803000D01*
X109807000Y-77753000D02*
X109778000Y-77724000D01*
X156337000Y-84201000D02*
X157557000Y-84201000D01*
X145161000Y-76200000D02*
X145161000Y-74091000D01*
X115086000Y-76073000D02*
X114816000Y-75803000D01*
X112556000Y-78953000D02*
X111556000Y-78953000D01*
X122980000Y-86487000D02*
X123630000Y-86487000D01*
X109826000Y-79073000D02*
X109778000Y-79121000D01*
X116706000Y-79053000D02*
X116706000Y-77853000D01*
X129135500Y-81868000D02*
X129540000Y-82272500D01*
X110236000Y-93980000D02*
X113284000Y-93980000D01*
X130990000Y-93419000D02*
X132969000Y-93419000D01*
X141428000Y-93472000D02*
X139544500Y-93472000D01*
X116586000Y-74091000D02*
X114808000Y-74091000D01*
X115824000Y-91991000D02*
X115824000Y-93980000D01*
X146812000Y-93853000D02*
X146812000Y-90424000D01*
D42*
X116586000Y-76073000D02*
X116586000Y-77003000D01*
D41*
X134186000Y-82476000D02*
X132461000Y-84201000D01*
X143407000Y-83161000D02*
X143891000Y-82677000D01*
X114808000Y-74091000D02*
X112903000Y-74091000D01*
D42*
X111106000Y-77003000D02*
X110856000Y-77253000D01*
D41*
X139450000Y-83661000D02*
X139700000Y-83411000D01*
X119126000Y-93980000D02*
X128524000Y-93980000D01*
X128524000Y-93980000D02*
X130429000Y-93980000D01*
X129540000Y-82272500D02*
X129540000Y-83820000D01*
X145161000Y-74091000D02*
X136017000Y-74091000D01*
X110109000Y-93853000D02*
X110236000Y-93980000D01*
X156337000Y-79121000D02*
X156337000Y-76581000D01*
X156337000Y-74472000D02*
X155956000Y-74091000D01*
X132461000Y-84201000D02*
X131445000Y-84201000D01*
X113284000Y-91991000D02*
X113284000Y-93980000D01*
D42*
X146377900Y-94287100D02*
X146812000Y-93853000D01*
X110874000Y-88633500D02*
X110874500Y-88633500D01*
D41*
X109778000Y-92202000D02*
X109778000Y-93649000D01*
D42*
X116686000Y-79073000D02*
X116706000Y-79053000D01*
D41*
X133350000Y-75565000D02*
X133350000Y-74091000D01*
D42*
X116276000Y-79073000D02*
X116686000Y-79073000D01*
D41*
X137262500Y-82661000D02*
X138950000Y-82661000D01*
X137262500Y-82661000D02*
X134956000Y-82661000D01*
X109778000Y-74245000D02*
X109778000Y-77724000D01*
D42*
X142243600Y-94287100D02*
X146377900Y-94287100D01*
D41*
X112896000Y-74098000D02*
X112903000Y-74091000D01*
X144931500Y-81915000D02*
X144932000Y-81915000D01*
X110874000Y-88633500D02*
X109790000Y-88633500D01*
X138950000Y-82661000D02*
X139700000Y-83411000D01*
X133350000Y-74091000D02*
X116586000Y-74091000D01*
X116706000Y-77853000D02*
X116806000Y-77753000D01*
X111126000Y-76073000D02*
X112626000Y-76073000D01*
X142137500Y-83161000D02*
X143407000Y-83161000D01*
X110874000Y-92242500D02*
X109818000Y-92242500D01*
X109778000Y-88646000D02*
X109778000Y-92202000D01*
X139544500Y-93472000D02*
X139544000Y-93472000D01*
X143891000Y-82169000D02*
X144145000Y-81915000D01*
X116586000Y-76073000D02*
X116586000Y-74091000D01*
D42*
X110856000Y-77253000D02*
X110856000Y-77753000D01*
D41*
X129540000Y-83820000D02*
X129921000Y-84201000D01*
X119253000Y-88392000D02*
X119253000Y-93853000D01*
X109790000Y-88633500D02*
X109778000Y-88646000D01*
X156337000Y-81661000D02*
X156337000Y-79121000D01*
D42*
X116586000Y-77003000D02*
X116806000Y-77223000D01*
D41*
X128524000Y-81868000D02*
X129135500Y-81868000D01*
D42*
%TO.N,VCC*%
X137262000Y-83161000D02*
X137262500Y-83161000D01*
D41*
X134772000Y-85700000D02*
X132715000Y-87757000D01*
X134792000Y-84181000D02*
X134772000Y-84201000D01*
D42*
X150749000Y-86360000D02*
X155321000Y-86360000D01*
X132508000Y-78740000D02*
X137795000Y-78740000D01*
X155829000Y-86868000D02*
X155829000Y-88138000D01*
D41*
X134772000Y-84201000D02*
X134772000Y-85700000D01*
X137262000Y-83161000D02*
X136422000Y-83161000D01*
D42*
X145850300Y-84661000D02*
X142137500Y-84661000D01*
X155321000Y-86360000D02*
X155829000Y-86868000D01*
X150241000Y-85852000D02*
X150749000Y-86360000D01*
X155702000Y-92710000D02*
X155575000Y-92837000D01*
X130810000Y-75565000D02*
X130810000Y-76708000D01*
D43*
X155702000Y-88392000D02*
X155702000Y-90170000D01*
D42*
X150241000Y-83693000D02*
X150241000Y-85852000D01*
X138510000Y-78025000D02*
X139573000Y-78025000D01*
D41*
X136422000Y-83161000D02*
X135890000Y-83693000D01*
D42*
X132207000Y-77089000D02*
X132508000Y-77390000D01*
D41*
X134812000Y-84161000D02*
X134792000Y-84181000D01*
D42*
X137262000Y-84161000D02*
X137262500Y-84161000D01*
D41*
X135890000Y-84161000D02*
X134812000Y-84161000D01*
X135890000Y-83693000D02*
X135890000Y-84161000D01*
D42*
X155829000Y-88265000D02*
X155702000Y-88392000D01*
D43*
X129921000Y-87757000D02*
X129794000Y-87884000D01*
D42*
X132508000Y-77390000D02*
X132508000Y-78740000D01*
X155829000Y-88138000D02*
X155829000Y-88265000D01*
X130810000Y-76708000D02*
X131191000Y-77089000D01*
X150241000Y-83693000D02*
X149636400Y-83088400D01*
X149636400Y-83088400D02*
X147422900Y-83088400D01*
X134791500Y-84181000D02*
X134771500Y-84201000D01*
D41*
X137262000Y-84161000D02*
X135890000Y-84161000D01*
D42*
X134792000Y-84181000D02*
X134791500Y-84181000D01*
X131191000Y-77089000D02*
X132207000Y-77089000D01*
D43*
X132715000Y-87757000D02*
X129921000Y-87757000D01*
D42*
X147422900Y-83088400D02*
X145850300Y-84661000D01*
D43*
X155702000Y-90170000D02*
X155702000Y-92710000D01*
D42*
X137795000Y-78740000D02*
X138510000Y-78025000D01*
D41*
%TO.N,Net-(U1-AREF)*%
X144931700Y-83640200D02*
X144932000Y-83640000D01*
X144910000Y-83661000D02*
X144931700Y-83640200D01*
D42*
X144931500Y-83640000D02*
X144931700Y-83640200D01*
X142138000Y-83661000D02*
X142137500Y-83661000D01*
D41*
X142138000Y-83661000D02*
X144910000Y-83661000D01*
%TO.N,Net-(U1-XTAL2{slash}PB7)*%
X140614000Y-87503000D02*
X142900000Y-89789000D01*
D42*
X143153500Y-90042500D02*
X142900000Y-89789000D01*
D41*
X137262000Y-87097500D02*
X137668000Y-87503000D01*
D42*
X137262500Y-86128700D02*
X137262500Y-85161000D01*
X137262000Y-86129200D02*
X137262500Y-86128700D01*
X143153500Y-93472000D02*
X143153500Y-90042500D01*
X142900000Y-89789000D02*
X142899500Y-89789000D01*
D41*
X137668000Y-87503000D02*
X140614000Y-87503000D01*
X137262000Y-86129200D02*
X137262000Y-87097500D01*
X137262000Y-85161000D02*
X137262000Y-86129200D01*
%TO.N,Net-(U1-XTAL1{slash}PB6)*%
X137218800Y-88988000D02*
X138020000Y-89789000D01*
X136017000Y-84963000D02*
X136017000Y-87786500D01*
D42*
X137819500Y-93472000D02*
X137819500Y-89989000D01*
X137218800Y-88988000D02*
X138019500Y-89788700D01*
X138019500Y-89788700D02*
X138019500Y-89789000D01*
D41*
X136319000Y-84661000D02*
X136017000Y-84963000D01*
D42*
X137262000Y-84661000D02*
X137262500Y-84661000D01*
X137819500Y-89989000D02*
X138019500Y-89789000D01*
D41*
X137262000Y-84661000D02*
X136319000Y-84661000D01*
X136017000Y-87786500D02*
X137218800Y-88988000D01*
D42*
%TO.N,Net-(J1-Pin_1)*%
X123190000Y-76835000D02*
X123190000Y-75565000D01*
X123825000Y-77470000D02*
X123190000Y-76835000D01*
X126387500Y-78740000D02*
X126387500Y-78273278D01*
X125584222Y-77470000D02*
X123825000Y-77470000D01*
X127254000Y-78740000D02*
X126387500Y-78740000D01*
X126387500Y-78273278D02*
X125584222Y-77470000D01*
%TO.N,Net-(U1-~{RESET}{slash}PC6)*%
X139369200Y-80011400D02*
X139450000Y-80092200D01*
X139450000Y-80092200D02*
X139450000Y-80973500D01*
X131445000Y-81661000D02*
X131445000Y-80510900D01*
X130683000Y-78740000D02*
X130683000Y-79748900D01*
X128979000Y-78740000D02*
X130683000Y-78740000D01*
X130683000Y-79748900D02*
X131445000Y-80510900D01*
D41*
%TO.N,Net-(U2-CE)*%
X113872000Y-83105000D02*
X114759600Y-83105000D01*
X110874000Y-86908500D02*
X110874500Y-86908500D01*
X114759600Y-83105000D02*
X115189000Y-83105000D01*
X113116000Y-86908500D02*
X113284000Y-86741000D01*
D42*
X118110000Y-82042000D02*
X118110000Y-78716500D01*
D41*
X113284000Y-83693000D02*
X113872000Y-83105000D01*
D42*
X114759600Y-83105000D02*
X117047000Y-83105000D01*
D41*
X114046000Y-89789000D02*
X113284000Y-89027000D01*
X117094000Y-91991000D02*
X117094000Y-90424000D01*
X110874500Y-86908500D02*
X113116000Y-86908500D01*
X116459000Y-89789000D02*
X114046000Y-89789000D01*
X117094000Y-90424000D02*
X116459000Y-89789000D01*
D42*
X118110000Y-78716500D02*
X118999000Y-77827500D01*
D41*
X113284000Y-89027000D02*
X113284000Y-86741000D01*
X113284000Y-86741000D02*
X113284000Y-83693000D01*
D42*
X120650000Y-77827500D02*
X118999000Y-77827500D01*
X117047000Y-83105000D02*
X118110000Y-82042000D01*
D41*
%TO.N,Net-(J3-Pin_2)*%
X122174000Y-78740000D02*
X123825000Y-78740000D01*
X122621000Y-79949000D02*
X122174000Y-79502000D01*
X123825000Y-78740000D02*
X124079000Y-78994000D01*
D43*
X125984000Y-90424000D02*
X123698000Y-90424000D01*
D41*
X122621000Y-81539500D02*
X122621000Y-79949000D01*
D43*
X123317000Y-92212000D02*
X123317000Y-90805000D01*
X127254000Y-91694000D02*
X125984000Y-90424000D01*
X123317000Y-90805000D02*
X123698000Y-90424000D01*
D41*
X122980000Y-92212000D02*
X123317000Y-92212000D01*
X122174000Y-79502000D02*
X122174000Y-78740000D01*
X123317000Y-92212000D02*
X123630000Y-92212000D01*
%TO.N,Net-(D1-K)*%
X120015000Y-85217000D02*
X120650000Y-84582000D01*
X116078000Y-85217000D02*
X120015000Y-85217000D01*
X115824000Y-85471000D02*
X116078000Y-85217000D01*
X120650000Y-84582000D02*
X120650000Y-83067500D01*
X115824000Y-86741000D02*
X115824000Y-85471000D01*
D42*
%TO.N,Net-(D1-A)*%
X120650000Y-81317500D02*
X120650000Y-79652500D01*
D41*
%TO.N,Net-(D2-K)*%
X114554000Y-85471000D02*
X115443000Y-84582000D01*
X115443000Y-84582000D02*
X118618000Y-84582000D01*
X118618000Y-84582000D02*
X118999000Y-84201000D01*
X118999000Y-84201000D02*
X118999000Y-83081500D01*
X114554000Y-86741000D02*
X114554000Y-85471000D01*
D42*
%TO.N,Net-(D2-A)*%
X118999000Y-81331500D02*
X118999000Y-79652500D01*
D41*
%TO.N,/D12*%
X147955000Y-86487000D02*
X147955000Y-87249000D01*
X141450000Y-85848500D02*
X147316500Y-85848500D01*
X147955000Y-87249000D02*
X147954000Y-87250000D01*
X147954000Y-87250000D02*
X147954000Y-88265000D01*
X147316500Y-85848500D02*
X147955000Y-86487000D01*
D42*
%TO.N,/A3*%
X140589000Y-76327000D02*
X140589000Y-80160614D01*
X140949100Y-76200000D02*
X140462000Y-76200000D01*
X140589000Y-80160614D02*
X140950000Y-80521614D01*
X140462000Y-76200000D02*
X140589000Y-76327000D01*
D41*
X141761000Y-76200000D02*
X140949100Y-76200000D01*
X140949100Y-76200000D02*
X139573000Y-76200000D01*
D42*
X140950000Y-80521614D02*
X140950000Y-80973500D01*
%TO.N,TXO*%
X131995900Y-82826100D02*
X134610600Y-80211400D01*
X138154800Y-80211400D02*
X138450000Y-80506600D01*
X128116400Y-77951400D02*
X128116400Y-79967400D01*
X134610600Y-80211400D02*
X138154800Y-80211400D01*
X128116400Y-79967400D02*
X130975100Y-82826100D01*
X130975100Y-82826100D02*
X131995900Y-82826100D01*
X125730000Y-75565000D02*
X128116400Y-77951400D01*
X138450000Y-80506600D02*
X138450000Y-80973500D01*
%TO.N,RXI*%
X130667222Y-77470000D02*
X131470500Y-78273278D01*
X131470500Y-78273278D02*
X131470500Y-78959400D01*
X128270000Y-75758900D02*
X129981100Y-77470000D01*
X128270000Y-75565000D02*
X128270000Y-75758900D01*
X138950000Y-80440800D02*
X138950000Y-80973500D01*
X132260000Y-79748900D02*
X138258100Y-79748900D01*
X138258100Y-79748900D02*
X138950000Y-80440800D01*
X131470500Y-78959400D02*
X132260000Y-79748900D01*
X129981100Y-77470000D02*
X130667222Y-77470000D01*
D41*
%TO.N,Net-(J2-VBUS)*%
X115189000Y-81280000D02*
X115189000Y-78986000D01*
X115189000Y-78986000D02*
X115156000Y-78953000D01*
%TO.N,Net-(Q1-B)*%
X149859000Y-90170000D02*
X149859000Y-88345000D01*
X149859000Y-88345000D02*
X149779000Y-88265000D01*
%TO.N,Net-(U3-CS)*%
X123772000Y-82729500D02*
X128322000Y-82729500D01*
X123571000Y-82931000D02*
X123772000Y-82729500D01*
X128524000Y-82931000D02*
X128524000Y-83693000D01*
X123571000Y-83814500D02*
X123571000Y-82931000D01*
X128322000Y-82729500D02*
X128524000Y-82931000D01*
D42*
%TO.N,/D5*%
X142137500Y-81134200D02*
X142137500Y-81661000D01*
D41*
X142138000Y-79858500D02*
X142875000Y-79121000D01*
X142138000Y-81661000D02*
X142138000Y-81133700D01*
D42*
X142138000Y-81133700D02*
X142137500Y-81134200D01*
D41*
X142138000Y-81133700D02*
X142138000Y-79858500D01*
X142875000Y-79121000D02*
X148717000Y-79121000D01*
%TO.N,/D7*%
X146939000Y-84201000D02*
X148717000Y-84201000D01*
X145979000Y-85161000D02*
X146939000Y-84201000D01*
D42*
X142138000Y-85161000D02*
X142137500Y-85161000D01*
D41*
X142138000Y-85161000D02*
X145979000Y-85161000D01*
%TO.N,Net-(U2-PROG)*%
X110874000Y-90417500D02*
X110874500Y-90417500D01*
X114294000Y-90417500D02*
X114554000Y-90678000D01*
X110874500Y-90417500D02*
X114294000Y-90417500D01*
X114554000Y-90678000D02*
X114554000Y-91991000D01*
%TO.N,/D6*%
X147701000Y-80645000D02*
X148717000Y-81661000D01*
X143383000Y-81915000D02*
X143383000Y-81153000D01*
X143383000Y-81153000D02*
X143891000Y-80645000D01*
D42*
X142138000Y-82161000D02*
X142137500Y-82161000D01*
D41*
X142138000Y-82161000D02*
X143137000Y-82161000D01*
X143891000Y-80645000D02*
X147701000Y-80645000D01*
X143137000Y-82161000D02*
X143383000Y-81915000D01*
%TO.N,Net-(D4-A)*%
X153977000Y-90170000D02*
X153162000Y-90170000D01*
D43*
X150973000Y-92045000D02*
X151765000Y-92837000D01*
X153035000Y-92837000D02*
X153035000Y-90297000D01*
X152529000Y-89406000D02*
X152529000Y-88138000D01*
X152527000Y-89789000D02*
X152527000Y-89408000D01*
X153035000Y-90297000D02*
X152527000Y-89789000D01*
X151765000Y-92837000D02*
X153035000Y-92837000D01*
X148909000Y-92045000D02*
X150973000Y-92045000D01*
X152527000Y-89408000D02*
X152529000Y-89406000D01*
D41*
X153162000Y-90170000D02*
X153035000Y-90297000D01*
%TO.N,Net-(U3-OD)*%
X122621000Y-85024000D02*
X122330000Y-85315000D01*
X122621000Y-83814500D02*
X122621000Y-85024000D01*
X122330000Y-85315000D02*
X122330000Y-86487000D01*
%TO.N,Net-(U3-OC)*%
X124968000Y-89154000D02*
X124968000Y-85090000D01*
X124968000Y-85090000D02*
X124521000Y-84643000D01*
X123063000Y-89662000D02*
X124460000Y-89662000D01*
X122330000Y-92212000D02*
X122330000Y-90395000D01*
X124460000Y-89662000D02*
X124968000Y-89154000D01*
X124521000Y-84643000D02*
X124521000Y-83814500D01*
X122330000Y-90395000D02*
X123063000Y-89662000D01*
%TO.N,Net-(U1-PC2)*%
X141450000Y-80973500D02*
X141450000Y-79657000D01*
X147066000Y-77851000D02*
X147066000Y-76835000D01*
X146431000Y-78486000D02*
X147066000Y-77851000D01*
X142621000Y-78486000D02*
X146431000Y-78486000D01*
X147320000Y-76581000D02*
X148717000Y-76581000D01*
X147066000Y-76835000D02*
X147320000Y-76581000D01*
X141450000Y-79657000D02*
X142621000Y-78486000D01*
D43*
%TO.N,Net-(J3-Pin_1)*%
X127254000Y-89281000D02*
X127889000Y-89916000D01*
D41*
X129794000Y-91694000D02*
X132969000Y-91694000D01*
D43*
X127254000Y-87884000D02*
X127254000Y-89281000D01*
D41*
X127254000Y-85979000D02*
X127254000Y-87884000D01*
D43*
X129286000Y-89916000D02*
X129794000Y-90424000D01*
D41*
X117094000Y-86741000D02*
X119179000Y-86741000D01*
D43*
X129794000Y-90424000D02*
X129794000Y-91694000D01*
X127889000Y-89916000D02*
X129286000Y-89916000D01*
D41*
X126365000Y-83740000D02*
X126365000Y-85090000D01*
D43*
X120904000Y-86741000D02*
X120830000Y-86667000D01*
X120830000Y-86667000D02*
X119253000Y-86667000D01*
D41*
X119179000Y-86741000D02*
X119253000Y-86667000D01*
X126365000Y-85090000D02*
X127254000Y-85979000D01*
%TD*%
%TA.AperFunction,Conductor*%
%TO.N,GNDREF*%
G36*
X135308834Y-86153099D02*
G01*
X135364767Y-86194971D01*
X135389184Y-86260435D01*
X135389500Y-86269281D01*
X135389500Y-87718715D01*
X135389491Y-87718903D01*
X135389500Y-87784481D01*
X135389500Y-87848343D01*
X135401975Y-87911018D01*
X135401976Y-87911034D01*
X135401978Y-87911034D01*
X135413621Y-87969569D01*
X135413625Y-87969581D01*
X135413636Y-87969609D01*
X135413637Y-87969610D01*
X135435878Y-88023284D01*
X135453779Y-88066500D01*
X135460918Y-88083735D01*
X135460920Y-88083738D01*
X135460954Y-88083802D01*
X135495040Y-88134802D01*
X135495048Y-88134814D01*
X135529589Y-88186508D01*
X135529641Y-88186572D01*
X135573679Y-88230598D01*
X135573692Y-88230611D01*
X135621406Y-88278326D01*
X135621540Y-88278447D01*
X136577257Y-89233925D01*
X136731438Y-89388068D01*
X136731439Y-89388069D01*
X136760367Y-89416990D01*
X136793858Y-89478307D01*
X136792470Y-89536772D01*
X136783295Y-89571015D01*
X136783292Y-89571029D01*
X136764814Y-89782247D01*
X136764223Y-89789000D01*
X136782244Y-89994992D01*
X136783293Y-90006975D01*
X136783293Y-90006979D01*
X136839922Y-90218322D01*
X136839924Y-90218326D01*
X136839925Y-90218330D01*
X136886161Y-90317484D01*
X136932397Y-90416638D01*
X136932398Y-90416639D01*
X137057902Y-90595877D01*
X137057906Y-90595881D01*
X137182681Y-90720656D01*
X137216166Y-90781979D01*
X137219000Y-90808337D01*
X137219000Y-92483548D01*
X137199315Y-92550587D01*
X137160097Y-92589086D01*
X137058653Y-92651657D01*
X137058649Y-92651660D01*
X136936661Y-92773648D01*
X136846093Y-92920481D01*
X136846091Y-92920486D01*
X136818719Y-93003088D01*
X136791826Y-93084247D01*
X136791826Y-93084248D01*
X136791825Y-93084248D01*
X136781500Y-93185315D01*
X136781500Y-93758669D01*
X136781501Y-93758687D01*
X136791825Y-93859752D01*
X136797042Y-93875495D01*
X136845092Y-94020498D01*
X136847494Y-94090324D01*
X136811763Y-94150366D01*
X136749242Y-94181559D01*
X136727386Y-94183500D01*
X134001237Y-94183500D01*
X133934198Y-94163815D01*
X133888443Y-94111011D01*
X133878499Y-94041853D01*
X133883531Y-94020496D01*
X133933680Y-93869152D01*
X133943999Y-93768154D01*
X133944000Y-93768137D01*
X133944000Y-93669000D01*
X131994001Y-93669000D01*
X131994001Y-93768154D01*
X132004319Y-93869152D01*
X132054469Y-94020496D01*
X132056871Y-94090325D01*
X132021139Y-94150367D01*
X131958618Y-94181559D01*
X131936763Y-94183500D01*
X128089528Y-94183500D01*
X127942472Y-94183500D01*
X127812070Y-94218441D01*
X127800423Y-94221562D01*
X127673076Y-94295086D01*
X127673070Y-94295091D01*
X127569091Y-94399070D01*
X127569086Y-94399076D01*
X127495562Y-94526423D01*
X127495561Y-94526427D01*
X127462423Y-94650095D01*
X127426060Y-94709754D01*
X127363213Y-94740283D01*
X127342650Y-94742000D01*
X125843586Y-94742000D01*
X125776547Y-94722315D01*
X125730792Y-94669511D01*
X125723813Y-94650099D01*
X125695847Y-94545726D01*
X125628901Y-94429774D01*
X125534226Y-94335099D01*
X125418274Y-94268153D01*
X125288945Y-94233500D01*
X122240945Y-94233500D01*
X122107055Y-94233500D01*
X121977725Y-94268153D01*
X121861774Y-94335099D01*
X121861771Y-94335101D01*
X121767101Y-94429771D01*
X121767099Y-94429774D01*
X121700153Y-94545724D01*
X121686581Y-94596377D01*
X121672187Y-94650094D01*
X121635824Y-94709753D01*
X121572978Y-94740283D01*
X121552414Y-94742000D01*
X119799350Y-94742000D01*
X119732311Y-94722315D01*
X119686556Y-94669511D01*
X119679577Y-94650100D01*
X119646439Y-94526427D01*
X119634846Y-94506348D01*
X119572913Y-94399076D01*
X119572908Y-94399070D01*
X119468929Y-94295091D01*
X119468923Y-94295086D01*
X119341576Y-94221562D01*
X119341577Y-94221562D01*
X119329929Y-94218441D01*
X119199528Y-94183500D01*
X119199525Y-94183500D01*
X109775500Y-94183500D01*
X109708461Y-94163815D01*
X109662706Y-94111011D01*
X109651500Y-94059500D01*
X109651500Y-92492500D01*
X109899501Y-92492500D01*
X109899501Y-92541654D01*
X109909819Y-92642652D01*
X109964046Y-92806300D01*
X109964051Y-92806311D01*
X110054552Y-92953034D01*
X110054555Y-92953038D01*
X110176461Y-93074944D01*
X110176465Y-93074947D01*
X110323188Y-93165448D01*
X110323199Y-93165453D01*
X110486847Y-93219680D01*
X110587852Y-93229999D01*
X110624500Y-93229999D01*
X110624500Y-92492500D01*
X111124500Y-92492500D01*
X111124500Y-93229999D01*
X111161140Y-93229999D01*
X111161154Y-93229998D01*
X111262152Y-93219680D01*
X111425800Y-93165453D01*
X111425811Y-93165448D01*
X111572534Y-93074947D01*
X111572538Y-93074944D01*
X111694444Y-92953038D01*
X111694447Y-92953034D01*
X111784948Y-92806311D01*
X111784953Y-92806300D01*
X111839180Y-92642652D01*
X111849499Y-92541654D01*
X111849500Y-92541641D01*
X111849500Y-92492500D01*
X111124500Y-92492500D01*
X110624500Y-92492500D01*
X109899501Y-92492500D01*
X109651500Y-92492500D01*
X109651500Y-92241000D01*
X112484000Y-92241000D01*
X112484000Y-92731649D01*
X112486899Y-92768489D01*
X112486900Y-92768495D01*
X112532716Y-92926193D01*
X112532717Y-92926196D01*
X112616314Y-93067552D01*
X112616321Y-93067561D01*
X112732438Y-93183678D01*
X112732447Y-93183685D01*
X112873801Y-93267281D01*
X113031514Y-93313100D01*
X113031511Y-93313100D01*
X113033998Y-93313295D01*
X113034000Y-93313295D01*
X113034000Y-92241000D01*
X112484000Y-92241000D01*
X109651500Y-92241000D01*
X109651500Y-92043862D01*
X109667179Y-91990465D01*
X109654900Y-91969036D01*
X109651500Y-91940196D01*
X109651500Y-90727879D01*
X109671185Y-90660840D01*
X109723989Y-90615085D01*
X109793147Y-90605141D01*
X109856703Y-90634166D01*
X109894477Y-90692944D01*
X109898858Y-90715278D01*
X109909325Y-90817752D01*
X109928661Y-90876102D01*
X109963425Y-90981013D01*
X109963592Y-90981515D01*
X109963593Y-90981518D01*
X109986031Y-91017896D01*
X110027759Y-91085548D01*
X110054161Y-91128351D01*
X110168482Y-91242672D01*
X110201967Y-91303995D01*
X110196983Y-91373687D01*
X110168483Y-91418034D01*
X110054552Y-91531965D01*
X109964051Y-91678688D01*
X109964046Y-91678699D01*
X109909819Y-91842347D01*
X109899500Y-91943345D01*
X109899340Y-91946501D01*
X109887461Y-91980461D01*
X109899500Y-91992500D01*
X111849499Y-91992500D01*
X111849499Y-91943360D01*
X111849498Y-91943345D01*
X111839180Y-91842347D01*
X111784953Y-91678699D01*
X111784948Y-91678688D01*
X111694447Y-91531965D01*
X111694444Y-91531961D01*
X111580517Y-91418034D01*
X111547032Y-91356711D01*
X111552016Y-91287019D01*
X111580513Y-91242676D01*
X111694840Y-91128350D01*
X111709918Y-91103905D01*
X111761865Y-91057179D01*
X111815457Y-91045000D01*
X112370704Y-91045000D01*
X112437743Y-91064685D01*
X112483498Y-91117489D01*
X112493442Y-91186647D01*
X112489780Y-91203596D01*
X112486900Y-91213507D01*
X112486899Y-91213510D01*
X112484000Y-91250350D01*
X112484000Y-91741000D01*
X113410000Y-91741000D01*
X113477039Y-91760685D01*
X113522794Y-91813489D01*
X113534000Y-91865000D01*
X113534000Y-93313295D01*
X113534001Y-93313295D01*
X113536486Y-93313100D01*
X113694198Y-93267281D01*
X113835550Y-93183686D01*
X113841717Y-93178903D01*
X113843630Y-93181369D01*
X113892222Y-93154802D01*
X113961917Y-93159749D01*
X113994762Y-93180853D01*
X113995969Y-93179298D01*
X114002132Y-93184078D01*
X114002135Y-93184081D01*
X114143602Y-93267744D01*
X114178149Y-93277781D01*
X114301426Y-93313597D01*
X114301429Y-93313597D01*
X114301431Y-93313598D01*
X114338306Y-93316500D01*
X114338314Y-93316500D01*
X114769686Y-93316500D01*
X114769694Y-93316500D01*
X114806569Y-93313598D01*
X114806571Y-93313597D01*
X114806573Y-93313597D01*
X114848191Y-93301505D01*
X114964398Y-93267744D01*
X115103778Y-93185315D01*
X115105860Y-93184084D01*
X115105863Y-93184082D01*
X115105865Y-93184081D01*
X115105870Y-93184076D01*
X115112026Y-93179301D01*
X115113839Y-93181638D01*
X115162949Y-93154798D01*
X115232643Y-93159756D01*
X115264996Y-93180551D01*
X115266278Y-93178900D01*
X115272447Y-93183685D01*
X115413801Y-93267281D01*
X115571514Y-93313100D01*
X115571511Y-93313100D01*
X115573998Y-93313295D01*
X115574000Y-93313295D01*
X115574000Y-90668703D01*
X115571503Y-90668900D01*
X115413806Y-90714716D01*
X115413805Y-90714716D01*
X115368661Y-90741414D01*
X115300936Y-90758595D01*
X115234674Y-90736435D01*
X115190912Y-90681969D01*
X115181541Y-90634560D01*
X115181559Y-90616799D01*
X115181557Y-90616792D01*
X115181538Y-90616585D01*
X115181523Y-90616430D01*
X115181500Y-90616196D01*
X115171255Y-90564692D01*
X115177482Y-90495101D01*
X115220344Y-90439923D01*
X115286234Y-90416678D01*
X115292872Y-90416500D01*
X116147719Y-90416500D01*
X116214758Y-90436185D01*
X116235400Y-90452819D01*
X116263542Y-90480961D01*
X116297027Y-90542284D01*
X116292043Y-90611976D01*
X116250171Y-90667909D01*
X116184707Y-90692326D01*
X116141266Y-90687719D01*
X116076491Y-90668900D01*
X116074000Y-90668703D01*
X116074000Y-93313295D01*
X116074001Y-93313295D01*
X116076486Y-93313100D01*
X116234198Y-93267281D01*
X116375550Y-93183686D01*
X116381717Y-93178903D01*
X116383630Y-93181369D01*
X116432222Y-93154802D01*
X116501917Y-93159749D01*
X116534762Y-93180853D01*
X116535969Y-93179298D01*
X116542132Y-93184078D01*
X116542135Y-93184081D01*
X116683602Y-93267744D01*
X116718149Y-93277781D01*
X116841426Y-93313597D01*
X116841429Y-93313597D01*
X116841431Y-93313598D01*
X116878306Y-93316500D01*
X116878314Y-93316500D01*
X117309686Y-93316500D01*
X117309694Y-93316500D01*
X117346569Y-93313598D01*
X117346571Y-93313597D01*
X117346573Y-93313597D01*
X117388191Y-93301505D01*
X117504398Y-93267744D01*
X117645865Y-93184081D01*
X117762081Y-93067865D01*
X117845744Y-92926398D01*
X117882612Y-92799500D01*
X117891597Y-92768573D01*
X117891598Y-92768567D01*
X117894234Y-92735069D01*
X117894500Y-92731694D01*
X117894500Y-91250306D01*
X117891598Y-91213431D01*
X117883816Y-91186647D01*
X117853096Y-91080907D01*
X117845744Y-91055602D01*
X117762081Y-90914135D01*
X117762079Y-90914133D01*
X117762076Y-90914129D01*
X117757819Y-90909872D01*
X117724334Y-90848549D01*
X117721500Y-90822191D01*
X117721500Y-90362195D01*
X117716755Y-90338338D01*
X117716755Y-90338337D01*
X117697387Y-90240971D01*
X117697386Y-90240970D01*
X117697386Y-90240966D01*
X117664884Y-90162501D01*
X117650083Y-90126767D01*
X117645368Y-90119711D01*
X117581414Y-90023996D01*
X117581411Y-90023992D01*
X117552411Y-89994992D01*
X117494008Y-89936589D01*
X117195246Y-89637827D01*
X116859011Y-89301591D01*
X116859010Y-89301590D01*
X116834634Y-89285303D01*
X116834633Y-89285302D01*
X116788057Y-89254181D01*
X116756233Y-89232917D01*
X116756232Y-89232916D01*
X116756230Y-89232915D01*
X116700992Y-89210035D01*
X116642035Y-89185614D01*
X116642027Y-89185612D01*
X116520807Y-89161500D01*
X116520803Y-89161500D01*
X114357281Y-89161500D01*
X114290242Y-89141815D01*
X114269600Y-89125181D01*
X113947819Y-88803400D01*
X113914334Y-88742077D01*
X113911500Y-88715719D01*
X113911500Y-88642000D01*
X118278001Y-88642000D01*
X118278001Y-88741154D01*
X118288319Y-88842152D01*
X118342546Y-89005800D01*
X118342551Y-89005811D01*
X118433052Y-89152534D01*
X118433055Y-89152538D01*
X118554961Y-89274444D01*
X118554965Y-89274447D01*
X118701688Y-89364948D01*
X118701699Y-89364953D01*
X118865347Y-89419180D01*
X118966352Y-89429499D01*
X119003000Y-89429499D01*
X119003000Y-88642000D01*
X119503000Y-88642000D01*
X119503000Y-89429499D01*
X119539640Y-89429499D01*
X119539654Y-89429498D01*
X119640652Y-89419180D01*
X119804300Y-89364953D01*
X119804311Y-89364948D01*
X119951034Y-89274447D01*
X119951038Y-89274444D01*
X120072944Y-89152538D01*
X120072947Y-89152534D01*
X120163448Y-89005811D01*
X120163453Y-89005800D01*
X120217680Y-88842152D01*
X120227999Y-88741154D01*
X120228000Y-88741141D01*
X120228000Y-88642000D01*
X119503000Y-88642000D01*
X119003000Y-88642000D01*
X118278001Y-88642000D01*
X113911500Y-88642000D01*
X113911500Y-88097874D01*
X113931185Y-88030835D01*
X113983989Y-87985080D01*
X114053147Y-87975136D01*
X114098619Y-87991141D01*
X114143602Y-88017744D01*
X114162667Y-88023283D01*
X114301426Y-88063597D01*
X114301429Y-88063597D01*
X114301431Y-88063598D01*
X114338306Y-88066500D01*
X114338314Y-88066500D01*
X114769686Y-88066500D01*
X114769694Y-88066500D01*
X114806569Y-88063598D01*
X114806571Y-88063597D01*
X114806573Y-88063597D01*
X114877949Y-88042860D01*
X114964398Y-88017744D01*
X115105865Y-87934081D01*
X115105870Y-87934075D01*
X115112031Y-87929298D01*
X115113933Y-87931750D01*
X115162579Y-87905155D01*
X115232274Y-87910104D01*
X115264695Y-87930940D01*
X115265969Y-87929298D01*
X115272132Y-87934078D01*
X115272135Y-87934081D01*
X115413602Y-88017744D01*
X115432667Y-88023283D01*
X115571426Y-88063597D01*
X115571429Y-88063597D01*
X115571431Y-88063598D01*
X115608306Y-88066500D01*
X115608314Y-88066500D01*
X116039686Y-88066500D01*
X116039694Y-88066500D01*
X116076569Y-88063598D01*
X116076571Y-88063597D01*
X116076573Y-88063597D01*
X116147949Y-88042860D01*
X116234398Y-88017744D01*
X116375865Y-87934081D01*
X116375870Y-87934075D01*
X116382031Y-87929298D01*
X116383933Y-87931750D01*
X116432579Y-87905155D01*
X116502274Y-87910104D01*
X116534695Y-87930940D01*
X116535969Y-87929298D01*
X116542132Y-87934078D01*
X116542135Y-87934081D01*
X116683602Y-88017744D01*
X116702667Y-88023283D01*
X116841426Y-88063597D01*
X116841429Y-88063597D01*
X116841431Y-88063598D01*
X116878306Y-88066500D01*
X116878314Y-88066500D01*
X117309686Y-88066500D01*
X117309694Y-88066500D01*
X117346569Y-88063598D01*
X117346571Y-88063597D01*
X117346573Y-88063597D01*
X117417949Y-88042860D01*
X117504398Y-88017744D01*
X117645865Y-87934081D01*
X117762081Y-87817865D01*
X117845744Y-87676398D01*
X117891598Y-87518569D01*
X117894415Y-87482771D01*
X117919298Y-87417484D01*
X117975529Y-87376012D01*
X118018033Y-87368500D01*
X118326846Y-87368500D01*
X118393885Y-87388185D01*
X118427665Y-87422594D01*
X118428182Y-87422186D01*
X118431979Y-87426989D01*
X118432382Y-87427399D01*
X118432659Y-87427849D01*
X118446982Y-87442172D01*
X118480467Y-87503495D01*
X118475483Y-87573187D01*
X118446985Y-87617532D01*
X118433052Y-87631465D01*
X118342551Y-87778188D01*
X118342546Y-87778199D01*
X118288319Y-87941847D01*
X118278000Y-88042845D01*
X118278000Y-88142000D01*
X120227999Y-88142000D01*
X120227999Y-88042860D01*
X120227998Y-88042845D01*
X120217680Y-87941847D01*
X120163453Y-87778199D01*
X120163448Y-87778188D01*
X120115317Y-87700156D01*
X120096876Y-87632764D01*
X120117798Y-87566100D01*
X120171440Y-87521331D01*
X120240771Y-87512669D01*
X120299518Y-87539204D01*
X120345462Y-87576910D01*
X120345466Y-87576912D01*
X120345467Y-87576913D01*
X120519266Y-87669811D01*
X120519269Y-87669811D01*
X120519273Y-87669814D01*
X120707868Y-87727024D01*
X120904000Y-87746341D01*
X121100132Y-87727024D01*
X121288727Y-87669814D01*
X121289594Y-87669351D01*
X121434093Y-87592114D01*
X121462538Y-87576910D01*
X121523920Y-87526535D01*
X121582976Y-87478069D01*
X121647286Y-87450756D01*
X121716153Y-87462547D01*
X121760014Y-87498433D01*
X121801718Y-87552782D01*
X121927159Y-87649036D01*
X122073238Y-87709544D01*
X122190639Y-87725000D01*
X122469360Y-87724999D01*
X122469361Y-87724999D01*
X122483018Y-87723201D01*
X122586762Y-87709544D01*
X122608200Y-87700663D01*
X122677668Y-87693194D01*
X122703106Y-87700663D01*
X122723365Y-87709054D01*
X122723377Y-87709058D01*
X122779998Y-87716511D01*
X122780000Y-87716510D01*
X122780000Y-87673999D01*
X122799685Y-87606960D01*
X122828512Y-87575625D01*
X122858282Y-87552782D01*
X122954536Y-87427341D01*
X122954536Y-87427339D01*
X122957624Y-87423316D01*
X123014052Y-87382113D01*
X123083798Y-87377958D01*
X123144718Y-87412170D01*
X123177471Y-87473887D01*
X123180000Y-87498802D01*
X123180000Y-87716510D01*
X123180001Y-87716511D01*
X123236622Y-87709058D01*
X123236631Y-87709055D01*
X123257547Y-87700392D01*
X123327017Y-87692923D01*
X123352453Y-87700392D01*
X123373368Y-87709055D01*
X123373377Y-87709058D01*
X123429998Y-87716511D01*
X123430000Y-87716510D01*
X123430000Y-87498802D01*
X123449685Y-87431763D01*
X123502489Y-87386008D01*
X123571647Y-87376064D01*
X123635203Y-87405089D01*
X123652376Y-87423316D01*
X123655463Y-87427339D01*
X123655464Y-87427341D01*
X123751718Y-87552782D01*
X123781485Y-87575623D01*
X123822688Y-87632048D01*
X123830000Y-87673999D01*
X123830000Y-87716510D01*
X123886631Y-87709055D01*
X123906887Y-87700665D01*
X123976356Y-87693193D01*
X124001797Y-87700663D01*
X124001802Y-87700665D01*
X124023238Y-87709544D01*
X124140639Y-87725000D01*
X124216500Y-87724999D01*
X124283538Y-87744683D01*
X124329294Y-87797486D01*
X124340500Y-87848999D01*
X124340500Y-88842719D01*
X124320815Y-88909758D01*
X124304181Y-88930400D01*
X124236400Y-88998181D01*
X124175077Y-89031666D01*
X124148719Y-89034500D01*
X123001192Y-89034500D01*
X122879973Y-89058611D01*
X122879973Y-89058612D01*
X122879970Y-89058613D01*
X122879966Y-89058614D01*
X122813070Y-89086323D01*
X122813068Y-89086323D01*
X122765769Y-89105915D01*
X122765763Y-89105918D01*
X122682789Y-89161359D01*
X122682790Y-89161360D01*
X122662992Y-89174588D01*
X122662986Y-89174593D01*
X122106486Y-89731095D01*
X121929992Y-89907589D01*
X121842589Y-89994992D01*
X121794736Y-90066610D01*
X121773916Y-90097769D01*
X121760061Y-90131214D01*
X121760062Y-90131215D01*
X121726615Y-90211962D01*
X121726612Y-90211972D01*
X121713480Y-90277993D01*
X121702500Y-90333192D01*
X121702500Y-91254148D01*
X121693061Y-91301600D01*
X121644957Y-91417734D01*
X121644955Y-91417739D01*
X121629918Y-91531961D01*
X121629501Y-91535136D01*
X121629500Y-91535145D01*
X121629500Y-92888863D01*
X121644953Y-93006253D01*
X121644956Y-93006262D01*
X121705464Y-93152341D01*
X121801718Y-93277782D01*
X121927159Y-93374036D01*
X122073238Y-93434544D01*
X122190639Y-93450000D01*
X122469360Y-93449999D01*
X122469361Y-93449999D01*
X122481594Y-93448388D01*
X122586762Y-93434544D01*
X122607545Y-93425934D01*
X122677014Y-93418465D01*
X122702453Y-93425934D01*
X122723238Y-93434544D01*
X122840639Y-93450000D01*
X123119360Y-93449999D01*
X123119361Y-93449999D01*
X123131594Y-93448388D01*
X123236762Y-93434544D01*
X123257545Y-93425934D01*
X123327014Y-93418465D01*
X123352453Y-93425934D01*
X123373238Y-93434544D01*
X123490639Y-93450000D01*
X123769360Y-93449999D01*
X123769361Y-93449999D01*
X123781594Y-93448388D01*
X123886762Y-93434544D01*
X123907545Y-93425934D01*
X123977014Y-93418465D01*
X124002453Y-93425934D01*
X124023238Y-93434544D01*
X124140639Y-93450000D01*
X124419360Y-93449999D01*
X124419363Y-93449999D01*
X124536753Y-93434546D01*
X124536757Y-93434544D01*
X124536762Y-93434544D01*
X124682841Y-93374036D01*
X124808282Y-93277782D01*
X124904536Y-93152341D01*
X124965044Y-93006262D01*
X124980500Y-92888861D01*
X124980499Y-91535140D01*
X124980499Y-91535139D01*
X124980499Y-91535136D01*
X124965046Y-91417746D01*
X124965044Y-91417742D01*
X124965044Y-91417738D01*
X124936965Y-91349951D01*
X124929497Y-91280484D01*
X124960772Y-91218004D01*
X125020861Y-91182352D01*
X125051527Y-91178500D01*
X125620113Y-91178500D01*
X125687152Y-91198185D01*
X125707794Y-91214819D01*
X125880675Y-91387700D01*
X125914160Y-91449023D01*
X125916522Y-91486188D01*
X125898341Y-91693998D01*
X125898341Y-91694000D01*
X125918936Y-91929403D01*
X125918938Y-91929413D01*
X125980094Y-92157655D01*
X125980096Y-92157659D01*
X125980097Y-92157663D01*
X125996265Y-92192335D01*
X126079965Y-92371830D01*
X126079967Y-92371834D01*
X126179177Y-92513519D01*
X126215505Y-92565401D01*
X126382599Y-92732495D01*
X126478292Y-92799500D01*
X126576165Y-92868032D01*
X126576167Y-92868033D01*
X126576170Y-92868035D01*
X126790337Y-92967903D01*
X127018592Y-93029063D01*
X127195034Y-93044500D01*
X127253999Y-93049659D01*
X127254000Y-93049659D01*
X127254001Y-93049659D01*
X127312966Y-93044500D01*
X127489408Y-93029063D01*
X127717663Y-92967903D01*
X127931830Y-92868035D01*
X128125401Y-92732495D01*
X128247329Y-92610566D01*
X128308648Y-92577084D01*
X128378340Y-92582068D01*
X128434274Y-92623939D01*
X128451189Y-92654917D01*
X128500202Y-92786328D01*
X128500206Y-92786335D01*
X128586452Y-92901544D01*
X128586455Y-92901547D01*
X128701664Y-92987793D01*
X128701671Y-92987797D01*
X128836517Y-93038091D01*
X128836516Y-93038091D01*
X128843444Y-93038835D01*
X128896127Y-93044500D01*
X130691872Y-93044499D01*
X130751483Y-93038091D01*
X130886331Y-92987796D01*
X131001546Y-92901546D01*
X131087796Y-92786331D01*
X131138091Y-92651483D01*
X131144500Y-92591873D01*
X131144500Y-92445500D01*
X131164185Y-92378461D01*
X131216989Y-92332706D01*
X131268500Y-92321500D01*
X131997202Y-92321500D01*
X132064241Y-92341185D01*
X132102740Y-92380402D01*
X132148659Y-92454849D01*
X132148661Y-92454851D01*
X132162982Y-92469172D01*
X132196467Y-92530495D01*
X132191483Y-92600187D01*
X132162985Y-92644532D01*
X132149052Y-92658465D01*
X132058551Y-92805188D01*
X132058546Y-92805199D01*
X132004319Y-92968847D01*
X131994000Y-93069845D01*
X131994000Y-93169000D01*
X133943999Y-93169000D01*
X133943999Y-93069860D01*
X133943998Y-93069845D01*
X133933680Y-92968847D01*
X133879453Y-92805199D01*
X133879448Y-92805188D01*
X133788947Y-92658465D01*
X133788944Y-92658461D01*
X133775017Y-92644534D01*
X133741532Y-92583211D01*
X133746516Y-92513519D01*
X133775017Y-92469172D01*
X133789340Y-92454850D01*
X133879908Y-92308016D01*
X133934174Y-92144253D01*
X133944500Y-92043177D01*
X133944499Y-91344824D01*
X133934848Y-91250350D01*
X133934174Y-91243747D01*
X133925646Y-91218011D01*
X133879908Y-91079984D01*
X133789340Y-90933150D01*
X133667350Y-90811160D01*
X133546202Y-90736435D01*
X133520518Y-90720593D01*
X133520513Y-90720591D01*
X133508698Y-90716676D01*
X133356753Y-90666326D01*
X133356751Y-90666325D01*
X133255678Y-90656000D01*
X132682330Y-90656000D01*
X132682312Y-90656001D01*
X132581247Y-90666325D01*
X132417484Y-90720592D01*
X132417481Y-90720593D01*
X132270648Y-90811161D01*
X132148661Y-90933148D01*
X132148660Y-90933150D01*
X132110970Y-90994256D01*
X132102741Y-91007597D01*
X132050793Y-91054322D01*
X131997202Y-91066500D01*
X131268499Y-91066500D01*
X131201460Y-91046815D01*
X131155705Y-90994011D01*
X131144499Y-90942500D01*
X131144499Y-90796129D01*
X131144498Y-90796123D01*
X131143551Y-90787315D01*
X131138091Y-90736517D01*
X131138060Y-90736435D01*
X131087797Y-90601671D01*
X131087793Y-90601664D01*
X131001547Y-90486455D01*
X131001544Y-90486452D01*
X130886335Y-90400206D01*
X130886328Y-90400202D01*
X130751482Y-90349908D01*
X130751483Y-90349908D01*
X130691883Y-90343501D01*
X130691881Y-90343500D01*
X130691873Y-90343500D01*
X130691865Y-90343500D01*
X130649033Y-90343500D01*
X130581994Y-90323815D01*
X130536239Y-90271011D01*
X130527416Y-90243695D01*
X130519505Y-90203920D01*
X130462629Y-90066610D01*
X130424186Y-90009076D01*
X130380060Y-89943035D01*
X130380054Y-89943028D01*
X130270646Y-89833620D01*
X130270625Y-89833600D01*
X129874155Y-89437129D01*
X129840670Y-89375806D01*
X129845654Y-89306114D01*
X129887526Y-89250181D01*
X129951027Y-89225920D01*
X130029408Y-89219063D01*
X130257663Y-89157903D01*
X130471830Y-89058035D01*
X130665401Y-88922495D01*
X130832495Y-88755401D01*
X130966252Y-88564375D01*
X131020829Y-88520752D01*
X131067827Y-88511500D01*
X132012896Y-88511500D01*
X132079935Y-88531185D01*
X132091561Y-88539647D01*
X132156460Y-88592909D01*
X132156467Y-88592913D01*
X132330266Y-88685811D01*
X132330269Y-88685811D01*
X132330273Y-88685814D01*
X132518868Y-88743024D01*
X132715000Y-88762341D01*
X132911132Y-88743024D01*
X133099727Y-88685814D01*
X133161584Y-88652751D01*
X133242639Y-88609426D01*
X133273538Y-88592910D01*
X133425883Y-88467883D01*
X133550910Y-88315538D01*
X133619844Y-88186572D01*
X133643811Y-88141733D01*
X133643811Y-88141732D01*
X133643814Y-88141727D01*
X133701024Y-87953132D01*
X133720341Y-87757000D01*
X133715516Y-87708013D01*
X133728535Y-87639369D01*
X133751235Y-87608182D01*
X135177819Y-86181600D01*
X135239142Y-86148115D01*
X135308834Y-86153099D01*
G37*
%TD.AperFunction*%
%TA.AperFunction,Conductor*%
G36*
X137560804Y-88121470D02*
G01*
X137606197Y-88130500D01*
X137606205Y-88130500D01*
X137606424Y-88130522D01*
X137606537Y-88130533D01*
X137606576Y-88130536D01*
X137606583Y-88130538D01*
X137606589Y-88130537D01*
X137606590Y-88130538D01*
X137660661Y-88130504D01*
X137668387Y-88130500D01*
X140302719Y-88130500D01*
X140369758Y-88150185D01*
X140390400Y-88166819D01*
X141640419Y-89416838D01*
X141673904Y-89478161D01*
X141672513Y-89536611D01*
X141663294Y-89571017D01*
X141663294Y-89571020D01*
X141663293Y-89571023D01*
X141662655Y-89578319D01*
X141645797Y-89771014D01*
X141644223Y-89789000D01*
X141662244Y-89994992D01*
X141663293Y-90006975D01*
X141663293Y-90006979D01*
X141719922Y-90218322D01*
X141719924Y-90218326D01*
X141719925Y-90218330D01*
X141766161Y-90317484D01*
X141812397Y-90416638D01*
X141812398Y-90416639D01*
X141937902Y-90595877D01*
X142092623Y-90750598D01*
X142271861Y-90876102D01*
X142470170Y-90968575D01*
X142470176Y-90968576D01*
X142471407Y-90969025D01*
X142471876Y-90969370D01*
X142475077Y-90970863D01*
X142474777Y-90971506D01*
X142527672Y-91010450D01*
X142552610Y-91075717D01*
X142553000Y-91085548D01*
X142553000Y-92483548D01*
X142533315Y-92550587D01*
X142494097Y-92589086D01*
X142392653Y-92651657D01*
X142392648Y-92651661D01*
X142378325Y-92665984D01*
X142317001Y-92699468D01*
X142247309Y-92694482D01*
X142202965Y-92665982D01*
X142189038Y-92652055D01*
X142189034Y-92652052D01*
X142042311Y-92561551D01*
X142042300Y-92561546D01*
X141878652Y-92507319D01*
X141777654Y-92497000D01*
X141678500Y-92497000D01*
X141678500Y-94444349D01*
X141661887Y-94506348D01*
X141639155Y-94545719D01*
X141639153Y-94545725D01*
X141639153Y-94545726D01*
X141611187Y-94650094D01*
X141574824Y-94709753D01*
X141511978Y-94740283D01*
X141491414Y-94742000D01*
X138849350Y-94742000D01*
X138782311Y-94722315D01*
X138736556Y-94669511D01*
X138729577Y-94650100D01*
X138696439Y-94526427D01*
X138683403Y-94503849D01*
X138666930Y-94435950D01*
X138689781Y-94369923D01*
X138744702Y-94326731D01*
X138814255Y-94320088D01*
X138855887Y-94336310D01*
X138930688Y-94382448D01*
X138930699Y-94382453D01*
X139094347Y-94436680D01*
X139195351Y-94446999D01*
X139294500Y-94446998D01*
X139294500Y-93722000D01*
X139794500Y-93722000D01*
X139794500Y-94446999D01*
X139893640Y-94446999D01*
X139893654Y-94446998D01*
X139994652Y-94436680D01*
X140158300Y-94382453D01*
X140158311Y-94382448D01*
X140305034Y-94291947D01*
X140305038Y-94291944D01*
X140398819Y-94198164D01*
X140460142Y-94164679D01*
X140529834Y-94169663D01*
X140574181Y-94198164D01*
X140667961Y-94291944D01*
X140667965Y-94291947D01*
X140814688Y-94382448D01*
X140814699Y-94382453D01*
X140978347Y-94436680D01*
X141079351Y-94446999D01*
X141178500Y-94446998D01*
X141178500Y-93722000D01*
X139794500Y-93722000D01*
X139294500Y-93722000D01*
X139294500Y-93222000D01*
X139794500Y-93222000D01*
X141178500Y-93222000D01*
X141178500Y-92496999D01*
X141079360Y-92497000D01*
X141079344Y-92497001D01*
X140978347Y-92507319D01*
X140814699Y-92561546D01*
X140814688Y-92561551D01*
X140667965Y-92652052D01*
X140574181Y-92745836D01*
X140512857Y-92779320D01*
X140443166Y-92774336D01*
X140398819Y-92745836D01*
X140305034Y-92652052D01*
X140158311Y-92561551D01*
X140158300Y-92561546D01*
X139994652Y-92507319D01*
X139893654Y-92497000D01*
X139794500Y-92497000D01*
X139794500Y-93222000D01*
X139294500Y-93222000D01*
X139294500Y-92496999D01*
X139195360Y-92497000D01*
X139195344Y-92497001D01*
X139094347Y-92507319D01*
X138930699Y-92561546D01*
X138930688Y-92561551D01*
X138783965Y-92652052D01*
X138770032Y-92665985D01*
X138708708Y-92699468D01*
X138639016Y-92694482D01*
X138594672Y-92665982D01*
X138580350Y-92651660D01*
X138580346Y-92651657D01*
X138478903Y-92589086D01*
X138432178Y-92537138D01*
X138420000Y-92483548D01*
X138420000Y-91061015D01*
X138439685Y-90993976D01*
X138491594Y-90948633D01*
X138647139Y-90876102D01*
X138826377Y-90750598D01*
X138981098Y-90595877D01*
X139106602Y-90416639D01*
X139199075Y-90218330D01*
X139255707Y-90006977D01*
X139274777Y-89789000D01*
X139273203Y-89771014D01*
X139267948Y-89710941D01*
X139255707Y-89571023D01*
X139199821Y-89362453D01*
X139199077Y-89359677D01*
X139199076Y-89359676D01*
X139199075Y-89359670D01*
X139106602Y-89161362D01*
X139106600Y-89161359D01*
X139106599Y-89161357D01*
X138981099Y-88982124D01*
X138908733Y-88909758D01*
X138826377Y-88827402D01*
X138688478Y-88730844D01*
X138647138Y-88701897D01*
X138518687Y-88642000D01*
X138448830Y-88609425D01*
X138448826Y-88609424D01*
X138448822Y-88609422D01*
X138237477Y-88552793D01*
X138019502Y-88533723D01*
X138019498Y-88533723D01*
X137874182Y-88546436D01*
X137801523Y-88552793D01*
X137801521Y-88552793D01*
X137767737Y-88561845D01*
X137697887Y-88560180D01*
X137647977Y-88529761D01*
X137448946Y-88330780D01*
X137415453Y-88269461D01*
X137420429Y-88199769D01*
X137462293Y-88143830D01*
X137527754Y-88119405D01*
X137560804Y-88121470D01*
G37*
%TD.AperFunction*%
%TA.AperFunction,Conductor*%
G36*
X147072258Y-86495685D02*
G01*
X147092900Y-86512319D01*
X147291181Y-86710600D01*
X147324666Y-86771923D01*
X147327500Y-86798281D01*
X147327500Y-87171952D01*
X147326903Y-87184109D01*
X147326500Y-87188199D01*
X147326500Y-87324042D01*
X147306815Y-87391081D01*
X147267598Y-87429580D01*
X147243150Y-87444659D01*
X147121161Y-87566648D01*
X147030593Y-87713481D01*
X147030591Y-87713486D01*
X147019704Y-87746341D01*
X146976326Y-87877247D01*
X146976326Y-87877248D01*
X146976325Y-87877248D01*
X146966000Y-87978315D01*
X146966000Y-88551669D01*
X146966001Y-88551687D01*
X146976325Y-88652752D01*
X146992611Y-88701898D01*
X147019111Y-88781870D01*
X147030592Y-88816515D01*
X147030593Y-88816518D01*
X147045992Y-88841483D01*
X147100836Y-88930400D01*
X147121161Y-88963351D01*
X147240933Y-89083123D01*
X147274418Y-89144446D01*
X147269434Y-89214138D01*
X147259984Y-89233925D01*
X147207717Y-89322303D01*
X147207716Y-89322306D01*
X147161900Y-89480004D01*
X147161899Y-89480010D01*
X147159000Y-89516850D01*
X147159000Y-89920000D01*
X148759000Y-89920000D01*
X148759000Y-89516865D01*
X148758999Y-89516850D01*
X148756100Y-89480010D01*
X148756099Y-89480004D01*
X148710283Y-89322306D01*
X148710282Y-89322303D01*
X148654299Y-89227641D01*
X148637116Y-89159918D01*
X148659276Y-89093655D01*
X148673339Y-89076850D01*
X148778821Y-88971368D01*
X148840142Y-88937886D01*
X148909834Y-88942870D01*
X148954181Y-88971371D01*
X149068150Y-89085340D01*
X149073764Y-89088803D01*
X149095806Y-89102398D01*
X149142531Y-89154345D01*
X149153754Y-89223308D01*
X149137443Y-89271056D01*
X149107256Y-89322101D01*
X149107254Y-89322106D01*
X149061402Y-89479926D01*
X149061401Y-89479932D01*
X149058500Y-89516798D01*
X149058500Y-90683000D01*
X149038815Y-90750039D01*
X148986011Y-90795794D01*
X148934500Y-90807000D01*
X148883000Y-90807000D01*
X148815961Y-90787315D01*
X148770206Y-90734511D01*
X148759000Y-90683000D01*
X148759000Y-90420000D01*
X148209000Y-90420000D01*
X148209000Y-91075684D01*
X148191733Y-91138804D01*
X148157254Y-91197105D01*
X148157254Y-91197106D01*
X148111402Y-91354926D01*
X148111401Y-91354932D01*
X148108500Y-91391798D01*
X148108500Y-92698201D01*
X148111401Y-92735067D01*
X148111402Y-92735073D01*
X148157254Y-92892893D01*
X148157255Y-92892896D01*
X148157256Y-92892898D01*
X148176947Y-92926193D01*
X148240917Y-93034362D01*
X148240923Y-93034370D01*
X148357129Y-93150576D01*
X148357133Y-93150579D01*
X148357135Y-93150581D01*
X148498602Y-93234244D01*
X148540224Y-93246336D01*
X148656426Y-93280097D01*
X148656429Y-93280097D01*
X148656431Y-93280098D01*
X148693306Y-93283000D01*
X148693314Y-93283000D01*
X149124686Y-93283000D01*
X149124694Y-93283000D01*
X149161569Y-93280098D01*
X149161571Y-93280097D01*
X149161573Y-93280097D01*
X149205685Y-93267281D01*
X149319398Y-93234244D01*
X149460865Y-93150581D01*
X149577081Y-93034365D01*
X149660744Y-92892898D01*
X149661905Y-92888902D01*
X149663668Y-92886141D01*
X149663844Y-92885735D01*
X149663909Y-92885763D01*
X149699513Y-92830017D01*
X149762986Y-92800813D01*
X149780981Y-92799500D01*
X150609113Y-92799500D01*
X150676152Y-92819185D01*
X150696794Y-92835819D01*
X151174600Y-93313624D01*
X151174621Y-93313647D01*
X151284028Y-93423054D01*
X151284035Y-93423060D01*
X151407608Y-93505628D01*
X151407609Y-93505628D01*
X151407610Y-93505629D01*
X151544920Y-93562505D01*
X151544922Y-93562505D01*
X151544924Y-93562506D01*
X151569104Y-93567315D01*
X151569110Y-93567316D01*
X151690686Y-93591501D01*
X151690688Y-93591501D01*
X151845426Y-93591501D01*
X151845446Y-93591500D01*
X151850099Y-93591500D01*
X151917138Y-93611185D01*
X151951674Y-93644376D01*
X151996505Y-93708401D01*
X151996506Y-93708402D01*
X152163597Y-93875493D01*
X152163603Y-93875498D01*
X152281321Y-93957925D01*
X152324946Y-94012502D01*
X152332140Y-94082000D01*
X152300617Y-94144355D01*
X152240387Y-94179769D01*
X152210198Y-94183500D01*
X148536528Y-94183500D01*
X148389472Y-94183500D01*
X148259070Y-94218441D01*
X148247423Y-94221562D01*
X148120076Y-94295086D01*
X148120070Y-94295091D01*
X148016091Y-94399070D01*
X148016086Y-94399076D01*
X147942562Y-94526423D01*
X147942561Y-94526427D01*
X147909423Y-94650095D01*
X147873060Y-94709754D01*
X147810213Y-94740283D01*
X147789650Y-94742000D01*
X145528586Y-94742000D01*
X145461547Y-94722315D01*
X145415792Y-94669511D01*
X145408813Y-94650099D01*
X145380847Y-94545726D01*
X145313901Y-94429774D01*
X145219226Y-94335099D01*
X145103274Y-94268153D01*
X144973945Y-94233500D01*
X144973944Y-94233500D01*
X144219563Y-94233500D01*
X144152524Y-94213815D01*
X144106769Y-94161011D01*
X144096825Y-94091853D01*
X144114025Y-94044402D01*
X144126908Y-94023516D01*
X144181174Y-93859753D01*
X144191500Y-93758677D01*
X144191499Y-93185324D01*
X144191372Y-93184084D01*
X144181174Y-93084247D01*
X144175747Y-93067870D01*
X144126908Y-92920484D01*
X144036340Y-92773650D01*
X143914350Y-92651660D01*
X143914346Y-92651657D01*
X143812903Y-92589086D01*
X143766178Y-92537138D01*
X143754000Y-92483548D01*
X143754000Y-90754337D01*
X143773685Y-90687298D01*
X143790319Y-90666656D01*
X143822809Y-90634166D01*
X143861098Y-90595877D01*
X143984249Y-90420000D01*
X147159000Y-90420000D01*
X147159000Y-90823149D01*
X147161899Y-90859989D01*
X147161900Y-90859995D01*
X147207716Y-91017693D01*
X147207717Y-91017696D01*
X147291314Y-91159052D01*
X147291321Y-91159061D01*
X147407438Y-91275178D01*
X147407447Y-91275185D01*
X147548801Y-91358781D01*
X147706514Y-91404600D01*
X147706511Y-91404600D01*
X147708998Y-91404795D01*
X147709000Y-91404795D01*
X147709000Y-90420000D01*
X147159000Y-90420000D01*
X143984249Y-90420000D01*
X143986602Y-90416639D01*
X144079075Y-90218330D01*
X144135707Y-90006977D01*
X144154777Y-89789000D01*
X144153203Y-89771014D01*
X144147948Y-89710941D01*
X144135707Y-89571023D01*
X144079821Y-89362453D01*
X144079077Y-89359677D01*
X144079076Y-89359676D01*
X144079075Y-89359670D01*
X143986602Y-89161362D01*
X143986600Y-89161359D01*
X143986599Y-89161357D01*
X143861099Y-88982124D01*
X143788733Y-88909758D01*
X143706377Y-88827402D01*
X143568478Y-88730844D01*
X143527138Y-88701897D01*
X143398687Y-88642000D01*
X143328830Y-88609425D01*
X143328826Y-88609424D01*
X143328822Y-88609422D01*
X143117477Y-88552793D01*
X142899502Y-88533723D01*
X142899498Y-88533723D01*
X142754182Y-88546436D01*
X142681523Y-88552793D01*
X142681521Y-88552793D01*
X142647898Y-88561802D01*
X142578049Y-88560137D01*
X142528127Y-88529707D01*
X141014011Y-87015591D01*
X141014005Y-87015586D01*
X141007345Y-87011136D01*
X140962540Y-86957523D01*
X140953834Y-86888198D01*
X140983990Y-86825171D01*
X141043433Y-86788453D01*
X141060046Y-86785097D01*
X141159472Y-86772009D01*
X141159475Y-86772007D01*
X141167326Y-86769905D01*
X141168210Y-86773207D01*
X141221925Y-86767392D01*
X141232514Y-86770501D01*
X141232674Y-86769905D01*
X141240524Y-86772008D01*
X141240526Y-86772008D01*
X141240528Y-86772009D01*
X141350599Y-86786500D01*
X141549400Y-86786499D01*
X141549403Y-86786499D01*
X141659463Y-86772011D01*
X141659467Y-86772009D01*
X141659472Y-86772009D01*
X141796429Y-86715279D01*
X141914036Y-86625036D01*
X141991169Y-86524513D01*
X142047597Y-86483311D01*
X142089545Y-86476000D01*
X147005219Y-86476000D01*
X147072258Y-86495685D01*
G37*
%TD.AperFunction*%
%TA.AperFunction,Conductor*%
G36*
X156587000Y-83885314D02*
G01*
X156582606Y-83880920D01*
X156491394Y-83828259D01*
X156389661Y-83801000D01*
X156284339Y-83801000D01*
X156182606Y-83828259D01*
X156091394Y-83880920D01*
X156087000Y-83885314D01*
X156087000Y-81976686D01*
X156091394Y-81981080D01*
X156182606Y-82033741D01*
X156284339Y-82061000D01*
X156389661Y-82061000D01*
X156491394Y-82033741D01*
X156582606Y-81981080D01*
X156587000Y-81976686D01*
X156587000Y-83885314D01*
G37*
%TD.AperFunction*%
%TA.AperFunction,Conductor*%
G36*
X156587000Y-81345314D02*
G01*
X156582606Y-81340920D01*
X156491394Y-81288259D01*
X156389661Y-81261000D01*
X156284339Y-81261000D01*
X156182606Y-81288259D01*
X156091394Y-81340920D01*
X156087000Y-81345314D01*
X156087000Y-79436686D01*
X156091394Y-79441080D01*
X156182606Y-79493741D01*
X156284339Y-79521000D01*
X156389661Y-79521000D01*
X156491394Y-79493741D01*
X156582606Y-79441080D01*
X156587000Y-79436686D01*
X156587000Y-81345314D01*
G37*
%TD.AperFunction*%
%TA.AperFunction,Conductor*%
G36*
X156587000Y-78805314D02*
G01*
X156582606Y-78800920D01*
X156491394Y-78748259D01*
X156389661Y-78721000D01*
X156284339Y-78721000D01*
X156182606Y-78748259D01*
X156091394Y-78800920D01*
X156087000Y-78805314D01*
X156087000Y-76896686D01*
X156091394Y-76901080D01*
X156182606Y-76953741D01*
X156284339Y-76981000D01*
X156389661Y-76981000D01*
X156491394Y-76953741D01*
X156582606Y-76901080D01*
X156587000Y-76896686D01*
X156587000Y-78805314D01*
G37*
%TD.AperFunction*%
%TA.AperFunction,Conductor*%
G36*
X125729048Y-73976412D02*
G01*
X125747088Y-73966931D01*
X125771520Y-73964500D01*
X128228480Y-73964500D01*
X128269048Y-73976412D01*
X128287088Y-73966931D01*
X128311520Y-73964500D01*
X130768480Y-73964500D01*
X130809048Y-73976412D01*
X130827088Y-73966931D01*
X130851520Y-73964500D01*
X157813500Y-73964500D01*
X157880539Y-73984185D01*
X157926294Y-74036989D01*
X157937500Y-74088500D01*
X157937500Y-94059500D01*
X157917815Y-94126539D01*
X157865011Y-94172294D01*
X157813500Y-94183500D01*
X156926247Y-94183500D01*
X156859208Y-94163815D01*
X156813453Y-94111011D01*
X156803509Y-94041853D01*
X156826981Y-93985188D01*
X156832140Y-93978297D01*
X156868796Y-93929331D01*
X156919091Y-93794483D01*
X156925500Y-93734873D01*
X156925499Y-91939128D01*
X156919091Y-91879517D01*
X156917810Y-91876083D01*
X156868797Y-91744671D01*
X156868793Y-91744664D01*
X156782547Y-91629455D01*
X156782544Y-91629452D01*
X156667335Y-91543206D01*
X156667328Y-91543202D01*
X156537167Y-91494655D01*
X156481233Y-91452784D01*
X156456816Y-91387319D01*
X156456500Y-91378473D01*
X156456500Y-91048052D01*
X156476185Y-90981013D01*
X156492819Y-90960371D01*
X156520042Y-90933148D01*
X156584840Y-90868350D01*
X156675408Y-90721516D01*
X156729674Y-90557753D01*
X156740000Y-90456677D01*
X156739999Y-89883324D01*
X156729674Y-89782247D01*
X156675408Y-89618484D01*
X156584840Y-89471650D01*
X156492819Y-89379629D01*
X156459334Y-89318306D01*
X156456500Y-89291948D01*
X156456500Y-89185965D01*
X156476185Y-89118926D01*
X156503595Y-89088694D01*
X156507033Y-89085974D01*
X156507044Y-89085968D01*
X156626968Y-88966044D01*
X156716003Y-88821697D01*
X156769349Y-88660708D01*
X156779500Y-88561345D01*
X156779499Y-87714656D01*
X156779379Y-87713486D01*
X156769349Y-87615292D01*
X156769348Y-87615289D01*
X156759282Y-87584911D01*
X156716003Y-87454303D01*
X156715999Y-87454297D01*
X156715998Y-87454294D01*
X156626970Y-87309959D01*
X156626969Y-87309958D01*
X156626968Y-87309956D01*
X156507044Y-87190032D01*
X156488399Y-87178531D01*
X156441677Y-87126582D01*
X156429500Y-87072995D01*
X156429500Y-86788943D01*
X156428845Y-86786500D01*
X156428840Y-86786481D01*
X156419510Y-86751659D01*
X156413492Y-86729200D01*
X156388577Y-86636216D01*
X156373496Y-86610094D01*
X156309524Y-86499290D01*
X156309521Y-86499286D01*
X156309520Y-86499284D01*
X156197716Y-86387480D01*
X156197715Y-86387479D01*
X156193385Y-86383149D01*
X156193374Y-86383139D01*
X155808590Y-85998355D01*
X155808588Y-85998352D01*
X155689717Y-85879481D01*
X155689716Y-85879480D01*
X155602904Y-85829360D01*
X155602904Y-85829359D01*
X155602900Y-85829358D01*
X155552785Y-85800423D01*
X155400057Y-85759499D01*
X155241943Y-85759499D01*
X155234347Y-85759499D01*
X155234331Y-85759500D01*
X151049097Y-85759500D01*
X150982058Y-85739815D01*
X150961416Y-85723181D01*
X150877819Y-85639584D01*
X150844334Y-85578261D01*
X150841500Y-85551903D01*
X150841500Y-83950999D01*
X155058127Y-83950999D01*
X155058128Y-83951000D01*
X156021314Y-83951000D01*
X156016920Y-83955394D01*
X155964259Y-84046606D01*
X155937000Y-84148339D01*
X155937000Y-84253661D01*
X155964259Y-84355394D01*
X156016920Y-84446606D01*
X156021314Y-84451000D01*
X155058128Y-84451000D01*
X155110730Y-84647317D01*
X155110734Y-84647326D01*
X155206865Y-84853482D01*
X155337342Y-85039820D01*
X155498179Y-85200657D01*
X155684517Y-85331134D01*
X155890673Y-85427265D01*
X155890682Y-85427269D01*
X156086999Y-85479872D01*
X156087000Y-85479871D01*
X156087000Y-84516686D01*
X156091394Y-84521080D01*
X156182606Y-84573741D01*
X156284339Y-84601000D01*
X156389661Y-84601000D01*
X156491394Y-84573741D01*
X156582606Y-84521080D01*
X156587000Y-84516686D01*
X156587000Y-85479872D01*
X156783317Y-85427269D01*
X156783326Y-85427265D01*
X156989482Y-85331134D01*
X157175820Y-85200657D01*
X157336657Y-85039820D01*
X157467134Y-84853482D01*
X157563265Y-84647326D01*
X157563269Y-84647317D01*
X157615872Y-84451000D01*
X156652686Y-84451000D01*
X156657080Y-84446606D01*
X156709741Y-84355394D01*
X156737000Y-84253661D01*
X156737000Y-84148339D01*
X156709741Y-84046606D01*
X156657080Y-83955394D01*
X156652686Y-83951000D01*
X157615872Y-83951000D01*
X157615872Y-83950999D01*
X157563269Y-83754682D01*
X157563265Y-83754673D01*
X157467134Y-83548517D01*
X157336657Y-83362179D01*
X157175820Y-83201342D01*
X156989481Y-83070865D01*
X156989479Y-83070864D01*
X156930543Y-83043382D01*
X156878103Y-82997210D01*
X156858951Y-82930017D01*
X156879166Y-82863136D01*
X156930543Y-82818618D01*
X156989479Y-82791135D01*
X156989481Y-82791134D01*
X157175820Y-82660657D01*
X157336657Y-82499820D01*
X157467134Y-82313482D01*
X157563265Y-82107326D01*
X157563269Y-82107317D01*
X157615872Y-81911000D01*
X156652686Y-81911000D01*
X156657080Y-81906606D01*
X156709741Y-81815394D01*
X156737000Y-81713661D01*
X156737000Y-81608339D01*
X156709741Y-81506606D01*
X156657080Y-81415394D01*
X156652686Y-81411000D01*
X157615872Y-81411000D01*
X157615872Y-81410999D01*
X157563269Y-81214682D01*
X157563265Y-81214673D01*
X157467134Y-81008517D01*
X157336657Y-80822179D01*
X157175820Y-80661342D01*
X156989481Y-80530865D01*
X156989479Y-80530864D01*
X156930543Y-80503382D01*
X156878103Y-80457210D01*
X156858951Y-80390017D01*
X156879166Y-80323136D01*
X156930543Y-80278618D01*
X156989479Y-80251135D01*
X156989481Y-80251134D01*
X157175820Y-80120657D01*
X157336657Y-79959820D01*
X157467134Y-79773482D01*
X157563265Y-79567326D01*
X157563269Y-79567317D01*
X157615872Y-79371000D01*
X156652686Y-79371000D01*
X156657080Y-79366606D01*
X156709741Y-79275394D01*
X156737000Y-79173661D01*
X156737000Y-79068339D01*
X156709741Y-78966606D01*
X156657080Y-78875394D01*
X156652686Y-78871000D01*
X157615872Y-78871000D01*
X157615872Y-78870999D01*
X157563269Y-78674682D01*
X157563265Y-78674673D01*
X157467134Y-78468517D01*
X157336657Y-78282179D01*
X157175820Y-78121342D01*
X156989481Y-77990865D01*
X156989479Y-77990864D01*
X156930543Y-77963382D01*
X156878103Y-77917210D01*
X156858951Y-77850017D01*
X156879166Y-77783136D01*
X156930543Y-77738618D01*
X156989479Y-77711135D01*
X156989481Y-77711134D01*
X157175820Y-77580657D01*
X157336657Y-77419820D01*
X157467134Y-77233482D01*
X157563265Y-77027326D01*
X157563269Y-77027317D01*
X157615872Y-76831000D01*
X156652686Y-76831000D01*
X156657080Y-76826606D01*
X156709741Y-76735394D01*
X156737000Y-76633661D01*
X156737000Y-76528339D01*
X156709741Y-76426606D01*
X156657080Y-76335394D01*
X156652686Y-76331000D01*
X157615872Y-76331000D01*
X157615872Y-76330999D01*
X157563269Y-76134682D01*
X157563265Y-76134673D01*
X157467134Y-75928517D01*
X157336657Y-75742179D01*
X157175820Y-75581342D01*
X156989482Y-75450865D01*
X156783328Y-75354734D01*
X156587000Y-75302127D01*
X156587000Y-76265314D01*
X156582606Y-76260920D01*
X156491394Y-76208259D01*
X156389661Y-76181000D01*
X156284339Y-76181000D01*
X156182606Y-76208259D01*
X156091394Y-76260920D01*
X156087000Y-76265314D01*
X156087000Y-75302127D01*
X155890671Y-75354734D01*
X155684517Y-75450865D01*
X155498179Y-75581342D01*
X155337342Y-75742179D01*
X155206865Y-75928517D01*
X155110734Y-76134673D01*
X155110730Y-76134682D01*
X155058127Y-76330999D01*
X155058128Y-76331000D01*
X156021314Y-76331000D01*
X156016920Y-76335394D01*
X155964259Y-76426606D01*
X155937000Y-76528339D01*
X155937000Y-76633661D01*
X155964259Y-76735394D01*
X156016920Y-76826606D01*
X156021314Y-76831000D01*
X155058128Y-76831000D01*
X155110730Y-77027317D01*
X155110734Y-77027326D01*
X155206865Y-77233482D01*
X155337342Y-77419820D01*
X155498179Y-77580657D01*
X155684517Y-77711134D01*
X155743457Y-77738618D01*
X155795896Y-77784790D01*
X155815048Y-77851984D01*
X155794832Y-77918865D01*
X155743457Y-77963382D01*
X155684517Y-77990865D01*
X155498179Y-78121342D01*
X155337342Y-78282179D01*
X155206865Y-78468517D01*
X155110734Y-78674673D01*
X155110730Y-78674682D01*
X155058127Y-78870999D01*
X155058128Y-78871000D01*
X156021314Y-78871000D01*
X156016920Y-78875394D01*
X155964259Y-78966606D01*
X155937000Y-79068339D01*
X155937000Y-79173661D01*
X155964259Y-79275394D01*
X156016920Y-79366606D01*
X156021314Y-79371000D01*
X155058128Y-79371000D01*
X155110730Y-79567317D01*
X155110734Y-79567326D01*
X155206865Y-79773482D01*
X155337342Y-79959820D01*
X155498179Y-80120657D01*
X155684517Y-80251134D01*
X155743457Y-80278618D01*
X155795896Y-80324790D01*
X155815048Y-80391984D01*
X155794832Y-80458865D01*
X155743457Y-80503382D01*
X155684517Y-80530865D01*
X155498179Y-80661342D01*
X155337342Y-80822179D01*
X155206865Y-81008517D01*
X155110734Y-81214673D01*
X155110730Y-81214682D01*
X155058127Y-81410999D01*
X155058128Y-81411000D01*
X156021314Y-81411000D01*
X156016920Y-81415394D01*
X155964259Y-81506606D01*
X155937000Y-81608339D01*
X155937000Y-81713661D01*
X155964259Y-81815394D01*
X156016920Y-81906606D01*
X156021314Y-81911000D01*
X155058128Y-81911000D01*
X155110730Y-82107317D01*
X155110734Y-82107326D01*
X155206865Y-82313482D01*
X155337342Y-82499820D01*
X155498179Y-82660657D01*
X155684517Y-82791134D01*
X155743457Y-82818618D01*
X155795896Y-82864790D01*
X155815048Y-82931984D01*
X155794832Y-82998865D01*
X155743457Y-83043382D01*
X155684517Y-83070865D01*
X155498179Y-83201342D01*
X155337342Y-83362179D01*
X155206865Y-83548517D01*
X155110734Y-83754673D01*
X155110730Y-83754682D01*
X155058127Y-83950999D01*
X150841500Y-83950999D01*
X150841500Y-83782060D01*
X150841501Y-83782047D01*
X150841501Y-83613944D01*
X150841501Y-83613943D01*
X150800577Y-83461216D01*
X150788415Y-83440150D01*
X150721524Y-83324290D01*
X150721518Y-83324282D01*
X150005117Y-82607881D01*
X150005116Y-82607880D01*
X149918052Y-82557614D01*
X149902994Y-82548920D01*
X149863444Y-82526085D01*
X149815229Y-82475517D01*
X149802008Y-82406910D01*
X149823870Y-82347577D01*
X149847568Y-82313734D01*
X149943739Y-82107496D01*
X150002635Y-81887692D01*
X150022468Y-81661000D01*
X150002635Y-81434308D01*
X149943739Y-81214504D01*
X149847568Y-81008266D01*
X149717047Y-80821861D01*
X149717045Y-80821858D01*
X149556141Y-80660954D01*
X149369734Y-80530432D01*
X149369728Y-80530429D01*
X149311725Y-80503382D01*
X149259285Y-80457210D01*
X149240133Y-80390017D01*
X149260348Y-80323135D01*
X149311725Y-80278618D01*
X149369734Y-80251568D01*
X149556139Y-80121047D01*
X149717047Y-79960139D01*
X149847568Y-79773734D01*
X149943739Y-79567496D01*
X150002635Y-79347692D01*
X150020071Y-79148399D01*
X150022468Y-79121001D01*
X150022468Y-79120998D01*
X150008960Y-78966606D01*
X150002635Y-78894308D01*
X149943739Y-78674504D01*
X149847568Y-78468266D01*
X149717047Y-78281861D01*
X149717045Y-78281858D01*
X149556143Y-78120956D01*
X149554513Y-78119815D01*
X149531535Y-78103725D01*
X149487912Y-78049149D01*
X149480719Y-77979650D01*
X149512241Y-77917296D01*
X149572471Y-77881882D01*
X149589404Y-77878861D01*
X149624483Y-77875091D01*
X149759331Y-77824796D01*
X149874546Y-77738546D01*
X149960796Y-77623331D01*
X150011091Y-77488483D01*
X150017500Y-77428873D01*
X150017499Y-75733128D01*
X150011091Y-75673517D01*
X149995168Y-75630826D01*
X149960797Y-75538671D01*
X149960793Y-75538664D01*
X149874547Y-75423455D01*
X149874544Y-75423452D01*
X149759335Y-75337206D01*
X149759328Y-75337202D01*
X149624482Y-75286908D01*
X149624483Y-75286908D01*
X149564883Y-75280501D01*
X149564881Y-75280500D01*
X149564873Y-75280500D01*
X149564864Y-75280500D01*
X147869129Y-75280500D01*
X147869123Y-75280501D01*
X147809516Y-75286908D01*
X147674671Y-75337202D01*
X147674664Y-75337206D01*
X147559455Y-75423452D01*
X147559452Y-75423455D01*
X147473206Y-75538664D01*
X147473202Y-75538671D01*
X147422908Y-75673517D01*
X147416501Y-75733116D01*
X147416501Y-75733123D01*
X147416500Y-75733135D01*
X147416500Y-75829500D01*
X147396815Y-75896539D01*
X147344011Y-75942294D01*
X147292500Y-75953500D01*
X147258195Y-75953500D01*
X147136970Y-75977613D01*
X147136960Y-75977616D01*
X147022773Y-76024913D01*
X147022760Y-76024920D01*
X146919992Y-76093588D01*
X146919988Y-76093591D01*
X146665992Y-76347589D01*
X146665991Y-76347590D01*
X146618535Y-76395045D01*
X146557212Y-76428529D01*
X146487520Y-76423544D01*
X146431587Y-76381672D01*
X146407171Y-76316208D01*
X146407327Y-76296555D01*
X146415775Y-76200000D01*
X146415775Y-76199999D01*
X146396712Y-75982115D01*
X146396710Y-75982105D01*
X146340105Y-75770849D01*
X146340101Y-75770840D01*
X146247667Y-75572614D01*
X146247666Y-75572612D01*
X146204124Y-75510428D01*
X146204124Y-75510427D01*
X145561000Y-76153551D01*
X145561000Y-76147339D01*
X145533741Y-76045606D01*
X145481080Y-75954394D01*
X145406606Y-75879920D01*
X145315394Y-75827259D01*
X145213661Y-75800000D01*
X145207447Y-75800000D01*
X145850571Y-75156874D01*
X145788387Y-75113333D01*
X145590159Y-75020898D01*
X145590150Y-75020894D01*
X145378894Y-74964289D01*
X145378884Y-74964287D01*
X145161001Y-74945225D01*
X145160999Y-74945225D01*
X144943115Y-74964287D01*
X144943105Y-74964289D01*
X144731849Y-75020894D01*
X144731840Y-75020898D01*
X144533613Y-75113333D01*
X144471428Y-75156874D01*
X145114554Y-75800000D01*
X145108339Y-75800000D01*
X145006606Y-75827259D01*
X144915394Y-75879920D01*
X144840920Y-75954394D01*
X144788259Y-76045606D01*
X144761000Y-76147339D01*
X144761000Y-76153554D01*
X144117874Y-75510428D01*
X144074333Y-75572613D01*
X143981898Y-75770840D01*
X143981894Y-75770849D01*
X143925289Y-75982105D01*
X143925287Y-75982115D01*
X143906225Y-76199999D01*
X143906225Y-76200000D01*
X143925287Y-76417884D01*
X143925289Y-76417894D01*
X143981894Y-76629150D01*
X143981898Y-76629159D01*
X144074333Y-76827387D01*
X144117874Y-76889571D01*
X144761000Y-76246445D01*
X144761000Y-76252661D01*
X144788259Y-76354394D01*
X144840920Y-76445606D01*
X144915394Y-76520080D01*
X145006606Y-76572741D01*
X145108339Y-76600000D01*
X145114553Y-76600000D01*
X144471427Y-77243124D01*
X144533612Y-77286666D01*
X144731840Y-77379101D01*
X144731849Y-77379105D01*
X144943105Y-77435710D01*
X144943115Y-77435712D01*
X145160999Y-77454775D01*
X145161001Y-77454775D01*
X145378884Y-77435712D01*
X145378894Y-77435710D01*
X145590150Y-77379105D01*
X145590164Y-77379100D01*
X145788383Y-77286669D01*
X145788385Y-77286668D01*
X145850571Y-77243124D01*
X145207448Y-76600000D01*
X145213661Y-76600000D01*
X145315394Y-76572741D01*
X145406606Y-76520080D01*
X145481080Y-76445606D01*
X145533741Y-76354394D01*
X145561000Y-76252661D01*
X145561000Y-76246447D01*
X146204124Y-76889571D01*
X146212926Y-76877002D01*
X146267503Y-76833377D01*
X146337002Y-76826185D01*
X146399356Y-76857708D01*
X146434769Y-76917938D01*
X146438500Y-76948126D01*
X146438500Y-77539719D01*
X146418815Y-77606758D01*
X146402181Y-77627400D01*
X146207400Y-77822181D01*
X146146077Y-77855666D01*
X146119719Y-77858500D01*
X142559195Y-77858500D01*
X142437970Y-77882613D01*
X142437960Y-77882616D01*
X142323769Y-77929915D01*
X142241702Y-77984751D01*
X142241701Y-77984752D01*
X142220989Y-77998590D01*
X142220988Y-77998591D01*
X141401181Y-78818399D01*
X141339858Y-78851884D01*
X141270166Y-78846900D01*
X141214233Y-78805028D01*
X141189816Y-78739564D01*
X141189500Y-78730718D01*
X141189500Y-77503081D01*
X141209185Y-77436042D01*
X141261989Y-77390287D01*
X141331147Y-77380343D01*
X141345593Y-77383306D01*
X141407517Y-77399898D01*
X141543023Y-77436207D01*
X141725926Y-77452208D01*
X141760998Y-77455277D01*
X141761000Y-77455277D01*
X141761002Y-77455277D01*
X141789254Y-77452805D01*
X141978977Y-77436207D01*
X142190330Y-77379575D01*
X142388639Y-77287102D01*
X142567877Y-77161598D01*
X142722598Y-77006877D01*
X142848102Y-76827639D01*
X142940575Y-76629330D01*
X142997207Y-76417977D01*
X143015432Y-76209664D01*
X143016277Y-76200002D01*
X143016277Y-76199997D01*
X143011670Y-76147339D01*
X142997207Y-75982023D01*
X142960879Y-75846446D01*
X142940577Y-75770677D01*
X142940576Y-75770676D01*
X142940575Y-75770670D01*
X142848102Y-75572362D01*
X142848100Y-75572359D01*
X142848099Y-75572357D01*
X142722599Y-75393124D01*
X142659067Y-75329592D01*
X142567877Y-75238402D01*
X142416691Y-75132540D01*
X142388638Y-75112897D01*
X142285921Y-75065000D01*
X142190330Y-75020425D01*
X142190326Y-75020424D01*
X142190322Y-75020422D01*
X141978977Y-74963793D01*
X141761002Y-74944723D01*
X141760998Y-74944723D01*
X141615682Y-74957436D01*
X141543023Y-74963793D01*
X141543020Y-74963793D01*
X141331677Y-75020422D01*
X141331668Y-75020426D01*
X141133361Y-75112898D01*
X141133357Y-75112900D01*
X140954121Y-75238402D01*
X140799403Y-75393120D01*
X140710826Y-75519623D01*
X140656249Y-75563248D01*
X140609251Y-75572500D01*
X140513957Y-75572500D01*
X140446918Y-75552815D01*
X140408418Y-75513595D01*
X140393343Y-75489154D01*
X140393339Y-75489149D01*
X140271351Y-75367161D01*
X140271350Y-75367160D01*
X140141241Y-75286908D01*
X140124518Y-75276593D01*
X140124513Y-75276591D01*
X140068388Y-75257993D01*
X139960753Y-75222326D01*
X139960751Y-75222325D01*
X139859678Y-75212000D01*
X139286330Y-75212000D01*
X139286312Y-75212001D01*
X139185247Y-75222325D01*
X139021484Y-75276592D01*
X139021481Y-75276593D01*
X138874648Y-75367161D01*
X138752661Y-75489148D01*
X138662093Y-75635981D01*
X138662091Y-75635986D01*
X138644887Y-75687905D01*
X138607826Y-75799747D01*
X138607826Y-75799748D01*
X138607825Y-75799748D01*
X138597500Y-75900815D01*
X138597500Y-76499169D01*
X138597501Y-76499187D01*
X138607825Y-76600252D01*
X138662092Y-76764015D01*
X138662093Y-76764018D01*
X138684082Y-76799668D01*
X138748492Y-76904093D01*
X138752661Y-76910851D01*
X138866629Y-77024819D01*
X138900114Y-77086142D01*
X138895130Y-77155834D01*
X138866629Y-77200181D01*
X138752660Y-77314149D01*
X138752659Y-77314150D01*
X138720928Y-77365596D01*
X138668980Y-77412321D01*
X138615389Y-77424500D01*
X138596670Y-77424500D01*
X138596654Y-77424499D01*
X138589058Y-77424499D01*
X138430943Y-77424499D01*
X138354579Y-77444961D01*
X138278214Y-77465423D01*
X138278209Y-77465426D01*
X138141290Y-77544475D01*
X138141282Y-77544481D01*
X137582584Y-78103181D01*
X137521261Y-78136666D01*
X137494903Y-78139500D01*
X133470401Y-78139500D01*
X133403362Y-78119815D01*
X133364862Y-78080596D01*
X133340840Y-78041650D01*
X133218849Y-77919659D01*
X133167402Y-77887926D01*
X133120678Y-77835978D01*
X133108500Y-77782388D01*
X133108500Y-77310943D01*
X133107846Y-77308500D01*
X133067577Y-77158215D01*
X133026844Y-77087665D01*
X133010372Y-77019765D01*
X133033224Y-76953738D01*
X133058747Y-76927288D01*
X133100000Y-76895634D01*
X133100000Y-75998012D01*
X133157007Y-76030925D01*
X133284174Y-76065000D01*
X133415826Y-76065000D01*
X133542993Y-76030925D01*
X133600000Y-75998012D01*
X133600000Y-76895633D01*
X133813483Y-76838433D01*
X133813492Y-76838429D01*
X134027578Y-76738600D01*
X134221082Y-76603105D01*
X134388105Y-76436082D01*
X134518425Y-76249968D01*
X134573002Y-76206344D01*
X134642501Y-76199151D01*
X134704855Y-76230673D01*
X134721575Y-76249968D01*
X134851894Y-76436082D01*
X135018917Y-76603105D01*
X135212421Y-76738600D01*
X135426507Y-76838429D01*
X135426516Y-76838433D01*
X135640000Y-76895634D01*
X135640000Y-75998012D01*
X135697007Y-76030925D01*
X135824174Y-76065000D01*
X135955826Y-76065000D01*
X136082993Y-76030925D01*
X136140000Y-75998012D01*
X136140000Y-76895633D01*
X136353483Y-76838433D01*
X136353492Y-76838429D01*
X136567578Y-76738600D01*
X136761082Y-76603105D01*
X136928105Y-76436082D01*
X137063600Y-76242578D01*
X137163429Y-76028492D01*
X137163432Y-76028486D01*
X137220636Y-75815000D01*
X136323012Y-75815000D01*
X136355925Y-75757993D01*
X136390000Y-75630826D01*
X136390000Y-75499174D01*
X136355925Y-75372007D01*
X136323012Y-75315000D01*
X137220636Y-75315000D01*
X137220635Y-75314999D01*
X137163432Y-75101513D01*
X137163429Y-75101507D01*
X137063600Y-74887422D01*
X137063599Y-74887420D01*
X136928113Y-74693926D01*
X136928108Y-74693920D01*
X136761082Y-74526894D01*
X136567578Y-74391399D01*
X136353492Y-74291570D01*
X136353486Y-74291567D01*
X136140000Y-74234364D01*
X136140000Y-75131988D01*
X136082993Y-75099075D01*
X135955826Y-75065000D01*
X135824174Y-75065000D01*
X135697007Y-75099075D01*
X135640000Y-75131988D01*
X135640000Y-74234364D01*
X135639999Y-74234364D01*
X135426513Y-74291567D01*
X135426507Y-74291570D01*
X135212422Y-74391399D01*
X135212420Y-74391400D01*
X135018926Y-74526886D01*
X135018920Y-74526891D01*
X134851891Y-74693920D01*
X134851890Y-74693922D01*
X134721575Y-74880031D01*
X134666998Y-74923655D01*
X134597499Y-74930848D01*
X134535145Y-74899326D01*
X134518425Y-74880031D01*
X134388109Y-74693922D01*
X134388108Y-74693920D01*
X134221082Y-74526894D01*
X134027578Y-74391399D01*
X133813492Y-74291570D01*
X133813486Y-74291567D01*
X133600000Y-74234364D01*
X133600000Y-75131988D01*
X133542993Y-75099075D01*
X133415826Y-75065000D01*
X133284174Y-75065000D01*
X133157007Y-75099075D01*
X133100000Y-75131988D01*
X133100000Y-74234364D01*
X133099999Y-74234364D01*
X132886513Y-74291567D01*
X132886507Y-74291570D01*
X132672422Y-74391399D01*
X132672420Y-74391400D01*
X132478926Y-74526886D01*
X132478920Y-74526891D01*
X132311891Y-74693920D01*
X132311890Y-74693922D01*
X132181880Y-74879595D01*
X132127303Y-74923219D01*
X132057804Y-74930412D01*
X131995450Y-74898890D01*
X131978730Y-74879594D01*
X131848494Y-74693597D01*
X131681402Y-74526506D01*
X131681395Y-74526501D01*
X131487834Y-74390967D01*
X131487830Y-74390965D01*
X131487828Y-74390964D01*
X131273663Y-74291097D01*
X131273659Y-74291096D01*
X131273655Y-74291094D01*
X131045413Y-74229938D01*
X131045403Y-74229936D01*
X130840712Y-74212028D01*
X130813125Y-74201236D01*
X130803415Y-74207477D01*
X130779288Y-74212028D01*
X130574596Y-74229936D01*
X130574586Y-74229938D01*
X130346344Y-74291094D01*
X130346335Y-74291098D01*
X130132171Y-74390964D01*
X130132169Y-74390965D01*
X129938597Y-74526505D01*
X129771505Y-74693597D01*
X129641575Y-74879158D01*
X129586998Y-74922783D01*
X129517500Y-74929977D01*
X129455145Y-74898454D01*
X129438425Y-74879158D01*
X129308494Y-74693597D01*
X129141402Y-74526506D01*
X129141395Y-74526501D01*
X128947834Y-74390967D01*
X128947830Y-74390965D01*
X128947828Y-74390964D01*
X128733663Y-74291097D01*
X128733659Y-74291096D01*
X128733655Y-74291094D01*
X128505413Y-74229938D01*
X128505403Y-74229936D01*
X128300712Y-74212028D01*
X128273125Y-74201236D01*
X128263415Y-74207477D01*
X128239288Y-74212028D01*
X128034596Y-74229936D01*
X128034586Y-74229938D01*
X127806344Y-74291094D01*
X127806335Y-74291098D01*
X127592171Y-74390964D01*
X127592169Y-74390965D01*
X127398597Y-74526505D01*
X127231505Y-74693597D01*
X127101575Y-74879158D01*
X127046998Y-74922783D01*
X126977500Y-74929977D01*
X126915145Y-74898454D01*
X126898425Y-74879158D01*
X126768494Y-74693597D01*
X126601402Y-74526506D01*
X126601395Y-74526501D01*
X126407834Y-74390967D01*
X126407830Y-74390965D01*
X126407828Y-74390964D01*
X126193663Y-74291097D01*
X126193659Y-74291096D01*
X126193655Y-74291094D01*
X125965413Y-74229938D01*
X125965403Y-74229936D01*
X125760712Y-74212028D01*
X125733125Y-74201236D01*
X125723415Y-74207477D01*
X125699288Y-74212028D01*
X125494596Y-74229936D01*
X125494586Y-74229938D01*
X125266344Y-74291094D01*
X125266335Y-74291098D01*
X125052171Y-74390964D01*
X125052169Y-74390965D01*
X124858600Y-74526503D01*
X124736673Y-74648430D01*
X124675350Y-74681914D01*
X124605658Y-74676930D01*
X124549725Y-74635058D01*
X124532810Y-74604081D01*
X124483797Y-74472671D01*
X124483793Y-74472664D01*
X124397547Y-74357455D01*
X124397544Y-74357452D01*
X124282335Y-74271206D01*
X124282328Y-74271202D01*
X124147482Y-74220908D01*
X124147483Y-74220908D01*
X124087883Y-74214501D01*
X124087881Y-74214500D01*
X124087873Y-74214500D01*
X124087864Y-74214500D01*
X122292129Y-74214500D01*
X122292123Y-74214501D01*
X122232516Y-74220908D01*
X122097671Y-74271202D01*
X122097664Y-74271206D01*
X121982455Y-74357452D01*
X121982452Y-74357455D01*
X121896206Y-74472664D01*
X121896202Y-74472671D01*
X121845908Y-74607517D01*
X121839501Y-74667116D01*
X121839500Y-74667135D01*
X121839500Y-76462870D01*
X121839501Y-76462876D01*
X121845908Y-76522483D01*
X121896202Y-76657328D01*
X121896206Y-76657335D01*
X121982452Y-76772544D01*
X121982455Y-76772547D01*
X122097664Y-76858793D01*
X122097671Y-76858797D01*
X122116957Y-76865990D01*
X122232517Y-76909091D01*
X122292127Y-76915500D01*
X122494737Y-76915499D01*
X122561776Y-76935183D01*
X122607531Y-76987987D01*
X122614511Y-77007404D01*
X122630422Y-77066784D01*
X122631359Y-77068406D01*
X122631368Y-77068422D01*
X122709477Y-77203712D01*
X122709481Y-77203717D01*
X122828349Y-77322585D01*
X122828354Y-77322589D01*
X123176708Y-77670944D01*
X123210193Y-77732266D01*
X123205209Y-77801958D01*
X123163337Y-77857891D01*
X123154125Y-77864162D01*
X123064152Y-77919658D01*
X123002694Y-77981115D01*
X122941370Y-78014599D01*
X122871679Y-78009613D01*
X122836349Y-77989285D01*
X122732539Y-77904090D01*
X122732532Y-77904086D01*
X122558733Y-77811188D01*
X122558727Y-77811186D01*
X122370132Y-77753976D01*
X122370129Y-77753975D01*
X122174000Y-77734659D01*
X121977869Y-77753975D01*
X121785494Y-77812332D01*
X121715627Y-77812955D01*
X121656514Y-77775707D01*
X121626924Y-77712413D01*
X121625499Y-77693671D01*
X121625499Y-77528330D01*
X121625498Y-77528313D01*
X121615174Y-77427247D01*
X121610228Y-77412321D01*
X121560908Y-77263484D01*
X121470340Y-77116650D01*
X121348350Y-76994660D01*
X121247555Y-76932489D01*
X121201518Y-76904093D01*
X121201513Y-76904091D01*
X121189357Y-76900063D01*
X121037753Y-76849826D01*
X121037751Y-76849825D01*
X120936678Y-76839500D01*
X120363330Y-76839500D01*
X120363312Y-76839501D01*
X120262247Y-76849825D01*
X120098484Y-76904092D01*
X120098481Y-76904093D01*
X119951648Y-76994661D01*
X119912181Y-77034129D01*
X119850858Y-77067614D01*
X119781166Y-77062630D01*
X119736819Y-77034129D01*
X119697351Y-76994661D01*
X119697350Y-76994660D01*
X119596555Y-76932489D01*
X119550518Y-76904093D01*
X119550513Y-76904091D01*
X119538357Y-76900063D01*
X119386753Y-76849826D01*
X119386751Y-76849825D01*
X119285678Y-76839500D01*
X118712330Y-76839500D01*
X118712312Y-76839501D01*
X118611247Y-76849825D01*
X118447484Y-76904092D01*
X118447481Y-76904093D01*
X118300650Y-76994659D01*
X118250273Y-77045036D01*
X118188949Y-77078520D01*
X118119257Y-77073534D01*
X118083308Y-77050430D01*
X118082788Y-77051125D01*
X117960593Y-76959649D01*
X117960586Y-76959645D01*
X117841667Y-76915291D01*
X117785733Y-76873419D01*
X117761316Y-76807955D01*
X117761000Y-76799109D01*
X117761000Y-76323000D01*
X116936000Y-76323000D01*
X116936000Y-75823000D01*
X117761000Y-75823000D01*
X117761000Y-75805526D01*
X117732066Y-75622852D01*
X117674916Y-75446959D01*
X117674915Y-75446956D01*
X117590947Y-75282162D01*
X117482245Y-75132545D01*
X117482241Y-75132540D01*
X117351459Y-75001758D01*
X117351454Y-75001754D01*
X117201837Y-74893052D01*
X117037043Y-74809084D01*
X117037037Y-74809082D01*
X116861144Y-74751932D01*
X116836000Y-74747950D01*
X116836000Y-75578025D01*
X116800905Y-75542930D01*
X116721095Y-75496852D01*
X116632078Y-75473000D01*
X116539922Y-75473000D01*
X116450905Y-75496852D01*
X116371095Y-75542930D01*
X116336000Y-75578025D01*
X116336000Y-74747950D01*
X116335999Y-74747950D01*
X116310854Y-74751932D01*
X116193317Y-74790122D01*
X116123476Y-74792117D01*
X116063643Y-74756036D01*
X116032816Y-74693335D01*
X116031000Y-74672191D01*
X116031000Y-74505172D01*
X116030999Y-74505155D01*
X116024598Y-74445627D01*
X116024596Y-74445620D01*
X115974354Y-74310913D01*
X115974350Y-74310906D01*
X115888190Y-74195812D01*
X115877442Y-74187766D01*
X115835572Y-74131832D01*
X115830588Y-74062140D01*
X115864074Y-74000817D01*
X115925398Y-73967333D01*
X115951754Y-73964500D01*
X125688480Y-73964500D01*
X125729048Y-73976412D01*
G37*
%TD.AperFunction*%
%TA.AperFunction,Conductor*%
G36*
X147955111Y-85256070D02*
G01*
X147966805Y-85263326D01*
X148064266Y-85331568D01*
X148270504Y-85427739D01*
X148270509Y-85427740D01*
X148270511Y-85427741D01*
X148316565Y-85440081D01*
X148490308Y-85486635D01*
X148644339Y-85500111D01*
X148716998Y-85506468D01*
X148717000Y-85506468D01*
X148717002Y-85506468D01*
X148773673Y-85501509D01*
X148943692Y-85486635D01*
X149163496Y-85427739D01*
X149369734Y-85331568D01*
X149445378Y-85278601D01*
X149511583Y-85256275D01*
X149579350Y-85273285D01*
X149627163Y-85324233D01*
X149640500Y-85380177D01*
X149640500Y-85765330D01*
X149640499Y-85765348D01*
X149640499Y-85931054D01*
X149640498Y-85931054D01*
X149681422Y-86083783D01*
X149697088Y-86110918D01*
X149760475Y-86220709D01*
X149760481Y-86220717D01*
X149879349Y-86339585D01*
X149879355Y-86339590D01*
X150264139Y-86724374D01*
X150264149Y-86724385D01*
X150268479Y-86728715D01*
X150268480Y-86728716D01*
X150380284Y-86840520D01*
X150380286Y-86840521D01*
X150380290Y-86840524D01*
X150517209Y-86919573D01*
X150517216Y-86919577D01*
X150619773Y-86947057D01*
X150669942Y-86960500D01*
X150669943Y-86960500D01*
X151785848Y-86960500D01*
X151852887Y-86980185D01*
X151898642Y-87032989D01*
X151908586Y-87102147D01*
X151879561Y-87165703D01*
X151856461Y-87185347D01*
X151856623Y-87185551D01*
X151850955Y-87190032D01*
X151731032Y-87309955D01*
X151731029Y-87309959D01*
X151642001Y-87454294D01*
X151641996Y-87454305D01*
X151588651Y-87615290D01*
X151578500Y-87714647D01*
X151578500Y-88561337D01*
X151578501Y-88561355D01*
X151588650Y-88660707D01*
X151588651Y-88660710D01*
X151641996Y-88821694D01*
X151642001Y-88821705D01*
X151731029Y-88966040D01*
X151731032Y-88966044D01*
X151738181Y-88973193D01*
X151771666Y-89034516D01*
X151774500Y-89060874D01*
X151774500Y-89311414D01*
X151772905Y-89327606D01*
X151773096Y-89327625D01*
X151772499Y-89333687D01*
X151772499Y-89488425D01*
X151772500Y-89488446D01*
X151772500Y-89709552D01*
X151772499Y-89709578D01*
X151772499Y-89863314D01*
X151791580Y-89959233D01*
X151791580Y-89959235D01*
X151801493Y-90009073D01*
X151801494Y-90009076D01*
X151801495Y-90009080D01*
X151807672Y-90023992D01*
X151858366Y-90146381D01*
X151858368Y-90146386D01*
X151858370Y-90146389D01*
X151940941Y-90269966D01*
X152244182Y-90573206D01*
X152277666Y-90634528D01*
X152280500Y-90660886D01*
X152280500Y-91652099D01*
X152260815Y-91719138D01*
X152227624Y-91753674D01*
X152163599Y-91798505D01*
X152163596Y-91798507D01*
X152066243Y-91895859D01*
X152004920Y-91929343D01*
X151935228Y-91924358D01*
X151890882Y-91895858D01*
X151453969Y-91458943D01*
X151453968Y-91458942D01*
X151330392Y-91376372D01*
X151330391Y-91376371D01*
X151330389Y-91376370D01*
X151330386Y-91376368D01*
X151330381Y-91376366D01*
X151234399Y-91336610D01*
X151193080Y-91319495D01*
X151168894Y-91314684D01*
X151047314Y-91290499D01*
X151047312Y-91290499D01*
X150898688Y-91290499D01*
X150892574Y-91290499D01*
X150892554Y-91290500D01*
X150666923Y-91290500D01*
X150599884Y-91270815D01*
X150554129Y-91218011D01*
X150544185Y-91148853D01*
X150560191Y-91103379D01*
X150573986Y-91080052D01*
X150610744Y-91017898D01*
X150656598Y-90860069D01*
X150659500Y-90823194D01*
X150659500Y-89516806D01*
X150656598Y-89479931D01*
X150656126Y-89478307D01*
X150613021Y-89329941D01*
X150610744Y-89322102D01*
X150527081Y-89180635D01*
X150526793Y-89180148D01*
X150509610Y-89112424D01*
X150531770Y-89046161D01*
X150545844Y-89029346D01*
X150577009Y-88998181D01*
X150611840Y-88963350D01*
X150702408Y-88816516D01*
X150756674Y-88652753D01*
X150767000Y-88551677D01*
X150766999Y-87978324D01*
X150766673Y-87975136D01*
X150756674Y-87877247D01*
X150736998Y-87817870D01*
X150702408Y-87713484D01*
X150611840Y-87566650D01*
X150489850Y-87444660D01*
X150378554Y-87376012D01*
X150343018Y-87354093D01*
X150343013Y-87354091D01*
X150341569Y-87353612D01*
X150179253Y-87299826D01*
X150179251Y-87299825D01*
X150078178Y-87289500D01*
X149479830Y-87289500D01*
X149479812Y-87289501D01*
X149378747Y-87299825D01*
X149214984Y-87354092D01*
X149214981Y-87354093D01*
X149068148Y-87444661D01*
X148954181Y-87558629D01*
X148892858Y-87592114D01*
X148823166Y-87587130D01*
X148778819Y-87558629D01*
X148664849Y-87444659D01*
X148640681Y-87429752D01*
X148593957Y-87377803D01*
X148583228Y-87316895D01*
X148582500Y-87316895D01*
X148582500Y-87312761D01*
X148582376Y-87312058D01*
X148582500Y-87310799D01*
X148582500Y-86425197D01*
X148580135Y-86413311D01*
X148580134Y-86413305D01*
X148569429Y-86359489D01*
X148558385Y-86303965D01*
X148540719Y-86261315D01*
X148511086Y-86189772D01*
X148511079Y-86189760D01*
X148442411Y-86086992D01*
X148442408Y-86086988D01*
X147808003Y-85452583D01*
X147774518Y-85391260D01*
X147779502Y-85321568D01*
X147821374Y-85265635D01*
X147886838Y-85241218D01*
X147955111Y-85256070D01*
G37*
%TD.AperFunction*%
%TA.AperFunction,Conductor*%
G36*
X109856703Y-87175166D02*
G01*
X109894477Y-87233944D01*
X109898858Y-87256278D01*
X109909325Y-87358752D01*
X109939813Y-87450756D01*
X109963199Y-87521331D01*
X109963592Y-87522515D01*
X109963593Y-87522518D01*
X109982260Y-87552781D01*
X110054159Y-87669349D01*
X110054161Y-87669351D01*
X110068482Y-87683672D01*
X110101967Y-87744995D01*
X110096983Y-87814687D01*
X110068485Y-87859032D01*
X110054552Y-87872965D01*
X109964051Y-88019688D01*
X109964046Y-88019699D01*
X109909819Y-88183347D01*
X109899500Y-88284345D01*
X109899340Y-88287501D01*
X109876272Y-88353453D01*
X109872443Y-88356443D01*
X109899500Y-88383500D01*
X111849499Y-88383500D01*
X111849499Y-88284360D01*
X111849498Y-88284345D01*
X111839180Y-88183347D01*
X111784953Y-88019699D01*
X111784948Y-88019688D01*
X111694447Y-87872965D01*
X111694444Y-87872961D01*
X111680517Y-87859034D01*
X111647032Y-87797711D01*
X111652016Y-87728019D01*
X111680517Y-87683672D01*
X111694840Y-87669350D01*
X111740759Y-87594902D01*
X111792707Y-87548178D01*
X111846298Y-87536000D01*
X112398365Y-87536000D01*
X112465404Y-87555685D01*
X112511159Y-87608489D01*
X112517438Y-87625396D01*
X112532256Y-87676398D01*
X112573620Y-87746341D01*
X112614039Y-87814687D01*
X112615919Y-87817865D01*
X112620178Y-87822124D01*
X112653665Y-87883444D01*
X112656500Y-87909808D01*
X112656500Y-89088807D01*
X112680612Y-89210028D01*
X112680613Y-89210032D01*
X112680614Y-89210035D01*
X112700934Y-89259091D01*
X112702136Y-89261992D01*
X112702136Y-89261993D01*
X112727915Y-89324230D01*
X112744907Y-89349661D01*
X112753455Y-89362453D01*
X112760330Y-89372742D01*
X112796587Y-89427006D01*
X112796591Y-89427011D01*
X112947899Y-89578319D01*
X112981384Y-89639642D01*
X112976400Y-89709334D01*
X112934528Y-89765267D01*
X112869064Y-89789684D01*
X112860218Y-89790000D01*
X111815457Y-89790000D01*
X111748418Y-89770315D01*
X111709918Y-89731095D01*
X111694843Y-89706654D01*
X111694839Y-89706649D01*
X111626017Y-89637827D01*
X111592532Y-89576504D01*
X111597516Y-89506812D01*
X111626017Y-89462464D01*
X111694448Y-89394033D01*
X111784948Y-89247311D01*
X111784953Y-89247300D01*
X111839180Y-89083652D01*
X111849499Y-88982654D01*
X111849500Y-88982641D01*
X111849500Y-88883500D01*
X109899501Y-88883500D01*
X109899501Y-88982654D01*
X109909819Y-89083652D01*
X109964046Y-89247300D01*
X109964051Y-89247311D01*
X110054552Y-89394034D01*
X110054555Y-89394038D01*
X110122982Y-89462465D01*
X110156467Y-89523788D01*
X110151483Y-89593480D01*
X110122983Y-89637827D01*
X110054159Y-89706651D01*
X109963593Y-89853481D01*
X109963591Y-89853486D01*
X109953708Y-89883312D01*
X109909326Y-90017247D01*
X109909326Y-90017248D01*
X109909325Y-90017248D01*
X109898858Y-90119711D01*
X109872462Y-90184402D01*
X109815281Y-90224554D01*
X109745470Y-90227417D01*
X109685193Y-90192083D01*
X109653588Y-90129770D01*
X109651500Y-90107108D01*
X109651500Y-88434862D01*
X109671185Y-88367823D01*
X109682429Y-88358079D01*
X109654900Y-88310036D01*
X109651500Y-88281196D01*
X109651500Y-87268879D01*
X109671185Y-87201840D01*
X109723989Y-87156085D01*
X109793147Y-87146141D01*
X109856703Y-87175166D01*
G37*
%TD.AperFunction*%
%TA.AperFunction,Conductor*%
G36*
X136758980Y-80831585D02*
G01*
X136804735Y-80884389D01*
X136814679Y-80953547D01*
X136785654Y-81017103D01*
X136739394Y-81050460D01*
X136702998Y-81065536D01*
X136603574Y-81106719D01*
X136603571Y-81106720D01*
X136603571Y-81106721D01*
X136485964Y-81196964D01*
X136407646Y-81299031D01*
X136395719Y-81314574D01*
X136338991Y-81451527D01*
X136338990Y-81451529D01*
X136324500Y-81561598D01*
X136324500Y-81760403D01*
X136338989Y-81870468D01*
X136341094Y-81878322D01*
X136337814Y-81879200D01*
X136343581Y-81933073D01*
X136340517Y-81943522D01*
X136341095Y-81943677D01*
X136338990Y-81951529D01*
X136324500Y-82061598D01*
X136324500Y-82260403D01*
X136338989Y-82370468D01*
X136341094Y-82378322D01*
X136338010Y-82379148D01*
X136343849Y-82433737D01*
X136341014Y-82443653D01*
X136341582Y-82443806D01*
X136339477Y-82451660D01*
X136339453Y-82451848D01*
X136339388Y-82451994D01*
X136337376Y-82459505D01*
X136336203Y-82459190D01*
X136311180Y-82515741D01*
X136252851Y-82554207D01*
X136240712Y-82557266D01*
X136238974Y-82557611D01*
X136238961Y-82557615D01*
X136172069Y-82585322D01*
X136172070Y-82585323D01*
X136124770Y-82604915D01*
X136032464Y-82666592D01*
X136032462Y-82666593D01*
X136021996Y-82673585D01*
X135945721Y-82749860D01*
X135884397Y-82783344D01*
X135814706Y-82778359D01*
X135770359Y-82749859D01*
X135746500Y-82726000D01*
X133796501Y-82726000D01*
X133796501Y-82825154D01*
X133806819Y-82926152D01*
X133861046Y-83089800D01*
X133861051Y-83089811D01*
X133951552Y-83236534D01*
X133951555Y-83236538D01*
X133965482Y-83250465D01*
X133998967Y-83311788D01*
X133993983Y-83381480D01*
X133965484Y-83425825D01*
X133951161Y-83440148D01*
X133860593Y-83586981D01*
X133860591Y-83586986D01*
X133847342Y-83626969D01*
X133806326Y-83750747D01*
X133806326Y-83750748D01*
X133806325Y-83750748D01*
X133796000Y-83851815D01*
X133796000Y-84550169D01*
X133796001Y-84550187D01*
X133806325Y-84651252D01*
X133832044Y-84728865D01*
X133853219Y-84792767D01*
X133860592Y-84815015D01*
X133860593Y-84815018D01*
X133881051Y-84848185D01*
X133951160Y-84961850D01*
X134073150Y-85083840D01*
X134085594Y-85091516D01*
X134132320Y-85143460D01*
X134144500Y-85197055D01*
X134144500Y-85388718D01*
X134124815Y-85455757D01*
X134108181Y-85476399D01*
X132863818Y-86720761D01*
X132802495Y-86754246D01*
X132763984Y-86756483D01*
X132715000Y-86751659D01*
X132518870Y-86770975D01*
X132330266Y-86828188D01*
X132156467Y-86921086D01*
X132156460Y-86921090D01*
X132091561Y-86974353D01*
X132027251Y-87001666D01*
X132012896Y-87002500D01*
X130873758Y-87002500D01*
X130806719Y-86982815D01*
X130786077Y-86966181D01*
X130665402Y-86845506D01*
X130665395Y-86845501D01*
X130658281Y-86840520D01*
X130588518Y-86791671D01*
X130471834Y-86709967D01*
X130471830Y-86709965D01*
X130471828Y-86709964D01*
X130257663Y-86610097D01*
X130257659Y-86610096D01*
X130257655Y-86610094D01*
X130029413Y-86548938D01*
X130029403Y-86548936D01*
X129794001Y-86528341D01*
X129793999Y-86528341D01*
X129558596Y-86548936D01*
X129558586Y-86548938D01*
X129330344Y-86610094D01*
X129330335Y-86610098D01*
X129116171Y-86709964D01*
X129116169Y-86709965D01*
X128922600Y-86845503D01*
X128800673Y-86967430D01*
X128739350Y-87000914D01*
X128669658Y-86995930D01*
X128613725Y-86954058D01*
X128596810Y-86923081D01*
X128547797Y-86791671D01*
X128547793Y-86791664D01*
X128461547Y-86676455D01*
X128461544Y-86676452D01*
X128346335Y-86590206D01*
X128346328Y-86590202D01*
X128211482Y-86539908D01*
X128211483Y-86539908D01*
X128151883Y-86533501D01*
X128151881Y-86533500D01*
X128151873Y-86533500D01*
X128151865Y-86533500D01*
X128005500Y-86533500D01*
X127938461Y-86513815D01*
X127892706Y-86461011D01*
X127881500Y-86409500D01*
X127881500Y-85917197D01*
X127880566Y-85912500D01*
X127857386Y-85795966D01*
X127829676Y-85729070D01*
X127827653Y-85724187D01*
X127819462Y-85704411D01*
X127810083Y-85681767D01*
X127796135Y-85660893D01*
X127741414Y-85578996D01*
X127741413Y-85578994D01*
X127707015Y-85544596D01*
X127654008Y-85491589D01*
X127028819Y-84866400D01*
X126995334Y-84805077D01*
X126992500Y-84778719D01*
X126992500Y-84685747D01*
X127012185Y-84618708D01*
X127051405Y-84580207D01*
X127063350Y-84572840D01*
X127185340Y-84450850D01*
X127275908Y-84304016D01*
X127330174Y-84140253D01*
X127330175Y-84140242D01*
X127330544Y-84138523D01*
X127331066Y-84137558D01*
X127332303Y-84133827D01*
X127332968Y-84134047D01*
X127363825Y-84077089D01*
X127425036Y-84043400D01*
X127494744Y-84048153D01*
X127550816Y-84089838D01*
X127569503Y-84125474D01*
X127613092Y-84257016D01*
X127703660Y-84403850D01*
X127825650Y-84525840D01*
X127972484Y-84616408D01*
X128136247Y-84670674D01*
X128237323Y-84681000D01*
X128810676Y-84680999D01*
X128810684Y-84680998D01*
X128810687Y-84680998D01*
X128866030Y-84675344D01*
X128911753Y-84670674D01*
X129075516Y-84616408D01*
X129222350Y-84525840D01*
X129344340Y-84403850D01*
X129434908Y-84257016D01*
X129489174Y-84093253D01*
X129499500Y-83992177D01*
X129499499Y-83393824D01*
X129496266Y-83362179D01*
X129489174Y-83292747D01*
X129481056Y-83268249D01*
X129434908Y-83128984D01*
X129344340Y-82982150D01*
X129230017Y-82867827D01*
X129196532Y-82806504D01*
X129201516Y-82736812D01*
X129230017Y-82692464D01*
X129343948Y-82578533D01*
X129434448Y-82431811D01*
X129434452Y-82431801D01*
X129445166Y-82399469D01*
X129484937Y-82342023D01*
X129549453Y-82315198D01*
X129618229Y-82327512D01*
X129650554Y-82350789D01*
X130185708Y-82885943D01*
X130219193Y-82947266D01*
X130214209Y-83016958D01*
X130197293Y-83047935D01*
X130151649Y-83108906D01*
X130151645Y-83108913D01*
X130101403Y-83243620D01*
X130101401Y-83243627D01*
X130095000Y-83303155D01*
X130095000Y-83951000D01*
X131011988Y-83951000D01*
X130979075Y-84008007D01*
X130945000Y-84135174D01*
X130945000Y-84266826D01*
X130979075Y-84393993D01*
X131011988Y-84451000D01*
X130095000Y-84451000D01*
X130095000Y-85098844D01*
X130101401Y-85158372D01*
X130101403Y-85158379D01*
X130151645Y-85293086D01*
X130151649Y-85293093D01*
X130237809Y-85408187D01*
X130237812Y-85408190D01*
X130352906Y-85494350D01*
X130352913Y-85494354D01*
X130487620Y-85544596D01*
X130487627Y-85544598D01*
X130547155Y-85550999D01*
X130547172Y-85551000D01*
X131195000Y-85551000D01*
X131195000Y-84634012D01*
X131252007Y-84666925D01*
X131379174Y-84701000D01*
X131510826Y-84701000D01*
X131637993Y-84666925D01*
X131695000Y-84634012D01*
X131695000Y-85551000D01*
X132342828Y-85551000D01*
X132342844Y-85550999D01*
X132402372Y-85544598D01*
X132402379Y-85544596D01*
X132537086Y-85494354D01*
X132537093Y-85494350D01*
X132652187Y-85408190D01*
X132652190Y-85408187D01*
X132738350Y-85293093D01*
X132738354Y-85293086D01*
X132788596Y-85158379D01*
X132788598Y-85158372D01*
X132794999Y-85098844D01*
X132795000Y-85098827D01*
X132795000Y-84451000D01*
X131878012Y-84451000D01*
X131910925Y-84393993D01*
X131945000Y-84266826D01*
X131945000Y-84135174D01*
X131910925Y-84008007D01*
X131878012Y-83951000D01*
X132795000Y-83951000D01*
X132795000Y-83303172D01*
X132794999Y-83303155D01*
X132788598Y-83243627D01*
X132788596Y-83243620D01*
X132738354Y-83108913D01*
X132727384Y-83094260D01*
X132702965Y-83028796D01*
X132717815Y-82960523D01*
X132738964Y-82932269D01*
X133584822Y-82086412D01*
X133646142Y-82052929D01*
X133715834Y-82057913D01*
X133771767Y-82099785D01*
X133796184Y-82165249D01*
X133796500Y-82174095D01*
X133796500Y-82226000D01*
X134521500Y-82226000D01*
X134521500Y-81438500D01*
X135021500Y-81438500D01*
X135021500Y-82226000D01*
X135746499Y-82226000D01*
X135746499Y-82126860D01*
X135746498Y-82126845D01*
X135736180Y-82025847D01*
X135681953Y-81862199D01*
X135681948Y-81862188D01*
X135591447Y-81715465D01*
X135591444Y-81715461D01*
X135469538Y-81593555D01*
X135469534Y-81593552D01*
X135322811Y-81503051D01*
X135322800Y-81503046D01*
X135159152Y-81448819D01*
X135058154Y-81438500D01*
X135021500Y-81438500D01*
X134521500Y-81438500D01*
X134517093Y-81434093D01*
X134465057Y-81418814D01*
X134419302Y-81366010D01*
X134409358Y-81296852D01*
X134438383Y-81233296D01*
X134444390Y-81226844D01*
X134823016Y-80848219D01*
X134884339Y-80814734D01*
X134910697Y-80811900D01*
X136691941Y-80811900D01*
X136758980Y-80831585D01*
G37*
%TD.AperFunction*%
%TA.AperFunction,Conductor*%
G36*
X123522539Y-86306685D02*
G01*
X123568294Y-86359489D01*
X123579500Y-86410999D01*
X123579501Y-86562999D01*
X123559817Y-86630039D01*
X123507013Y-86675794D01*
X123455501Y-86687000D01*
X123154499Y-86687000D01*
X123087460Y-86667315D01*
X123041705Y-86614511D01*
X123030499Y-86563002D01*
X123030499Y-86410998D01*
X123050184Y-86343961D01*
X123102988Y-86298206D01*
X123154499Y-86287000D01*
X123455500Y-86287000D01*
X123522539Y-86306685D01*
G37*
%TD.AperFunction*%
%TA.AperFunction,Conductor*%
G36*
X111299039Y-76772685D02*
G01*
X111344794Y-76825489D01*
X111356000Y-76877000D01*
X111356000Y-78422000D01*
X111336315Y-78489039D01*
X111283511Y-78534794D01*
X111232000Y-78546000D01*
X111206000Y-78546000D01*
X111206000Y-78643382D01*
X111175936Y-78673446D01*
X111133149Y-78747555D01*
X111111000Y-78830213D01*
X111111000Y-79315787D01*
X111133149Y-79398445D01*
X111175936Y-79472554D01*
X111236446Y-79533064D01*
X111310555Y-79575851D01*
X111393213Y-79598000D01*
X111478787Y-79598000D01*
X111561445Y-79575851D01*
X111635554Y-79533064D01*
X111686000Y-79482618D01*
X111686000Y-80323000D01*
X112003828Y-80323000D01*
X112003844Y-80322999D01*
X112063372Y-80316598D01*
X112063376Y-80316597D01*
X112173836Y-80275398D01*
X112243528Y-80270414D01*
X112245685Y-80270903D01*
X112248628Y-80271598D01*
X112308155Y-80277999D01*
X112308172Y-80278000D01*
X112356000Y-80278000D01*
X112356000Y-80117435D01*
X112375685Y-80050396D01*
X112428489Y-80004641D01*
X112497647Y-79994697D01*
X112561203Y-80023722D01*
X112579266Y-80043123D01*
X112648454Y-80135546D01*
X112706311Y-80178858D01*
X112748182Y-80234789D01*
X112755972Y-80277972D01*
X112756000Y-80278000D01*
X112803828Y-80278000D01*
X112803839Y-80277999D01*
X112865395Y-80271380D01*
X112891909Y-80271380D01*
X112898514Y-80272090D01*
X112898517Y-80272091D01*
X112958127Y-80278500D01*
X113453872Y-80278499D01*
X113513483Y-80272091D01*
X113513486Y-80272089D01*
X113517744Y-80271632D01*
X113544254Y-80271632D01*
X113548514Y-80272089D01*
X113548517Y-80272091D01*
X113608127Y-80278500D01*
X114103872Y-80278499D01*
X114163483Y-80272091D01*
X114163486Y-80272089D01*
X114167744Y-80271632D01*
X114194254Y-80271632D01*
X114198514Y-80272089D01*
X114198517Y-80272091D01*
X114258127Y-80278500D01*
X114359949Y-80278499D01*
X114426986Y-80298183D01*
X114472742Y-80350986D01*
X114482686Y-80420145D01*
X114453662Y-80483701D01*
X114447630Y-80490180D01*
X114368659Y-80569151D01*
X114278093Y-80715981D01*
X114278091Y-80715986D01*
X114253699Y-80789597D01*
X114223826Y-80879747D01*
X114223826Y-80879748D01*
X114223825Y-80879748D01*
X114213500Y-80980815D01*
X114213500Y-81579169D01*
X114213501Y-81579187D01*
X114223825Y-81680252D01*
X114250384Y-81760400D01*
X114276969Y-81840628D01*
X114278092Y-81844015D01*
X114278093Y-81844018D01*
X114289307Y-81862199D01*
X114361921Y-81979925D01*
X114368661Y-81990851D01*
X114482629Y-82104819D01*
X114516114Y-82166142D01*
X114511130Y-82235834D01*
X114482629Y-82280181D01*
X114368660Y-82394149D01*
X114368656Y-82394154D01*
X114353582Y-82418595D01*
X114301635Y-82465321D01*
X114248043Y-82477500D01*
X113810192Y-82477500D01*
X113688973Y-82501612D01*
X113688961Y-82501615D01*
X113648476Y-82518384D01*
X113648477Y-82518385D01*
X113574770Y-82548915D01*
X113574761Y-82548920D01*
X113506824Y-82594315D01*
X113506823Y-82594316D01*
X113471989Y-82617590D01*
X113471988Y-82617591D01*
X113027985Y-83061596D01*
X112883992Y-83205589D01*
X112861989Y-83227592D01*
X112796587Y-83292993D01*
X112727920Y-83395760D01*
X112727913Y-83395773D01*
X112718743Y-83417914D01*
X112718743Y-83417915D01*
X112680614Y-83509964D01*
X112680612Y-83509972D01*
X112657341Y-83626964D01*
X112657342Y-83626965D01*
X112656500Y-83631198D01*
X112656500Y-85572191D01*
X112636815Y-85639230D01*
X112620181Y-85659872D01*
X112615923Y-85664129D01*
X112615917Y-85664137D01*
X112532255Y-85805603D01*
X112532254Y-85805606D01*
X112486402Y-85963426D01*
X112486401Y-85963432D01*
X112483500Y-86000298D01*
X112483500Y-86157000D01*
X112463815Y-86224039D01*
X112411011Y-86269794D01*
X112359500Y-86281000D01*
X111846298Y-86281000D01*
X111779259Y-86261315D01*
X111740759Y-86222097D01*
X111739908Y-86220717D01*
X111694840Y-86147650D01*
X111572850Y-86025660D01*
X111426016Y-85935092D01*
X111262253Y-85880826D01*
X111262251Y-85880825D01*
X111161178Y-85870500D01*
X110587830Y-85870500D01*
X110587812Y-85870501D01*
X110486747Y-85880825D01*
X110322984Y-85935092D01*
X110322981Y-85935093D01*
X110176148Y-86025661D01*
X110054161Y-86147648D01*
X109963593Y-86294481D01*
X109963591Y-86294486D01*
X109960451Y-86303963D01*
X109909326Y-86458247D01*
X109909326Y-86458248D01*
X109909325Y-86458248D01*
X109898858Y-86560711D01*
X109872462Y-86625402D01*
X109815281Y-86665554D01*
X109745470Y-86668417D01*
X109685193Y-86633083D01*
X109653588Y-86570770D01*
X109651500Y-86548108D01*
X109651500Y-80421668D01*
X109671185Y-80354629D01*
X109723989Y-80308874D01*
X109793147Y-80298930D01*
X109818836Y-80305487D01*
X109848622Y-80316597D01*
X109848627Y-80316598D01*
X109908155Y-80322999D01*
X109908172Y-80323000D01*
X110706000Y-80323000D01*
X110706000Y-78646000D01*
X110696023Y-78636023D01*
X110662961Y-78626315D01*
X110617206Y-78573511D01*
X110606000Y-78522000D01*
X110606000Y-77627000D01*
X110625685Y-77559961D01*
X110678489Y-77514206D01*
X110730000Y-77503000D01*
X110856000Y-77503000D01*
X110856000Y-76877000D01*
X110875685Y-76809961D01*
X110928489Y-76764206D01*
X110980000Y-76753000D01*
X111232000Y-76753000D01*
X111299039Y-76772685D01*
G37*
%TD.AperFunction*%
%TA.AperFunction,Conductor*%
G36*
X121751858Y-83543085D02*
G01*
X121803058Y-83590628D01*
X121820500Y-83654042D01*
X121820500Y-84392701D01*
X121823401Y-84429567D01*
X121823402Y-84429573D01*
X121869254Y-84587393D01*
X121869255Y-84587396D01*
X121869256Y-84587398D01*
X121918505Y-84670674D01*
X121932125Y-84693704D01*
X121949308Y-84761428D01*
X121927148Y-84827691D01*
X121913074Y-84844506D01*
X121842591Y-84914988D01*
X121842585Y-84914996D01*
X121773233Y-85018789D01*
X121771586Y-85023393D01*
X121726615Y-85131962D01*
X121726612Y-85131972D01*
X121708545Y-85222804D01*
X121708545Y-85222805D01*
X121702500Y-85253194D01*
X121702500Y-85529148D01*
X121693061Y-85576600D01*
X121644957Y-85692734D01*
X121644956Y-85692739D01*
X121630229Y-85804594D01*
X121601962Y-85868491D01*
X121543637Y-85906961D01*
X121473772Y-85907792D01*
X121448837Y-85897766D01*
X121288732Y-85812188D01*
X121288729Y-85812187D01*
X121288727Y-85812186D01*
X121100132Y-85754976D01*
X121100129Y-85754975D01*
X120904000Y-85735659D01*
X120707865Y-85754976D01*
X120688620Y-85760814D01*
X120618754Y-85761437D01*
X120559641Y-85724187D01*
X120530051Y-85660893D01*
X120539378Y-85591649D01*
X120564943Y-85554475D01*
X121137411Y-84982008D01*
X121172685Y-84929216D01*
X121206083Y-84879233D01*
X121227097Y-84828500D01*
X121253386Y-84765034D01*
X121277500Y-84643803D01*
X121277500Y-84520196D01*
X121277500Y-84050747D01*
X121297185Y-83983708D01*
X121336405Y-83945207D01*
X121348350Y-83937840D01*
X121470340Y-83815850D01*
X121560908Y-83669016D01*
X121578795Y-83615036D01*
X121618566Y-83557593D01*
X121683082Y-83530770D01*
X121751858Y-83543085D01*
G37*
%TD.AperFunction*%
%TA.AperFunction,Conductor*%
G36*
X114315082Y-83752185D02*
G01*
X114353582Y-83791405D01*
X114368656Y-83815845D01*
X114368660Y-83815850D01*
X114490650Y-83937840D01*
X114637484Y-84028408D01*
X114800946Y-84082574D01*
X114858388Y-84122344D01*
X114885211Y-84186860D01*
X114872896Y-84255636D01*
X114849620Y-84287959D01*
X114322566Y-84815015D01*
X114153992Y-84983589D01*
X114136554Y-85001027D01*
X114123180Y-85014401D01*
X114061856Y-85047885D01*
X113992165Y-85042899D01*
X113936232Y-85001027D01*
X113911816Y-84935562D01*
X113911500Y-84926718D01*
X113911500Y-84004281D01*
X113931185Y-83937242D01*
X113947819Y-83916600D01*
X114095600Y-83768819D01*
X114156923Y-83735334D01*
X114183281Y-83732500D01*
X114248043Y-83732500D01*
X114315082Y-83752185D01*
G37*
%TD.AperFunction*%
%TA.AperFunction,Conductor*%
G36*
X140732514Y-81895501D02*
G01*
X140732674Y-81894905D01*
X140740524Y-81897008D01*
X140740526Y-81897008D01*
X140740528Y-81897009D01*
X140850599Y-81911500D01*
X141049400Y-81911499D01*
X141062039Y-81909835D01*
X141131073Y-81920600D01*
X141183329Y-81966980D01*
X141202215Y-82034249D01*
X141201164Y-82048952D01*
X141199500Y-82061596D01*
X141199500Y-82260403D01*
X141213989Y-82370468D01*
X141216094Y-82378322D01*
X141212814Y-82379200D01*
X141218581Y-82433073D01*
X141215517Y-82443522D01*
X141216095Y-82443677D01*
X141213990Y-82451529D01*
X141199500Y-82561598D01*
X141199500Y-82760403D01*
X141213989Y-82870468D01*
X141216094Y-82878322D01*
X141213010Y-82879148D01*
X141218849Y-82933737D01*
X141216014Y-82943653D01*
X141216582Y-82943806D01*
X141214478Y-82951658D01*
X141203373Y-83036000D01*
X141231494Y-83036000D01*
X141298533Y-83055685D01*
X141329885Y-83084534D01*
X141330652Y-83085534D01*
X141355833Y-83150708D01*
X141341781Y-83219150D01*
X141330652Y-83236466D01*
X141329885Y-83237466D01*
X141273466Y-83278681D01*
X141231494Y-83286000D01*
X141203374Y-83286000D01*
X141214478Y-83370346D01*
X141216582Y-83378197D01*
X141213313Y-83379072D01*
X141218648Y-83433512D01*
X141215650Y-83443554D01*
X141216095Y-83443673D01*
X141213991Y-83451524D01*
X141199500Y-83561598D01*
X141199500Y-83760403D01*
X141213989Y-83870468D01*
X141216094Y-83878322D01*
X141212814Y-83879200D01*
X141218581Y-83933073D01*
X141215517Y-83943522D01*
X141216095Y-83943677D01*
X141213990Y-83951529D01*
X141199500Y-84061598D01*
X141199500Y-84260403D01*
X141213989Y-84370468D01*
X141216094Y-84378322D01*
X141212814Y-84379200D01*
X141218581Y-84433073D01*
X141215517Y-84443522D01*
X141216095Y-84443677D01*
X141213990Y-84451529D01*
X141199500Y-84561598D01*
X141199500Y-84760400D01*
X141201165Y-84773045D01*
X141190396Y-84842080D01*
X141144013Y-84894333D01*
X141076743Y-84913215D01*
X141062046Y-84912164D01*
X141049401Y-84910500D01*
X140850596Y-84910500D01*
X140740531Y-84924989D01*
X140732678Y-84927094D01*
X140731802Y-84923824D01*
X140677853Y-84929567D01*
X140667477Y-84926518D01*
X140667323Y-84927095D01*
X140659470Y-84924990D01*
X140549401Y-84910500D01*
X140350596Y-84910500D01*
X140240531Y-84924989D01*
X140232678Y-84927094D01*
X140231802Y-84923824D01*
X140177853Y-84929567D01*
X140167477Y-84926518D01*
X140167323Y-84927095D01*
X140159470Y-84924990D01*
X140049401Y-84910500D01*
X139850596Y-84910500D01*
X139740531Y-84924989D01*
X139732678Y-84927094D01*
X139731802Y-84923824D01*
X139677853Y-84929567D01*
X139667477Y-84926518D01*
X139667323Y-84927095D01*
X139659470Y-84924990D01*
X139549401Y-84910500D01*
X139350596Y-84910500D01*
X139240531Y-84924989D01*
X139232678Y-84927094D01*
X139231802Y-84923824D01*
X139177853Y-84929567D01*
X139167477Y-84926518D01*
X139167323Y-84927095D01*
X139159470Y-84924990D01*
X139049401Y-84910500D01*
X138850596Y-84910500D01*
X138740531Y-84924989D01*
X138732678Y-84927094D01*
X138731802Y-84923824D01*
X138677853Y-84929567D01*
X138667477Y-84926518D01*
X138667323Y-84927095D01*
X138659470Y-84924990D01*
X138549401Y-84910500D01*
X138350598Y-84910500D01*
X138337953Y-84912165D01*
X138268918Y-84901395D01*
X138216665Y-84855012D01*
X138197784Y-84787742D01*
X138198836Y-84773039D01*
X138199662Y-84766763D01*
X138200500Y-84760401D01*
X138200499Y-84561600D01*
X138186009Y-84451528D01*
X138186008Y-84451525D01*
X138183905Y-84443674D01*
X138187207Y-84442789D01*
X138181392Y-84389075D01*
X138184501Y-84378485D01*
X138183905Y-84378326D01*
X138186008Y-84370475D01*
X138186008Y-84370474D01*
X138186009Y-84370472D01*
X138200500Y-84260401D01*
X138200499Y-84061600D01*
X138200499Y-84061598D01*
X138200499Y-84061596D01*
X138186011Y-83951536D01*
X138183906Y-83943682D01*
X138187007Y-83942850D01*
X138181128Y-83888382D01*
X138184147Y-83878389D01*
X138183418Y-83878194D01*
X138185521Y-83870342D01*
X138196626Y-83786000D01*
X138168506Y-83786000D01*
X138101467Y-83766315D01*
X138070115Y-83737466D01*
X138069348Y-83736466D01*
X138044167Y-83671292D01*
X138058219Y-83602850D01*
X138069348Y-83585534D01*
X138070115Y-83584534D01*
X138126534Y-83543319D01*
X138168506Y-83536000D01*
X138196626Y-83536000D01*
X138185521Y-83451659D01*
X138183418Y-83443807D01*
X138187041Y-83442835D01*
X138180919Y-83390884D01*
X138184495Y-83378484D01*
X138183905Y-83378326D01*
X138186008Y-83370475D01*
X138186008Y-83370474D01*
X138186009Y-83370472D01*
X138200500Y-83260401D01*
X138200499Y-83061600D01*
X138200499Y-83061596D01*
X138186011Y-82951536D01*
X138183906Y-82943682D01*
X138187007Y-82942850D01*
X138181128Y-82888382D01*
X138184147Y-82878389D01*
X138183418Y-82878194D01*
X138185521Y-82870342D01*
X138196626Y-82786000D01*
X138168506Y-82786000D01*
X138101467Y-82766315D01*
X138070115Y-82737466D01*
X138069348Y-82736466D01*
X138044167Y-82671292D01*
X138058219Y-82602850D01*
X138069348Y-82585534D01*
X138070115Y-82584534D01*
X138126534Y-82543319D01*
X138168506Y-82536000D01*
X138196626Y-82536000D01*
X138185521Y-82451659D01*
X138183418Y-82443807D01*
X138187041Y-82442835D01*
X138180919Y-82390884D01*
X138184495Y-82378484D01*
X138183905Y-82378326D01*
X138186008Y-82370475D01*
X138186008Y-82370474D01*
X138186009Y-82370472D01*
X138200500Y-82260401D01*
X138200499Y-82061600D01*
X138200498Y-82061596D01*
X138198835Y-82048960D01*
X138209601Y-81979925D01*
X138255981Y-81927669D01*
X138323249Y-81908784D01*
X138337959Y-81909836D01*
X138338945Y-81909965D01*
X138350599Y-81911500D01*
X138549400Y-81911499D01*
X138549401Y-81911499D01*
X138570024Y-81908784D01*
X138659472Y-81897009D01*
X138659475Y-81897007D01*
X138667326Y-81894905D01*
X138668210Y-81898207D01*
X138721925Y-81892392D01*
X138732514Y-81895501D01*
X138732674Y-81894905D01*
X138740524Y-81897008D01*
X138740526Y-81897008D01*
X138740528Y-81897009D01*
X138850599Y-81911500D01*
X139049400Y-81911499D01*
X139049401Y-81911499D01*
X139070024Y-81908784D01*
X139159472Y-81897009D01*
X139159475Y-81897007D01*
X139167326Y-81894905D01*
X139168210Y-81898207D01*
X139221925Y-81892392D01*
X139232514Y-81895501D01*
X139232674Y-81894905D01*
X139240524Y-81897008D01*
X139240526Y-81897008D01*
X139240528Y-81897009D01*
X139350599Y-81911500D01*
X139549400Y-81911499D01*
X139549401Y-81911499D01*
X139570024Y-81908784D01*
X139659472Y-81897009D01*
X139659475Y-81897007D01*
X139667326Y-81894905D01*
X139668210Y-81898207D01*
X139721925Y-81892392D01*
X139732514Y-81895501D01*
X139732674Y-81894905D01*
X139740524Y-81897008D01*
X139740526Y-81897008D01*
X139740528Y-81897009D01*
X139850599Y-81911500D01*
X140049400Y-81911499D01*
X140049401Y-81911499D01*
X140070024Y-81908784D01*
X140159472Y-81897009D01*
X140159475Y-81897007D01*
X140167326Y-81894905D01*
X140168210Y-81898207D01*
X140221925Y-81892392D01*
X140232514Y-81895501D01*
X140232674Y-81894905D01*
X140240524Y-81897008D01*
X140240526Y-81897008D01*
X140240528Y-81897009D01*
X140350599Y-81911500D01*
X140549400Y-81911499D01*
X140549401Y-81911499D01*
X140570024Y-81908784D01*
X140659472Y-81897009D01*
X140659475Y-81897007D01*
X140667326Y-81894905D01*
X140668210Y-81898207D01*
X140721925Y-81892392D01*
X140732514Y-81895501D01*
G37*
%TD.AperFunction*%
%TA.AperFunction,Conductor*%
G36*
X117942834Y-83160913D02*
G01*
X117998767Y-83202785D01*
X118023184Y-83268249D01*
X118023500Y-83277094D01*
X118023500Y-83418168D01*
X118023501Y-83418187D01*
X118033825Y-83519252D01*
X118057477Y-83590628D01*
X118088092Y-83683016D01*
X118138899Y-83765388D01*
X118138909Y-83765403D01*
X118157349Y-83832796D01*
X118136426Y-83899459D01*
X118082784Y-83944229D01*
X118033370Y-83954500D01*
X116145994Y-83954500D01*
X116078955Y-83934815D01*
X116033200Y-83882011D01*
X116023256Y-83812853D01*
X116040465Y-83765388D01*
X116041082Y-83764388D01*
X116093036Y-83717671D01*
X116146611Y-83705500D01*
X116960331Y-83705500D01*
X116960347Y-83705501D01*
X116967943Y-83705501D01*
X117126054Y-83705501D01*
X117126057Y-83705501D01*
X117278785Y-83664577D01*
X117343930Y-83626965D01*
X117415716Y-83585520D01*
X117527520Y-83473716D01*
X117527520Y-83473714D01*
X117537724Y-83463511D01*
X117537728Y-83463506D01*
X117811821Y-83189412D01*
X117873142Y-83155929D01*
X117942834Y-83160913D01*
G37*
%TD.AperFunction*%
%TA.AperFunction,Conductor*%
G36*
X147380160Y-81292185D02*
G01*
X147425915Y-81344989D01*
X147435859Y-81414147D01*
X147432897Y-81428589D01*
X147431366Y-81434299D01*
X147431364Y-81434313D01*
X147411532Y-81660998D01*
X147411532Y-81661001D01*
X147431364Y-81887686D01*
X147431366Y-81887697D01*
X147490258Y-82107488D01*
X147490260Y-82107492D01*
X147490261Y-82107496D01*
X147552921Y-82241870D01*
X147585388Y-82311495D01*
X147595880Y-82380573D01*
X147567360Y-82444357D01*
X147508884Y-82482596D01*
X147473006Y-82487900D01*
X147343842Y-82487900D01*
X147191115Y-82528823D01*
X147191114Y-82528823D01*
X147191112Y-82528824D01*
X147191109Y-82528825D01*
X147141249Y-82557613D01*
X147141248Y-82557614D01*
X147111375Y-82574861D01*
X147054185Y-82607879D01*
X147054182Y-82607881D01*
X146118680Y-83543384D01*
X146057357Y-83576869D01*
X145987665Y-83571885D01*
X145931732Y-83530013D01*
X145907315Y-83464549D01*
X145906999Y-83455703D01*
X145906999Y-83290830D01*
X145906998Y-83290813D01*
X145896674Y-83189747D01*
X145896564Y-83189414D01*
X145842408Y-83025984D01*
X145751840Y-82879150D01*
X145737517Y-82864827D01*
X145704032Y-82803504D01*
X145709016Y-82733812D01*
X145737521Y-82689460D01*
X145751447Y-82675535D01*
X145841948Y-82528811D01*
X145841953Y-82528800D01*
X145896180Y-82365152D01*
X145906499Y-82264154D01*
X145906500Y-82264141D01*
X145906500Y-82165000D01*
X144805500Y-82165000D01*
X144738461Y-82145315D01*
X144692706Y-82092511D01*
X144681500Y-82041000D01*
X144681500Y-81789000D01*
X144701185Y-81721961D01*
X144753989Y-81676206D01*
X144805500Y-81665000D01*
X145906499Y-81665000D01*
X145906499Y-81565860D01*
X145906498Y-81565845D01*
X145896181Y-81464849D01*
X145886457Y-81435505D01*
X145884055Y-81365677D01*
X145919786Y-81305634D01*
X145982306Y-81274441D01*
X146004163Y-81272500D01*
X147313121Y-81272500D01*
X147380160Y-81292185D01*
G37*
%TD.AperFunction*%
%TA.AperFunction,Conductor*%
G36*
X143919206Y-82368727D02*
G01*
X143975139Y-82410599D01*
X143993578Y-82445905D01*
X144021046Y-82528800D01*
X144021051Y-82528811D01*
X144111552Y-82675534D01*
X144111555Y-82675538D01*
X144125482Y-82689465D01*
X144158967Y-82750788D01*
X144153983Y-82820480D01*
X144125484Y-82864825D01*
X144111159Y-82879150D01*
X144082169Y-82926152D01*
X144052287Y-82974597D01*
X144000341Y-83021321D01*
X143946750Y-83033500D01*
X143226099Y-83033500D01*
X143159060Y-83013815D01*
X143113305Y-82961011D01*
X143103361Y-82891853D01*
X143132386Y-82828297D01*
X143191164Y-82790523D01*
X143201908Y-82787883D01*
X143261838Y-82775961D01*
X143320035Y-82764386D01*
X143401061Y-82730823D01*
X143434233Y-82717083D01*
X143537008Y-82648411D01*
X143624411Y-82561008D01*
X143788191Y-82397228D01*
X143849514Y-82363743D01*
X143919206Y-82368727D01*
G37*
%TD.AperFunction*%
%TA.AperFunction,Conductor*%
G36*
X116836000Y-76860000D02*
G01*
X116932000Y-76860000D01*
X116999039Y-76879685D01*
X117044794Y-76932489D01*
X117056000Y-76984000D01*
X117056000Y-78522000D01*
X117036315Y-78589039D01*
X116983511Y-78634794D01*
X116962672Y-78639327D01*
X116956000Y-78646000D01*
X116956000Y-80303000D01*
X117385500Y-80303000D01*
X117452539Y-80322685D01*
X117498294Y-80375489D01*
X117509500Y-80427000D01*
X117509500Y-81741903D01*
X117489815Y-81808942D01*
X117473181Y-81829584D01*
X116834584Y-82468181D01*
X116773261Y-82501666D01*
X116746903Y-82504500D01*
X116146611Y-82504500D01*
X116079572Y-82484815D01*
X116041072Y-82445596D01*
X116009340Y-82394150D01*
X115895371Y-82280181D01*
X115861886Y-82218858D01*
X115866870Y-82149166D01*
X115895371Y-82104819D01*
X115951238Y-82048952D01*
X116009340Y-81990850D01*
X116099908Y-81844016D01*
X116154174Y-81680253D01*
X116164500Y-81579177D01*
X116164499Y-80980824D01*
X116162504Y-80961298D01*
X116154174Y-80879747D01*
X116144917Y-80851811D01*
X116099908Y-80715984D01*
X116009340Y-80569150D01*
X115954871Y-80514681D01*
X115921386Y-80453358D01*
X115926370Y-80383666D01*
X115968242Y-80327733D01*
X116020912Y-80308087D01*
X116026000Y-80303000D01*
X116026000Y-79482618D01*
X116076446Y-79533064D01*
X116150555Y-79575851D01*
X116233213Y-79598000D01*
X116318787Y-79598000D01*
X116401445Y-79575851D01*
X116475554Y-79533064D01*
X116536064Y-79472554D01*
X116578851Y-79398445D01*
X116601000Y-79315787D01*
X116601000Y-78830213D01*
X116578851Y-78747555D01*
X116536064Y-78673446D01*
X116475554Y-78612936D01*
X116456000Y-78601646D01*
X116456000Y-78546000D01*
X116454337Y-78544337D01*
X116392961Y-78526315D01*
X116347206Y-78473511D01*
X116336000Y-78422000D01*
X116336000Y-76567975D01*
X116371095Y-76603070D01*
X116450905Y-76649148D01*
X116539922Y-76673000D01*
X116632078Y-76673000D01*
X116721095Y-76649148D01*
X116800905Y-76603070D01*
X116836000Y-76567975D01*
X116836000Y-76860000D01*
G37*
%TD.AperFunction*%
%TA.AperFunction,Conductor*%
G36*
X126787168Y-79699680D02*
G01*
X126803747Y-79705174D01*
X126904823Y-79715500D01*
X127391900Y-79715499D01*
X127458939Y-79735183D01*
X127504694Y-79787987D01*
X127515900Y-79839499D01*
X127515900Y-79880730D01*
X127515899Y-79880748D01*
X127515899Y-80046454D01*
X127515898Y-80046454D01*
X127556823Y-80199187D01*
X127556825Y-80199190D01*
X127579280Y-80238082D01*
X127579281Y-80238084D01*
X127635875Y-80336109D01*
X127635881Y-80336117D01*
X127754749Y-80454985D01*
X127754755Y-80454990D01*
X128034932Y-80735167D01*
X128068417Y-80796490D01*
X128063433Y-80866182D01*
X128021561Y-80922115D01*
X127986259Y-80940553D01*
X127972699Y-80945046D01*
X127972688Y-80945051D01*
X127825965Y-81035552D01*
X127825961Y-81035555D01*
X127704055Y-81157461D01*
X127704052Y-81157465D01*
X127613551Y-81304188D01*
X127613546Y-81304199D01*
X127559317Y-81467852D01*
X127558767Y-81470424D01*
X127557990Y-81471857D01*
X127557189Y-81474276D01*
X127556757Y-81474133D01*
X127525484Y-81531857D01*
X127464271Y-81565543D01*
X127394563Y-81560787D01*
X127338492Y-81519100D01*
X127319809Y-81483468D01*
X127316716Y-81474133D01*
X127275908Y-81350984D01*
X127185340Y-81204150D01*
X127063350Y-81082160D01*
X127063346Y-81082157D01*
X127051401Y-81074789D01*
X127004677Y-81022840D01*
X126992500Y-80969252D01*
X126992500Y-80435194D01*
X126968386Y-80313970D01*
X126968385Y-80313969D01*
X126968385Y-80313965D01*
X126953488Y-80277999D01*
X126921086Y-80199773D01*
X126921079Y-80199760D01*
X126852412Y-80096993D01*
X126832136Y-80076717D01*
X126765008Y-80009589D01*
X126660487Y-79905068D01*
X126627002Y-79843745D01*
X126631986Y-79774053D01*
X126673858Y-79718120D01*
X126739322Y-79693703D01*
X126787168Y-79699680D01*
G37*
%TD.AperFunction*%
%TA.AperFunction,Conductor*%
G36*
X133391042Y-80369085D02*
G01*
X133436797Y-80421889D01*
X133446741Y-80491047D01*
X133417716Y-80554603D01*
X133411684Y-80561081D01*
X132862099Y-81110664D01*
X132800776Y-81144149D01*
X132731084Y-81139165D01*
X132675151Y-81097293D01*
X132662036Y-81075387D01*
X132643436Y-81035500D01*
X132619035Y-80983171D01*
X132617386Y-80980815D01*
X132483494Y-80789597D01*
X132316402Y-80622506D01*
X132316396Y-80622501D01*
X132248523Y-80574976D01*
X132204898Y-80520399D01*
X132197704Y-80450901D01*
X132229227Y-80388546D01*
X132289457Y-80353132D01*
X132319646Y-80349401D01*
X132346654Y-80349401D01*
X132346670Y-80349400D01*
X133324003Y-80349400D01*
X133391042Y-80369085D01*
G37*
%TD.AperFunction*%
%TA.AperFunction,Conductor*%
G36*
X147571252Y-79768185D02*
G01*
X147605787Y-79801376D01*
X147620493Y-79822378D01*
X147642820Y-79888584D01*
X147625808Y-79956351D01*
X147574860Y-80004164D01*
X147518917Y-80017500D01*
X143829194Y-80017500D01*
X143710583Y-80041094D01*
X143710579Y-80041095D01*
X143707966Y-80041614D01*
X143707962Y-80041615D01*
X143593773Y-80088913D01*
X143593761Y-80088920D01*
X143493492Y-80155919D01*
X143493481Y-80155926D01*
X143490992Y-80157588D01*
X143236969Y-80411612D01*
X142982992Y-80665589D01*
X142977174Y-80671407D01*
X142915848Y-80704886D01*
X142846156Y-80699896D01*
X142790226Y-80658020D01*
X142765815Y-80592553D01*
X142765500Y-80583718D01*
X142765500Y-80169631D01*
X142785185Y-80102592D01*
X142801789Y-80081979D01*
X142807048Y-80076717D01*
X142998153Y-79885483D01*
X143098720Y-79784848D01*
X143160032Y-79751343D01*
X143186431Y-79748500D01*
X147504213Y-79748500D01*
X147571252Y-79768185D01*
G37*
%TD.AperFunction*%
%TA.AperFunction,Conductor*%
G36*
X112448539Y-78772685D02*
G01*
X112494294Y-78825489D01*
X112505500Y-78877000D01*
X112505500Y-79199000D01*
X112485815Y-79266039D01*
X112433011Y-79311794D01*
X112381500Y-79323000D01*
X111759067Y-79323000D01*
X111761000Y-79315787D01*
X111761000Y-78830213D01*
X111759067Y-78823000D01*
X111813000Y-78823000D01*
X111846681Y-78789319D01*
X111908004Y-78755834D01*
X111934362Y-78753000D01*
X112381500Y-78753000D01*
X112448539Y-78772685D01*
G37*
%TD.AperFunction*%
%TA.AperFunction,Conductor*%
G36*
X111827285Y-73984185D02*
G01*
X111873040Y-74036989D01*
X111882984Y-74106147D01*
X111853959Y-74169703D01*
X111834558Y-74187766D01*
X111823809Y-74195812D01*
X111737649Y-74310906D01*
X111737645Y-74310913D01*
X111687403Y-74445620D01*
X111687401Y-74445627D01*
X111681000Y-74505155D01*
X111681000Y-74672191D01*
X111661315Y-74739230D01*
X111608511Y-74784985D01*
X111539353Y-74794929D01*
X111518683Y-74790122D01*
X111401145Y-74751932D01*
X111376000Y-74747950D01*
X111376000Y-75578025D01*
X111340905Y-75542930D01*
X111261095Y-75496852D01*
X111172078Y-75473000D01*
X111079922Y-75473000D01*
X110990905Y-75496852D01*
X110911095Y-75542930D01*
X110876000Y-75578025D01*
X110876000Y-74747950D01*
X110875999Y-74747950D01*
X110850855Y-74751932D01*
X110674962Y-74809082D01*
X110674956Y-74809084D01*
X110510162Y-74893052D01*
X110360545Y-75001754D01*
X110360540Y-75001758D01*
X110229758Y-75132540D01*
X110229754Y-75132545D01*
X110121052Y-75282162D01*
X110037084Y-75446956D01*
X110037083Y-75446959D01*
X109979933Y-75622852D01*
X109951000Y-75805526D01*
X109951000Y-75823000D01*
X110776000Y-75823000D01*
X110776000Y-76323000D01*
X109931000Y-76323000D01*
X109931000Y-76788869D01*
X109911315Y-76855908D01*
X109858511Y-76901663D01*
X109838260Y-76908604D01*
X109818829Y-76915851D01*
X109749137Y-76920833D01*
X109687816Y-76887346D01*
X109654333Y-76826022D01*
X109651500Y-76799668D01*
X109651500Y-74088500D01*
X109671185Y-74021461D01*
X109723989Y-73975706D01*
X109775500Y-73964500D01*
X111760246Y-73964500D01*
X111827285Y-73984185D01*
G37*
%TD.AperFunction*%
%TA.AperFunction,Conductor*%
G36*
X115009039Y-75572685D02*
G01*
X115054794Y-75625489D01*
X115066000Y-75677000D01*
X115066000Y-75929000D01*
X115046315Y-75996039D01*
X114993511Y-76041794D01*
X114942000Y-76053000D01*
X112770000Y-76053000D01*
X112702961Y-76033315D01*
X112657206Y-75980511D01*
X112646000Y-75929000D01*
X112646000Y-75677000D01*
X112665685Y-75609961D01*
X112718489Y-75564206D01*
X112770000Y-75553000D01*
X114942000Y-75553000D01*
X115009039Y-75572685D01*
G37*
%TD.AperFunction*%
%TA.AperFunction,Conductor*%
G36*
X135424075Y-75372007D02*
G01*
X135390000Y-75499174D01*
X135390000Y-75630826D01*
X135424075Y-75757993D01*
X135456988Y-75815000D01*
X133783012Y-75815000D01*
X133815925Y-75757993D01*
X133850000Y-75630826D01*
X133850000Y-75499174D01*
X133815925Y-75372007D01*
X133783012Y-75315000D01*
X135456988Y-75315000D01*
X135424075Y-75372007D01*
G37*
%TD.AperFunction*%
%TD*%
%TA.AperFunction,Conductor*%
%TO.N,GNDREF*%
G36*
X121619453Y-95777685D02*
G01*
X121665208Y-95830489D01*
X121672186Y-95849900D01*
X121691192Y-95920833D01*
X121700153Y-95954275D01*
X121711295Y-95973573D01*
X121767099Y-96070226D01*
X121861774Y-96164901D01*
X121977726Y-96231847D01*
X122107055Y-96266500D01*
X122107057Y-96266500D01*
X125288943Y-96266500D01*
X125288945Y-96266500D01*
X125418274Y-96231847D01*
X125534226Y-96164901D01*
X125628901Y-96070226D01*
X125695847Y-95954274D01*
X125723812Y-95849905D01*
X125760176Y-95790247D01*
X125823022Y-95759717D01*
X125843586Y-95758000D01*
X127342650Y-95758000D01*
X127409689Y-95777685D01*
X127455444Y-95830489D01*
X127462422Y-95849899D01*
X127462425Y-95849907D01*
X127495562Y-95973576D01*
X127569086Y-96100923D01*
X127569088Y-96100925D01*
X127569089Y-96100927D01*
X127673073Y-96204911D01*
X127673074Y-96204912D01*
X127673076Y-96204913D01*
X127800423Y-96278437D01*
X127800424Y-96278437D01*
X127800427Y-96278439D01*
X127942472Y-96316500D01*
X127942475Y-96316500D01*
X138249525Y-96316500D01*
X138249528Y-96316500D01*
X138391573Y-96278439D01*
X138518927Y-96204911D01*
X138622911Y-96100927D01*
X138696439Y-95973573D01*
X138729576Y-95849904D01*
X138765940Y-95790246D01*
X138828787Y-95759717D01*
X138849350Y-95758000D01*
X141491414Y-95758000D01*
X141558453Y-95777685D01*
X141604208Y-95830489D01*
X141611186Y-95849900D01*
X141630192Y-95920833D01*
X141639153Y-95954275D01*
X141650295Y-95973573D01*
X141706099Y-96070226D01*
X141800774Y-96164901D01*
X141916726Y-96231847D01*
X142046055Y-96266500D01*
X142046057Y-96266500D01*
X144973943Y-96266500D01*
X144973945Y-96266500D01*
X145103274Y-96231847D01*
X145219226Y-96164901D01*
X145313901Y-96070226D01*
X145380847Y-95954274D01*
X145408812Y-95849905D01*
X145445176Y-95790247D01*
X145508022Y-95759717D01*
X145528586Y-95758000D01*
X147789650Y-95758000D01*
X147856689Y-95777685D01*
X147902444Y-95830489D01*
X147909422Y-95849899D01*
X147909425Y-95849907D01*
X147942562Y-95973576D01*
X148016086Y-96100923D01*
X148016088Y-96100925D01*
X148016089Y-96100927D01*
X148120073Y-96204911D01*
X148120074Y-96204912D01*
X148120076Y-96204913D01*
X148247423Y-96278437D01*
X148247424Y-96278437D01*
X148247427Y-96278439D01*
X148389472Y-96316500D01*
X148536528Y-96316500D01*
X157813500Y-96316500D01*
X157880539Y-96336185D01*
X157926294Y-96388989D01*
X157937500Y-96440500D01*
X157937500Y-116411500D01*
X157917815Y-116478539D01*
X157865011Y-116524294D01*
X157813500Y-116535500D01*
X109775500Y-116535500D01*
X109708461Y-116515815D01*
X109662706Y-116463011D01*
X109651500Y-116411500D01*
X109651500Y-114681002D01*
X111004751Y-114681002D01*
X111023685Y-114849056D01*
X111079545Y-115008694D01*
X111079547Y-115008697D01*
X111169518Y-115151884D01*
X111169523Y-115151890D01*
X111289109Y-115271476D01*
X111289115Y-115271481D01*
X111432302Y-115361452D01*
X111432305Y-115361454D01*
X111432309Y-115361455D01*
X111432310Y-115361456D01*
X111504913Y-115386860D01*
X111591943Y-115417314D01*
X111759997Y-115436249D01*
X111760000Y-115436249D01*
X111760003Y-115436249D01*
X111928056Y-115417314D01*
X111928059Y-115417313D01*
X112087690Y-115361456D01*
X112087692Y-115361454D01*
X112087694Y-115361454D01*
X112087697Y-115361452D01*
X112230884Y-115271481D01*
X112230885Y-115271480D01*
X112230890Y-115271477D01*
X112350477Y-115151890D01*
X112350481Y-115151884D01*
X112440452Y-115008697D01*
X112440454Y-115008694D01*
X112440454Y-115008692D01*
X112440456Y-115008690D01*
X112496313Y-114849059D01*
X112496313Y-114849058D01*
X112496314Y-114849056D01*
X112515249Y-114681002D01*
X112515249Y-114680997D01*
X112500940Y-114554002D01*
X142881751Y-114554002D01*
X142900685Y-114722056D01*
X142956545Y-114881694D01*
X142956547Y-114881697D01*
X143046518Y-115024884D01*
X143046523Y-115024890D01*
X143166109Y-115144476D01*
X143166115Y-115144481D01*
X143309302Y-115234452D01*
X143309305Y-115234454D01*
X143309309Y-115234455D01*
X143309310Y-115234456D01*
X143381913Y-115259860D01*
X143468943Y-115290314D01*
X143636997Y-115309249D01*
X143637000Y-115309249D01*
X143637003Y-115309249D01*
X143805056Y-115290314D01*
X143805059Y-115290313D01*
X143964690Y-115234456D01*
X143964692Y-115234454D01*
X143964694Y-115234454D01*
X143964697Y-115234452D01*
X144107884Y-115144481D01*
X144107885Y-115144480D01*
X144107890Y-115144477D01*
X144227477Y-115024890D01*
X144317452Y-114881697D01*
X144317454Y-114881694D01*
X144317454Y-114881692D01*
X144317456Y-114881690D01*
X144373313Y-114722059D01*
X144373313Y-114722058D01*
X144373314Y-114722056D01*
X144392249Y-114554002D01*
X144392249Y-114553997D01*
X144373314Y-114385943D01*
X144317454Y-114226305D01*
X144317452Y-114226302D01*
X144227481Y-114083115D01*
X144227476Y-114083109D01*
X144107890Y-113963523D01*
X144107884Y-113963518D01*
X143964697Y-113873547D01*
X143964694Y-113873545D01*
X143805056Y-113817685D01*
X143637003Y-113798751D01*
X143636997Y-113798751D01*
X143468943Y-113817685D01*
X143309305Y-113873545D01*
X143309302Y-113873547D01*
X143166115Y-113963518D01*
X143166109Y-113963523D01*
X143046523Y-114083109D01*
X143046518Y-114083115D01*
X142956547Y-114226302D01*
X142956545Y-114226305D01*
X142900685Y-114385943D01*
X142881751Y-114553997D01*
X142881751Y-114554002D01*
X112500940Y-114554002D01*
X112496314Y-114512943D01*
X112440454Y-114353305D01*
X112440452Y-114353302D01*
X112350481Y-114210115D01*
X112350476Y-114210109D01*
X112230890Y-114090523D01*
X112230884Y-114090518D01*
X112087697Y-114000547D01*
X112087694Y-114000545D01*
X111928056Y-113944685D01*
X111760003Y-113925751D01*
X111759997Y-113925751D01*
X111591943Y-113944685D01*
X111432305Y-114000545D01*
X111432302Y-114000547D01*
X111289115Y-114090518D01*
X111289109Y-114090523D01*
X111169523Y-114210109D01*
X111169518Y-114210115D01*
X111079547Y-114353302D01*
X111079545Y-114353305D01*
X111023685Y-114512943D01*
X111004751Y-114680997D01*
X111004751Y-114681002D01*
X109651500Y-114681002D01*
X109651500Y-106299000D01*
X148203616Y-106299000D01*
X148223142Y-106721348D01*
X148223142Y-106721354D01*
X148223143Y-106721356D01*
X148281555Y-107140092D01*
X148281556Y-107140097D01*
X148378354Y-107551658D01*
X148512719Y-107952548D01*
X148512722Y-107952555D01*
X148683485Y-108339297D01*
X148683490Y-108339307D01*
X148683494Y-108339316D01*
X148683498Y-108339324D01*
X148683499Y-108339325D01*
X148889225Y-108708674D01*
X148889228Y-108708678D01*
X148889230Y-108708682D01*
X149128169Y-109057490D01*
X149128171Y-109057492D01*
X149128178Y-109057502D01*
X149394443Y-109378153D01*
X149398272Y-109382764D01*
X149697236Y-109681728D01*
X149697247Y-109681737D01*
X150022497Y-109951821D01*
X150022503Y-109951825D01*
X150022510Y-109951831D01*
X150371318Y-110190770D01*
X150740684Y-110396506D01*
X151127458Y-110567283D01*
X151528339Y-110701645D01*
X151939908Y-110798445D01*
X152358652Y-110856858D01*
X152781000Y-110876384D01*
X153203348Y-110856858D01*
X153622092Y-110798445D01*
X154033661Y-110701645D01*
X154434542Y-110567283D01*
X154821316Y-110396506D01*
X155190682Y-110190770D01*
X155539490Y-109951831D01*
X155864764Y-109681728D01*
X156163728Y-109382764D01*
X156433831Y-109057490D01*
X156672770Y-108708682D01*
X156878506Y-108339316D01*
X157049283Y-107952542D01*
X157183645Y-107551661D01*
X157280445Y-107140092D01*
X157338858Y-106721348D01*
X157358384Y-106299000D01*
X157338858Y-105876652D01*
X157280445Y-105457908D01*
X157183645Y-105046339D01*
X157049283Y-104645458D01*
X156878506Y-104258684D01*
X156711907Y-103959583D01*
X156672774Y-103889325D01*
X156672773Y-103889324D01*
X156672770Y-103889318D01*
X156433831Y-103540510D01*
X156433825Y-103540503D01*
X156433821Y-103540497D01*
X156163737Y-103215247D01*
X156163728Y-103215236D01*
X155864764Y-102916272D01*
X155750268Y-102821196D01*
X155539502Y-102646178D01*
X155539492Y-102646171D01*
X155539490Y-102646169D01*
X155190682Y-102407230D01*
X155190678Y-102407228D01*
X155190674Y-102407225D01*
X154821325Y-102201499D01*
X154821324Y-102201498D01*
X154821316Y-102201494D01*
X154821307Y-102201490D01*
X154821297Y-102201485D01*
X154434555Y-102030722D01*
X154434548Y-102030719D01*
X154033658Y-101896354D01*
X153622097Y-101799556D01*
X153622092Y-101799555D01*
X153203356Y-101741143D01*
X153203354Y-101741142D01*
X153203348Y-101741142D01*
X152781000Y-101721616D01*
X152358652Y-101741142D01*
X152358645Y-101741142D01*
X152358643Y-101741143D01*
X151939907Y-101799555D01*
X151939902Y-101799556D01*
X151528341Y-101896354D01*
X151127451Y-102030719D01*
X151127444Y-102030722D01*
X150740702Y-102201485D01*
X150740674Y-102201499D01*
X150371325Y-102407225D01*
X150371319Y-102407229D01*
X150022507Y-102646171D01*
X150022497Y-102646178D01*
X149697247Y-102916262D01*
X149697227Y-102916280D01*
X149398280Y-103215227D01*
X149398262Y-103215247D01*
X149128178Y-103540497D01*
X149128171Y-103540507D01*
X148889229Y-103889319D01*
X148889225Y-103889325D01*
X148683499Y-104258674D01*
X148683485Y-104258702D01*
X148512722Y-104645444D01*
X148512719Y-104645451D01*
X148378354Y-105046341D01*
X148342146Y-105200290D01*
X148281555Y-105457908D01*
X148223142Y-105876652D01*
X148203616Y-106299000D01*
X109651500Y-106299000D01*
X109651500Y-98552002D01*
X111131751Y-98552002D01*
X111150685Y-98720056D01*
X111206545Y-98879694D01*
X111206547Y-98879697D01*
X111296518Y-99022884D01*
X111296523Y-99022890D01*
X111416109Y-99142476D01*
X111416115Y-99142481D01*
X111559302Y-99232452D01*
X111559305Y-99232454D01*
X111559309Y-99232455D01*
X111559310Y-99232456D01*
X111631913Y-99257860D01*
X111718943Y-99288314D01*
X111886997Y-99307249D01*
X111887000Y-99307249D01*
X111887003Y-99307249D01*
X112055056Y-99288314D01*
X112055059Y-99288313D01*
X112214690Y-99232456D01*
X112214692Y-99232454D01*
X112214694Y-99232454D01*
X112214697Y-99232452D01*
X112357884Y-99142481D01*
X112357885Y-99142480D01*
X112357890Y-99142477D01*
X112477477Y-99022890D01*
X112567452Y-98879697D01*
X112567454Y-98879694D01*
X112567454Y-98879692D01*
X112567456Y-98879690D01*
X112623313Y-98720059D01*
X112623313Y-98720058D01*
X112623314Y-98720056D01*
X112642249Y-98552002D01*
X112642249Y-98551997D01*
X112623314Y-98383943D01*
X112567454Y-98224305D01*
X112567452Y-98224302D01*
X112477481Y-98081115D01*
X112477476Y-98081109D01*
X112357890Y-97961523D01*
X112357884Y-97961518D01*
X112214697Y-97871547D01*
X112214694Y-97871545D01*
X112055056Y-97815685D01*
X111887003Y-97796751D01*
X111886997Y-97796751D01*
X111718943Y-97815685D01*
X111559305Y-97871545D01*
X111559302Y-97871547D01*
X111416115Y-97961518D01*
X111416109Y-97961523D01*
X111296523Y-98081109D01*
X111296518Y-98081115D01*
X111206547Y-98224302D01*
X111206545Y-98224305D01*
X111150685Y-98383943D01*
X111131751Y-98551997D01*
X111131751Y-98552002D01*
X109651500Y-98552002D01*
X109651500Y-97790002D01*
X143262751Y-97790002D01*
X143281685Y-97958056D01*
X143337545Y-98117694D01*
X143337547Y-98117697D01*
X143427518Y-98260884D01*
X143427523Y-98260890D01*
X143547109Y-98380476D01*
X143547115Y-98380481D01*
X143690302Y-98470452D01*
X143690305Y-98470454D01*
X143690309Y-98470455D01*
X143690310Y-98470456D01*
X143762913Y-98495860D01*
X143849943Y-98526314D01*
X144017997Y-98545249D01*
X144018000Y-98545249D01*
X144018003Y-98545249D01*
X144186056Y-98526314D01*
X144186059Y-98526313D01*
X144345690Y-98470456D01*
X144345692Y-98470454D01*
X144345694Y-98470454D01*
X144345697Y-98470452D01*
X144488884Y-98380481D01*
X144488885Y-98380480D01*
X144488890Y-98380477D01*
X144608477Y-98260890D01*
X144698452Y-98117697D01*
X144698454Y-98117694D01*
X144698454Y-98117692D01*
X144698456Y-98117690D01*
X144754313Y-97958059D01*
X144754313Y-97958058D01*
X144754314Y-97958056D01*
X144773249Y-97790002D01*
X144773249Y-97789997D01*
X144754314Y-97621943D01*
X144698454Y-97462305D01*
X144698452Y-97462302D01*
X144608481Y-97319115D01*
X144608476Y-97319109D01*
X144488890Y-97199523D01*
X144488884Y-97199518D01*
X144345697Y-97109547D01*
X144345694Y-97109545D01*
X144186056Y-97053685D01*
X144018003Y-97034751D01*
X144017997Y-97034751D01*
X143849943Y-97053685D01*
X143690305Y-97109545D01*
X143690302Y-97109547D01*
X143547115Y-97199518D01*
X143547109Y-97199523D01*
X143427523Y-97319109D01*
X143427518Y-97319115D01*
X143337547Y-97462302D01*
X143337545Y-97462305D01*
X143281685Y-97621943D01*
X143262751Y-97789997D01*
X143262751Y-97790002D01*
X109651500Y-97790002D01*
X109651500Y-96440500D01*
X109671185Y-96373461D01*
X109723989Y-96327706D01*
X109775500Y-96316500D01*
X119199525Y-96316500D01*
X119199528Y-96316500D01*
X119341573Y-96278439D01*
X119468927Y-96204911D01*
X119572911Y-96100927D01*
X119646439Y-95973573D01*
X119679576Y-95849904D01*
X119715940Y-95790246D01*
X119778787Y-95759717D01*
X119799350Y-95758000D01*
X121552414Y-95758000D01*
X121619453Y-95777685D01*
G37*
%TD.AperFunction*%
%TD*%
M02*
